<svg width="336" height="412" viewBox="0 0 329 392" fill="none" xmlns="http://www.w3.org/2000/svg">
<line y1="26.6595" x2="329" y2="26.6595" stroke="#3896D9" stroke-opacity="0.1"/>
<line x1="32.4023" y1="2.19221e-08" x2="32.4023" y2="392" stroke="#3896D9" stroke-opacity="0.1"/>
<line x1="67.2969" y1="2.19221e-08" x2="67.2969" y2="392" stroke="#3896D9" stroke-opacity="0.1"/>
<line x1="102.191" y1="2.19221e-08" x2="102.191" y2="392" stroke="#3896D9" stroke-opacity="0.1"/>
<line x1="137.085" y1="2.19221e-08" x2="137.085" y2="392" stroke="#3896D9" stroke-opacity="0.1"/>
<line x1="171.979" y1="2.19221e-08" x2="171.979" y2="392" stroke="#3896D9" stroke-opacity="0.1"/>
<line x1="206.873" y1="2.19221e-08" x2="206.873" y2="392" stroke="#3896D9" stroke-opacity="0.1"/>
<line x1="241.767" y1="2.19221e-08" x2="241.767" y2="392" stroke="#3896D9" stroke-opacity="0.1"/>
<line x1="276.66" y1="2.19221e-08" x2="276.66" y2="392" stroke="#3896D9" stroke-opacity="0.1"/>
<line x1="311.555" y1="2.19221e-08" x2="311.555" y2="392" stroke="#3896D9" stroke-opacity="0.1"/>
<line y1="53.819" x2="329" y2="53.819" stroke="#3896D9" stroke-opacity="0.1"/>
<line y1="80.9785" x2="329" y2="80.9785" stroke="#3896D9" stroke-opacity="0.1"/>
<line y1="108.137" x2="329" y2="108.137" stroke="#3896D9" stroke-opacity="0.1"/>
<line y1="135.296" x2="329" y2="135.296" stroke="#3896D9" stroke-opacity="0.1"/>
<line y1="162.456" x2="329" y2="162.456" stroke="#3896D9" stroke-opacity="0.1"/>
<line y1="189.615" x2="329" y2="189.615" stroke="#3896D9" stroke-opacity="0.1"/>
<line y1="216.775" x2="329" y2="216.775" stroke="#3896D9" stroke-opacity="0.1"/>
<line y1="243.934" x2="329" y2="243.934" stroke="#3896D9" stroke-opacity="0.1"/>
<line y1="271.094" x2="329" y2="271.094" stroke="#3896D9" stroke-opacity="0.1"/>
<line y1="298.252" x2="329" y2="298.252" stroke="#3896D9" stroke-opacity="0.1"/>
<line y1="325.412" x2="329" y2="325.412" stroke="#3896D9" stroke-opacity="0.1"/>
<line y1="352.571" x2="329" y2="352.571" stroke="#3896D9" stroke-opacity="0.1"/>
<line y1="379.731" x2="329" y2="379.731" stroke="#3896D9" stroke-opacity="0.1"/>
</svg>
