<svg width="109" height="115" viewBox="0 0 109 115" fill="none" xmlns="http://www.w3.org/2000/svg">
<g style="mix-blend-mode:darken">
<g style="mix-blend-mode:darken">
<path d="M94.0858 100.732C94.1298 109.179 74.6198 114.028 50.6838 114.151C26.7474 114.275 13.3153 107.735 13.2813 101.15C13.2474 94.5642 26.7474 89.1562 50.6838 89.0322C74.6198 88.9082 94.0518 94.1472 94.0858 100.732Z" fill="#E2DBC2"/>
</g>
</g>
<path d="M106.08 64.6668C105.253 68.7583 103.945 72.7382 102.182 76.5232C90.9568 84.1252 70.5809 86.7822 48.5816 82.3522C12.6607 81.3632 5.07965 74.7292 1.45965 56.2373C1.13115 46.908 3.26825 37.6545 7.65605 29.4074C18.3696 9.34403 41.3332 -2.22837 64.7803 2.49423C88.2269 7.21683 104.875 26.7667 106.929 49.4005C107.389 54.5027 107.103 59.6455 106.08 64.6668Z" fill="white"/>
<path d="M105.659 55.7018C105.588 57.9751 105.367 60.2415 104.996 62.4861C104.835 63.4769 104.646 64.4622 104.429 65.442C104.314 65.9569 104.189 66.4699 104.061 66.9829C103.847 67.8382 103.978 67.1886 104.027 67.134C103.889 67.2744 103.743 67.407 103.591 67.5312C101.164 69.6995 98.4151 71.5243 95.5381 73.0423C88.4111 76.8023 80.4701 78.9993 72.5401 80.2293C63.42 81.6463 54.0961 81.8193 44.9278 80.8573C37.0136 80.0203 29.127 78.3493 21.6897 75.4823C15.209 72.9853 8.68529 69.5714 3.87919 64.4494L4.15779 65.2C1.55609 52.7356 3.53879 39.656 9.91349 28.5968C15.2945 19.2648 23.7288 11.7012 33.5857 7.34589C43.8551 2.83109 55.307 1.76349 66.2228 4.30329C76.4121 6.70469 85.6161 12.1673 92.5961 19.9566C100.108 28.3793 104.709 39.0993 105.535 50.3691C105.665 52.1415 105.699 53.9186 105.657 55.695C105.638 56.5143 106.54 57.1225 107.289 57.0636C108.175 56.9942 108.647 56.239 108.661 55.4314C109.133 35.3214 98.1531 16.3368 80.5731 6.62149C63.4772 -2.81981 41.9763 -2.08191 25.437 8.30539C17.3655 13.3749 10.7055 20.6064 6.24969 29.0258C1.08849 38.7769 -0.950613 50.1079 0.411287 61.0434C0.595387 62.5263 0.836387 64.0068 1.15429 65.4675C1.37569 66.4855 2.38299 67.2322 3.11809 67.9272C4.50709 69.2302 5.99059 70.4293 7.55639 71.5143C11.2132 74.0683 15.2055 76.1213 19.3405 77.7963C29.1908 81.7773 39.8311 83.7583 50.4197 84.2953C62.2716 84.8973 74.3231 83.8173 85.7001 80.2923C90.4771 78.8113 95.1211 76.8653 99.4141 74.2923C101.235 73.2113 102.968 71.9863 104.595 70.6303C105.418 69.9393 106.489 69.21 106.85 68.1812C107.311 66.8718 107.534 65.4159 107.785 64.055C108.297 61.2092 108.591 58.3289 108.664 55.4392C108.693 54.6186 107.777 54.0118 107.033 54.0693C106.144 54.1375 105.683 54.8916 105.659 55.7018Z" fill="#415BB8"/>
<path d="M96.0507 72.9382C106.626 49.9106 96.5307 22.7099 73.5037 12.1837C50.4756 1.65757 23.2354 11.7921 12.6604 34.8197C2.08545 57.8473 12.1803 85.0482 35.2079 95.5742C58.2356 106.1 85.4757 95.9662 96.0507 72.9382Z" fill="#CCEFF4" fill-opacity="0.4"/>
<path d="M105.365 67.9223C99.1605 90.9522 77.8255 107.643 52.9221 107.016C28.0184 106.389 7.60993 88.6472 2.65723 65.3354C11.8814 75.2391 31.139 82.3552 53.5719 82.9202C76.0045 83.4862 95.6175 77.3482 105.365 67.9223Z" fill="#4B9BE5"/>
<path d="M103.88 67.6651C99.1178 85.1432 85.0358 99.0732 67.5586 103.796C49.9741 108.548 30.8185 103.295 17.9734 90.5032C11.042 83.5662 6.24889 74.7872 4.16219 65.2038L1.43189 66.2196C10.4523 75.8282 24.108 80.4472 36.7744 82.7382C53.2449 85.7162 70.9728 85.1452 86.9468 79.8932C94.0868 77.5462 101.065 74.1192 106.531 68.8762C107.124 68.3078 106.891 67.233 106.322 66.7568C105.637 66.1836 104.783 66.4093 104.199 66.9692C99.7178 71.2682 93.9568 74.1612 88.1768 76.2782C80.7848 78.9872 72.9808 80.4662 65.15 81.1002C49.9501 82.3312 33.9314 80.6332 19.7913 74.7242C13.9911 72.3002 8.22149 69.079 3.88359 64.4531C3.42099 63.9603 2.81619 63.6701 2.13359 63.9241C1.56809 64.1345 1.01899 64.8318 1.15329 65.4689C5.10339 83.8092 18.4405 99.2812 36.2368 105.476C54.586 111.861 75.5238 107.915 90.1398 95.0252C98.2168 87.8992 104.027 78.5642 106.849 68.1783C107.361 66.3059 104.386 65.8071 103.88 67.6651Z" fill="#415BB8"/>
<path d="M38.19 31.8826C40.1754 27.5591 38.2801 22.4521 33.9566 20.4758C29.6331 18.4995 24.5187 20.4023 22.5332 24.7258C20.5477 29.0492 22.4431 34.1562 26.7666 36.1325C31.0901 38.1088 36.2045 36.2061 38.19 31.8826Z" fill="white"/>
</svg>
