<svg width="400" height="863" viewBox="0 0 375 812" fill="none" xmlns="http://www.w3.org/2000/svg">
<g clip-path="url(#clip0_1216_818)">
<rect width="375" height="812" transform="matrix(-1 0 0 1 375 0)" fill="white"/>
<path d="M375 0H0V812H375V0Z" fill="url(#paint0_linear_1216_818)"/>
<path d="M514 436.944C502.321 430.266 489.099 426.763 475.648 426.783C447.479 426.783 422.825 441.84 409.276 464.349C398.731 458.773 386.748 456.517 374.899 457.876C363.051 459.235 351.889 464.145 342.877 471.964C340.445 468.797 337.232 466.319 333.553 464.774C329.874 463.228 325.857 462.669 321.896 463.15C317.935 463.631 314.168 465.136 310.965 467.518C307.762 469.899 305.235 473.075 303.631 476.731C298.101 474.491 292.191 473.342 286.226 473.349C284.098 473.35 281.973 473.495 279.866 473.785C273.746 440.38 244.508 415.063 209.365 415.063C170.011 415.063 138.07 446.806 137.694 486.106C136.41 486.024 135.118 485.979 133.814 485.979C126.29 485.971 118.83 487.361 111.813 490.078C108.392 468.166 89.4525 451.402 66.5994 451.402C62.612 451.4 58.6413 451.919 54.7879 452.945C38.1041 430.516 11.4068 415.976 -18.683 415.976C-45.577 415.976 -69.7652 427.59 -86.5118 446.073C-95.8161 444.014 -105.487 444.305 -114.65 446.922C-123.814 449.538 -132.182 454.398 -139 461.061V571.195H514V436.944Z" fill="#FBFFFD"/>
<path d="M66.6036 420.852C67.6727 416.319 64.8673 411.776 60.3376 410.706C55.8078 409.636 51.269 412.444 50.1999 416.977C49.1307 421.511 51.9361 426.054 56.4659 427.124C60.9957 428.194 65.5345 425.386 66.6036 420.852Z" fill="#FBFFFD"/>
<path d="M39.7524 414.183C41.299 412.635 41.299 410.125 39.7524 408.577C38.2058 407.029 35.6982 407.029 34.1516 408.577C32.605 410.125 32.605 412.635 34.1516 414.183C35.6982 415.731 38.2058 415.731 39.7524 414.183Z" fill="#FBFFFD"/>
<path d="M288.804 450.924C290.991 450.924 292.764 449.149 292.764 446.96C292.764 444.771 290.991 442.996 288.804 442.996C286.616 442.996 284.843 444.771 284.843 446.96C284.843 449.149 286.616 450.924 288.804 450.924Z" fill="#FBFFFD"/>
<path d="M77.1421 397.195C77.4188 396.021 76.6926 394.845 75.52 394.568C74.3474 394.291 73.1724 395.018 72.8957 396.192C72.6189 397.365 73.3451 398.541 74.5177 398.818C75.6904 399.095 76.8653 398.369 77.1421 397.195Z" fill="#FBFFFD"/>
<path d="M338.401 384.353C339.948 385.901 339.948 388.411 338.401 389.959C336.855 391.507 334.347 391.507 332.8 389.959C331.254 388.411 331.254 385.901 332.8 384.353C334.347 382.805 336.855 382.805 338.401 384.353Z" fill="#FBFFFD"/>
<path d="M370.748 397.6C371.024 398.773 370.298 399.949 369.125 400.226C367.953 400.503 366.778 399.776 366.501 398.603C366.224 397.429 366.951 396.253 368.123 395.976C369.296 395.699 370.471 396.426 370.748 397.6Z" fill="#FBFFFD"/>
<path d="M360.364 379.745C361.113 382.918 359.149 386.097 355.979 386.846C352.809 387.595 349.632 385.63 348.884 382.457C348.136 379.284 350.099 376.105 353.27 375.356C356.44 374.607 359.616 376.572 360.364 379.745Z" fill="#FBFFFD"/>
<path d="M131.351 462.964C132.203 462.111 132.203 460.729 131.351 459.876C130.499 459.023 129.117 459.023 128.265 459.876C127.413 460.729 127.413 462.111 128.265 462.964C129.117 463.817 130.499 463.817 131.351 462.964Z" fill="#FBFFFD"/>
<path d="M187.978 521C113.872 521 47.0619 536.219 0 560.592V812H375V560.1C327.991 536.014 261.584 521 187.978 521Z" fill="#E9DCCF"/>
<path d="M320.421 548.045C320.445 552.786 313.695 555.275 299.763 555.347C285.83 555.419 278.013 551.749 277.994 548.053C277.975 544.356 285.833 541.319 299.765 541.247C313.698 541.175 320.402 544.349 320.421 548.045Z" fill="#EBCDB0"/>
<path d="M281.094 518.338C281.852 516.834 282.786 515.425 283.876 514.14C289.059 512.381 297.28 513.521 305.378 517.592C313.475 521.663 319.286 527.578 320.951 532.781C320.085 536.446 318.266 539.818 315.678 542.558C309.366 549.221 299.187 551.274 290.557 546.934C281.926 542.595 277.525 533.212 279.136 524.187C279.501 522.152 280.16 520.182 281.094 518.338V518.338Z" fill="white"/>
<path d="M294.287 537.345C294.3 537.336 294.312 537.327 294.326 537.318C294.424 537.248 294.496 537.148 294.528 537.038C294.56 536.928 294.55 536.815 294.499 536.722L289.576 527.871C289.55 527.819 289.513 527.775 289.466 527.74C289.42 527.704 289.365 527.679 289.306 527.666C289.246 527.653 289.183 527.652 289.12 527.663C289.057 527.674 288.996 527.696 288.939 527.73C288.883 527.763 288.832 527.806 288.791 527.857C288.75 527.907 288.719 527.964 288.7 528.023C288.681 528.082 288.674 528.143 288.68 528.202C288.686 528.262 288.705 528.317 288.735 528.367L293.658 537.22C293.714 537.319 293.811 537.387 293.929 537.411C294.047 537.435 294.176 537.411 294.287 537.345V537.345Z" fill="#823C9A"/>
<path fill-rule="evenodd" clip-rule="evenodd" d="M309.436 515.407C309.55 515.063 309.795 514.759 310.121 514.56L309.723 513.846L284.642 528.624L285.04 529.338C285.371 529.15 285.751 529.085 286.097 529.159C286.444 529.232 286.729 529.438 286.892 529.731C287.055 530.024 287.083 530.382 286.969 530.727C286.855 531.072 286.608 531.376 286.283 531.574L286.601 532.15C286.932 531.962 287.311 531.898 287.658 531.971C288.004 532.045 288.289 532.25 288.452 532.543C288.615 532.836 288.642 533.194 288.529 533.538C288.415 533.883 288.169 534.187 287.844 534.386L288.162 534.96C288.493 534.772 288.872 534.708 289.219 534.782C289.565 534.856 289.85 535.061 290.013 535.354C290.176 535.647 290.203 536.004 290.09 536.349C289.976 536.693 289.73 536.998 289.405 537.196L289.723 537.771C290.055 537.575 290.439 537.506 290.791 537.577C291.142 537.648 291.432 537.855 291.597 538.151C291.762 538.448 291.788 538.81 291.67 539.158C291.552 539.506 291.299 539.812 290.967 540.008L291.364 540.721L316.445 525.943L316.048 525.23C315.717 525.418 315.338 525.482 314.991 525.408C314.645 525.334 314.36 525.129 314.197 524.836C314.034 524.542 314.006 524.185 314.12 523.84C314.233 523.496 314.479 523.191 314.804 522.993L314.487 522.418C314.155 522.614 313.771 522.684 313.419 522.613C313.068 522.541 312.778 522.334 312.613 522.038C312.448 521.741 312.421 521.379 312.54 521.031C312.658 520.683 312.911 520.378 313.243 520.182L312.925 519.607C312.594 519.795 312.215 519.859 311.869 519.785C311.523 519.712 311.237 519.506 311.074 519.213C310.912 518.92 310.884 518.563 310.998 518.219C311.111 517.874 311.357 517.57 311.682 517.371L311.364 516.796C311.033 516.984 310.653 517.048 310.307 516.974C309.961 516.9 309.676 516.695 309.513 516.402C309.35 516.109 309.322 515.752 309.436 515.407Z" fill="#E5A8F2"/>
<path d="M309.726 512.847L283.805 528.121C283.749 528.153 283.7 528.195 283.659 528.244C283.619 528.293 283.588 528.348 283.568 528.406C283.549 528.464 283.541 528.523 283.545 528.581C283.549 528.639 283.566 528.695 283.593 528.744L284.408 530.208C284.436 530.258 284.474 530.3 284.52 530.333C284.567 530.366 284.621 530.389 284.679 530.401C284.738 530.413 284.799 530.413 284.861 530.402C284.923 530.391 284.983 530.369 285.038 530.336L285.439 530.1C285.548 530.036 285.674 530.014 285.789 530.037C285.904 530.06 285.999 530.128 286.054 530.225C286.081 530.273 286.098 530.327 286.102 530.384C286.106 530.441 286.099 530.499 286.079 530.556C286.06 530.613 286.029 530.667 285.989 530.714C285.949 530.762 285.901 530.803 285.846 530.834L285.446 531.07C285.335 531.136 285.25 531.239 285.21 531.356C285.19 531.413 285.182 531.473 285.186 531.531C285.191 531.589 285.207 531.644 285.234 531.694L285.971 533.018C285.999 533.067 286.037 533.11 286.083 533.143C286.13 533.176 286.184 533.199 286.242 533.211C286.301 533.223 286.363 533.223 286.424 533.212C286.486 533.201 286.546 533.179 286.601 533.146L287.002 532.91C287.056 532.878 287.115 532.856 287.175 532.845C287.235 532.834 287.296 532.834 287.353 532.846C287.41 532.858 287.463 532.88 287.509 532.913C287.554 532.945 287.592 532.987 287.618 533.035C287.645 533.083 287.661 533.137 287.665 533.194C287.67 533.251 287.662 533.309 287.642 533.366C287.623 533.423 287.593 533.477 287.553 533.525C287.514 533.573 287.465 533.614 287.411 533.646L287.011 533.881C286.899 533.947 286.814 534.05 286.775 534.167C286.735 534.284 286.744 534.405 286.799 534.505L287.536 535.829C287.564 535.879 287.602 535.921 287.648 535.954C287.695 535.987 287.749 536.01 287.807 536.022C287.866 536.034 287.928 536.034 287.989 536.023C288.051 536.012 288.111 535.989 288.166 535.957L288.566 535.721C288.675 535.656 288.801 535.634 288.917 535.657C289.032 535.68 289.127 535.748 289.182 535.845C289.21 535.893 289.226 535.947 289.231 536.004C289.236 536.061 289.228 536.12 289.209 536.177C289.189 536.234 289.159 536.288 289.118 536.336C289.078 536.383 289.029 536.424 288.974 536.455L288.574 536.691C288.463 536.757 288.378 536.86 288.339 536.977C288.299 537.093 288.308 537.215 288.363 537.315L289.099 538.639C289.127 538.688 289.165 538.731 289.211 538.764C289.258 538.797 289.312 538.82 289.37 538.832C289.429 538.844 289.491 538.844 289.552 538.833C289.614 538.822 289.674 538.799 289.729 538.767L290.129 538.53C290.238 538.466 290.364 538.444 290.479 538.467C290.595 538.49 290.69 538.558 290.744 538.655C290.772 538.703 290.789 538.757 290.793 538.814C290.798 538.871 290.79 538.929 290.771 538.986C290.752 539.043 290.721 539.097 290.681 539.145C290.641 539.193 290.592 539.234 290.537 539.265L290.137 539.501C290.026 539.567 289.941 539.67 289.902 539.786C289.862 539.903 289.871 540.025 289.925 540.124L290.741 541.589C290.768 541.638 290.806 541.681 290.853 541.714C290.899 541.747 290.953 541.77 291.012 541.782C291.07 541.794 291.132 541.794 291.193 541.783C291.255 541.772 291.315 541.749 291.37 541.716L317.292 526.443L317.33 526.416C317.429 526.346 317.501 526.246 317.533 526.136C317.566 526.025 317.555 525.913 317.504 525.819L316.689 524.355C316.661 524.305 316.623 524.263 316.577 524.23C316.53 524.197 316.476 524.174 316.418 524.162C316.359 524.15 316.297 524.149 316.236 524.161C316.174 524.172 316.114 524.194 316.059 524.227L315.66 524.463C315.555 524.523 315.434 524.545 315.323 524.525C315.211 524.504 315.117 524.442 315.06 524.352C315.003 524.261 314.988 524.149 315.016 524.038C315.044 523.927 315.115 523.825 315.213 523.754L315.25 523.727L315.65 523.493C315.705 523.461 315.755 523.419 315.796 523.37C315.836 523.321 315.867 523.265 315.887 523.207C315.926 523.09 315.918 522.969 315.863 522.869L315.126 521.544C315.099 521.495 315.061 521.453 315.014 521.419C314.968 521.386 314.914 521.363 314.855 521.351C314.797 521.339 314.735 521.339 314.673 521.35C314.612 521.361 314.552 521.384 314.496 521.417L314.096 521.652C313.987 521.716 313.861 521.739 313.745 521.716C313.629 521.693 313.534 521.625 313.48 521.527C313.425 521.43 313.417 521.31 313.456 521.196C313.495 521.081 313.578 520.981 313.687 520.917L314.086 520.681C314.198 520.615 314.283 520.512 314.323 520.395C314.362 520.279 314.354 520.157 314.298 520.058L313.561 518.732C313.534 518.683 313.496 518.64 313.449 518.607C313.403 518.574 313.349 518.551 313.29 518.539C313.232 518.527 313.17 518.527 313.108 518.538C313.047 518.549 312.987 518.572 312.932 518.604L312.532 518.841C312.478 518.872 312.419 518.894 312.359 518.905C312.298 518.916 312.238 518.916 312.181 518.904C312.123 518.893 312.071 518.87 312.025 518.837C311.98 518.805 311.942 518.763 311.915 518.715C311.889 518.667 311.873 518.613 311.869 518.556C311.865 518.499 311.872 518.441 311.892 518.384C311.911 518.327 311.941 518.273 311.981 518.225C312.021 518.177 312.069 518.136 312.123 518.105L312.523 517.869C312.634 517.803 312.719 517.7 312.759 517.584C312.798 517.467 312.79 517.345 312.734 517.246L311.997 515.921C311.97 515.872 311.932 515.829 311.885 515.796C311.839 515.763 311.785 515.74 311.726 515.728C311.668 515.716 311.606 515.716 311.544 515.727C311.483 515.738 311.423 515.761 311.367 515.793L310.968 516.029C310.913 516.061 310.855 516.083 310.794 516.094C310.734 516.105 310.674 516.105 310.616 516.093C310.559 516.081 310.506 516.059 310.461 516.026C310.415 515.994 310.378 515.952 310.351 515.904C310.324 515.856 310.308 515.802 310.304 515.745C310.3 515.688 310.308 515.629 310.327 515.573C310.346 515.516 310.376 515.462 310.416 515.414C310.456 515.366 310.504 515.325 310.558 515.293L310.958 515.058C311.07 514.992 311.154 514.889 311.194 514.773C311.234 514.656 311.225 514.534 311.169 514.435L310.355 512.97C310.299 512.871 310.201 512.803 310.083 512.78C309.965 512.757 309.837 512.781 309.726 512.847ZM310.121 514.56C309.795 514.758 309.55 515.063 309.436 515.407C309.322 515.752 309.35 516.109 309.513 516.402C309.676 516.695 309.961 516.9 310.307 516.974C310.653 517.048 311.033 516.984 311.364 516.796L311.682 517.371C311.357 517.57 311.111 517.874 310.998 518.219C310.884 518.563 310.912 518.92 311.074 519.213C311.237 519.506 311.523 519.712 311.869 519.785C312.215 519.859 312.594 519.795 312.925 519.607L313.243 520.182C312.911 520.377 312.658 520.683 312.54 521.031C312.421 521.379 312.448 521.741 312.613 522.038C312.778 522.334 313.068 522.541 313.419 522.612C313.771 522.684 314.155 522.614 314.487 522.418L314.804 522.992C314.479 523.191 314.233 523.496 314.12 523.84C314.006 524.185 314.034 524.542 314.197 524.836C314.36 525.129 314.645 525.334 314.991 525.408C315.338 525.481 315.717 525.417 316.048 525.229L316.445 525.943L291.364 540.721L290.967 540.007C291.299 539.812 291.552 539.506 291.67 539.158C291.789 538.81 291.762 538.448 291.597 538.151C291.432 537.855 291.142 537.648 290.791 537.577C290.439 537.505 290.055 537.575 289.723 537.771L289.405 537.196C289.73 536.998 289.976 536.693 290.09 536.349C290.204 536.004 290.176 535.647 290.013 535.354C289.85 535.061 289.565 534.856 289.219 534.782C288.873 534.708 288.493 534.772 288.162 534.96L287.844 534.385C288.169 534.187 288.415 533.882 288.529 533.538C288.642 533.193 288.615 532.836 288.452 532.543C288.289 532.25 288.004 532.045 287.658 531.971C287.311 531.898 286.932 531.962 286.601 532.15L286.283 531.574C286.608 531.376 286.855 531.071 286.969 530.727C287.083 530.382 287.056 530.024 286.893 529.731C286.73 529.438 286.444 529.232 286.098 529.159C285.751 529.085 285.371 529.149 285.04 529.338L284.642 528.624L309.723 513.846L310.121 514.56Z" fill="#823C9A"/>
<path d="M293.846 537.968C293.858 537.96 293.87 537.952 293.882 537.943C293.976 537.88 294.045 537.786 294.074 537.679C294.104 537.573 294.093 537.462 294.043 537.368L289.258 528.451C289.233 528.399 289.197 528.354 289.152 528.317C289.107 528.28 289.055 528.253 288.998 528.237C288.941 528.221 288.88 528.216 288.82 528.224C288.76 528.231 288.701 528.251 288.647 528.28C288.594 528.31 288.546 528.35 288.507 528.397C288.468 528.444 288.439 528.498 288.421 528.555C288.403 528.613 288.397 528.672 288.404 528.73C288.41 528.788 288.428 528.844 288.457 528.894L293.243 537.813C293.297 537.913 293.391 537.985 293.504 538.014C293.617 538.043 293.74 538.027 293.846 537.968V537.968Z" fill="#823C9A"/>
<path d="M295.152 528.596C295.224 528.557 295.296 528.525 295.367 528.501C295.438 528.477 295.511 528.484 295.586 528.522C295.665 528.557 295.745 528.649 295.827 528.798C295.906 528.942 295.941 529.06 295.93 529.149C295.922 529.233 295.886 529.299 295.824 529.348C295.766 529.395 295.7 529.439 295.628 529.478L294.841 529.91L296.273 532.523C296.319 532.607 296.357 532.693 296.385 532.781C296.412 532.866 296.402 532.953 296.357 533.042C296.316 533.129 296.208 533.22 296.033 533.316C295.865 533.408 295.732 533.449 295.632 533.439C295.531 533.425 295.452 533.385 295.395 533.317C295.34 533.243 295.289 533.165 295.243 533.081L293.814 530.473L293.02 530.908C292.952 530.945 292.88 530.977 292.805 531.003C292.732 531.023 292.656 531.016 292.577 530.98C292.502 530.942 292.424 530.849 292.343 530.7C292.263 530.556 292.228 530.442 292.236 530.358C292.249 530.272 292.286 530.204 292.348 530.156C292.41 530.107 292.476 530.063 292.544 530.026L295.152 528.596ZM298.656 531.878C298.484 531.972 298.349 532.014 298.25 532.004C298.148 531.99 298.068 531.948 298.009 531.876C297.948 531.801 297.894 531.721 297.848 531.638L296.231 528.687C296.185 528.604 296.148 528.518 296.119 528.43C296.091 528.341 296.099 528.253 296.144 528.164C296.187 528.071 296.296 527.976 296.471 527.88C296.646 527.784 296.783 527.744 296.881 527.76C296.98 527.77 297.059 527.811 297.118 527.882C297.177 527.954 297.231 528.033 297.279 528.121L298.896 531.071C298.942 531.155 298.979 531.241 299.008 531.329C299.036 531.417 299.029 531.508 298.986 531.601C298.941 531.69 298.831 531.782 298.656 531.878ZM301.633 530.32C301.485 530.402 301.305 530.468 301.096 530.518C300.888 530.573 300.663 530.6 300.42 530.599C300.181 530.596 299.939 530.556 299.693 530.478C299.451 530.398 299.22 530.27 299 530.094C298.784 529.915 298.593 529.676 298.428 529.375C298.27 529.086 298.176 528.806 298.146 528.536C298.12 528.263 298.14 528.005 298.204 527.762C298.269 527.518 298.365 527.297 298.494 527.098C298.626 526.897 298.773 526.723 298.934 526.575C299.093 526.423 299.251 526.305 299.407 526.219C299.601 526.113 299.786 526.044 299.961 526.012C300.135 525.976 300.282 525.96 300.402 525.963C300.524 525.96 300.601 525.96 300.632 525.963C300.735 525.971 300.836 525.988 300.934 526.013C301.034 526.032 301.111 526.092 301.165 526.191C301.192 526.24 301.209 526.298 301.215 526.363C301.225 526.427 301.225 526.499 301.215 526.579C301.197 526.727 301.167 526.845 301.126 526.932C301.089 527.017 301.037 527.077 300.973 527.112C300.923 527.139 300.869 527.154 300.811 527.156C300.753 527.159 300.68 527.156 300.593 527.15C300.556 527.146 300.51 527.143 300.456 527.144C300.399 527.14 300.33 527.148 300.247 527.169C300.162 527.186 300.061 527.226 299.943 527.291C299.844 527.345 299.746 527.424 299.649 527.526C299.553 527.623 299.476 527.74 299.417 527.876C299.356 528.008 299.329 528.157 299.335 528.322C299.339 528.483 299.39 528.653 299.488 528.831C299.588 529.014 299.705 529.15 299.839 529.241C299.976 529.329 300.118 529.384 300.264 529.408C300.409 529.428 300.549 529.425 300.684 529.401C300.82 529.37 300.936 529.329 301.031 529.277C301.13 529.223 301.21 529.169 301.27 529.117C301.328 529.06 301.375 529.002 301.412 528.942C301.452 528.881 301.487 528.822 301.516 528.766C301.541 528.713 301.572 528.661 301.609 528.612C301.646 528.562 301.689 528.523 301.739 528.496C301.803 528.46 301.883 528.452 301.976 528.469C302.07 528.487 302.184 528.532 302.316 528.602C302.394 528.644 302.457 528.688 302.508 528.735C302.56 528.776 302.598 528.819 302.623 528.864C302.676 528.959 302.683 529.054 302.646 529.149C302.612 529.241 302.57 529.331 302.519 529.419C302.501 529.449 302.463 529.514 302.404 529.615C302.346 529.717 302.255 529.831 302.132 529.958C302.008 530.085 301.842 530.205 301.633 530.32ZM303.918 528.994C303.746 529.087 303.611 529.129 303.512 529.12C303.41 529.106 303.33 529.063 303.271 528.992C303.21 528.916 303.156 528.837 303.111 528.753L301.493 525.803C301.447 525.719 301.41 525.633 301.382 525.545C301.353 525.457 301.361 525.368 301.406 525.279C301.45 525.186 301.559 525.092 301.734 524.996C301.909 524.9 302.045 524.86 302.143 524.875C302.242 524.885 302.321 524.926 302.38 524.998C302.439 525.069 302.493 525.149 302.541 525.236L302.972 526.024L303.343 524.344C303.378 524.201 303.423 524.089 303.479 524.009C303.534 523.93 303.608 523.879 303.7 523.858C303.793 523.837 303.911 523.847 304.056 523.886C304.29 523.941 304.437 524.021 304.5 524.125C304.562 524.23 304.566 524.386 304.511 524.594L304.019 526.348L305.759 526.856C305.977 526.92 306.111 527.012 306.163 527.132C306.215 527.247 306.199 527.411 306.114 527.626C306.05 527.78 305.985 527.89 305.917 527.957C305.85 528.023 305.77 528.055 305.679 528.05C305.59 528.05 305.476 528.023 305.338 527.97L303.717 527.382L304.158 528.186C304.204 528.27 304.241 528.356 304.27 528.444C304.298 528.533 304.291 528.623 304.248 528.716C304.203 528.805 304.093 528.898 303.918 528.994ZM307.425 527.071C307.254 527.164 307.119 527.207 307.019 527.197C306.918 527.183 306.838 527.14 306.779 527.069C306.718 526.994 306.664 526.914 306.618 526.83L305.001 523.88C304.893 523.682 304.857 523.526 304.893 523.412C304.931 523.292 305.051 523.177 305.253 523.067L307.341 521.922C307.429 521.874 307.515 521.837 307.599 521.81C307.687 521.781 307.776 521.79 307.865 521.835C307.958 521.878 308.052 521.987 308.148 522.162C308.242 522.333 308.282 522.47 308.269 522.571C308.259 522.67 308.218 522.75 308.147 522.809C308.075 522.868 307.996 522.921 307.908 522.969L306.333 523.833L306.611 524.34L307.667 523.762C307.755 523.714 307.837 523.679 307.914 523.656C307.988 523.63 308.063 523.636 308.139 523.674C308.214 523.712 308.293 523.807 308.377 523.959C308.456 524.104 308.492 524.22 308.486 524.307C308.477 524.391 308.44 524.459 308.374 524.51C308.308 524.561 308.231 524.61 308.144 524.658L307.099 525.231L307.378 525.739L308.959 524.872C309.046 524.824 309.132 524.787 309.216 524.76C309.305 524.732 309.393 524.74 309.482 524.785C309.575 524.828 309.67 524.937 309.766 525.112C309.86 525.284 309.9 525.42 309.886 525.521C309.876 525.621 309.835 525.7 309.764 525.759C309.692 525.818 309.613 525.871 309.525 525.919L307.425 527.071ZM311.182 519.809C311.254 519.769 311.326 519.738 311.397 519.714C311.467 519.69 311.541 519.696 311.616 519.734C311.695 519.77 311.775 519.862 311.856 520.011C311.936 520.155 311.97 520.272 311.96 520.362C311.951 520.446 311.916 520.512 311.854 520.561C311.795 520.608 311.73 520.651 311.658 520.691L310.87 521.123L312.303 523.736C312.349 523.82 312.386 523.906 312.415 523.994C312.441 524.079 312.432 524.165 312.387 524.254C312.345 524.341 312.237 524.433 312.062 524.529C311.895 524.621 311.761 524.662 311.662 524.652C311.56 524.638 311.481 524.597 311.424 524.53C311.369 524.456 311.319 524.377 311.273 524.294L309.843 521.686L309.05 522.121C308.981 522.158 308.91 522.19 308.835 522.216C308.762 522.236 308.686 522.229 308.607 522.193C308.532 522.155 308.454 522.062 308.372 521.913C308.293 521.769 308.258 521.654 308.266 521.571C308.278 521.485 308.316 521.417 308.378 521.368C308.44 521.319 308.505 521.276 308.574 521.239L311.182 519.809Z" fill="#823C9A"/>
<path d="M281.666 518.55C282.083 517.732 282.554 516.944 283.075 516.188C283.305 515.855 283.543 515.528 283.791 515.208C283.922 515.04 284.056 514.874 284.191 514.709C284.416 514.434 284.256 514.648 284.229 514.66C284.304 514.632 284.38 514.609 284.457 514.59C285.717 514.217 287.035 514.025 288.347 513.966C291.598 513.823 294.877 514.389 297.985 515.307C301.561 516.361 304.997 517.905 308.18 519.836C310.928 521.504 313.521 523.473 315.744 525.801C317.682 527.828 319.478 530.198 320.352 532.895L320.38 532.573C319.185 537.569 316.21 542 311.978 544.936C308.406 547.414 304.023 548.72 299.673 548.611C295.145 548.489 290.777 546.905 287.227 544.098C283.918 541.466 281.496 537.887 280.286 533.842C278.992 529.475 279.156 524.771 280.793 520.517C281.051 519.848 281.344 519.193 281.665 518.552C281.813 518.257 281.588 517.879 281.305 517.772C280.969 517.645 280.667 517.839 280.522 518.131C276.89 525.387 277.633 534.206 282.384 540.779C287.004 547.17 294.986 550.605 302.815 549.665C306.636 549.206 310.313 547.715 313.39 545.411C316.954 542.743 319.648 538.96 321.033 534.735C321.221 534.162 321.388 533.581 321.523 532.993C321.617 532.583 321.378 532.137 321.229 531.757C320.945 531.042 320.61 530.349 320.225 529.684C319.328 528.122 318.223 526.685 317.001 525.361C314.088 522.211 310.541 519.655 306.766 517.635C302.54 515.373 297.952 513.691 293.189 513.017C291.189 512.734 289.157 512.643 287.146 512.843C286.295 512.923 285.451 513.072 284.623 513.286C284.204 513.396 283.687 513.478 283.378 513.791C282.984 514.189 282.652 514.682 282.327 515.136C281.65 516.086 281.047 517.086 280.523 518.128C280.371 518.422 280.601 518.801 280.883 518.908C281.219 519.037 281.517 518.841 281.666 518.55Z" fill="#823C9A"/>
<path d="M288.142 513.915C280.317 520.495 279.323 532.159 285.924 539.967C292.525 547.775 304.22 548.771 312.046 542.192C319.872 535.612 320.865 523.948 314.264 516.14C307.664 508.331 295.968 507.336 288.142 513.915Z" fill="#CCEFF4" fill-opacity="0.4"/>
<path d="M283.877 514.141C290.106 506.808 300.772 504.394 309.762 508.913C318.752 513.433 323.154 523.423 320.951 532.782C319.286 527.579 313.475 521.664 305.378 517.593C297.28 513.521 289.059 512.381 283.877 514.141Z" fill="#D06AE6"/>
<path d="M284.375 514.492C289.122 508.935 296.663 506.279 303.861 507.567C311.102 508.863 317.196 514.08 319.687 520.961C321.025 524.686 321.265 528.715 320.379 532.571L321.551 532.671C319.909 527.611 315.715 523.573 311.483 520.555C305.978 516.63 299.404 513.784 292.664 512.948C289.652 512.574 286.513 512.622 283.614 513.593C283.3 513.698 283.2 514.13 283.326 514.402C283.478 514.729 283.828 514.794 284.138 514.691C286.515 513.894 289.118 513.831 291.593 514.054C294.76 514.34 297.865 515.145 300.835 516.263C306.599 518.433 312.159 521.812 316.308 526.405C318.009 528.288 319.563 530.458 320.351 532.893C320.435 533.153 320.606 533.363 320.899 533.388C321.142 533.408 321.463 533.248 321.523 532.993C323.237 525.621 321.027 517.677 315.592 512.351C309.988 506.86 301.66 504.692 294.102 506.876C289.925 508.085 286.196 510.49 283.378 513.793C282.869 514.388 283.87 515.082 284.375 514.492Z" fill="#823C9A"/>
<path d="M302.214 538.866C300.744 540.101 300.558 542.291 301.797 543.757C303.036 545.223 305.232 545.41 306.702 544.175C308.171 542.94 308.357 540.75 307.118 539.284C305.879 537.818 303.683 537.631 302.214 538.866Z" fill="white"/>
<path d="M362.469 623.279C362.503 629.904 347.183 633.708 328.385 633.805C309.588 633.902 299.039 628.772 299.013 623.607C298.986 618.442 309.588 614.199 328.385 614.102C347.183 614.005 362.443 618.114 362.469 623.279Z" fill="#EBCDB0"/>
<path d="M362.519 603.464C362.035 605.856 361.269 608.183 360.237 610.396C353.666 614.841 341.738 616.394 328.86 613.804C315.982 611.214 305.595 605.171 301.275 598.536C301.083 593.081 302.334 587.671 304.902 582.849C311.174 571.118 324.617 564.352 338.342 567.113C352.068 569.875 361.813 581.305 363.016 594.538C363.285 597.521 363.118 600.528 362.519 603.464Z" fill="white"/>
<path d="M351.617 608.423L330.099 575.63C329.431 574.612 328.065 574.329 327.047 574.996L311.936 584.912C310.918 585.58 310.634 586.947 311.302 587.965L332.82 620.757C333.488 621.775 334.854 622.059 335.872 621.391L350.984 611.475C352.002 610.807 352.285 609.44 351.617 608.423Z" fill="#F0E48C"/>
<path d="M332.056 621.258L310.536 588.463C310.084 587.771 309.924 586.928 310.092 586.119C310.26 585.309 310.742 584.599 311.433 584.145L326.535 574.235C327.227 573.781 328.071 573.62 328.881 573.788C329.691 573.955 330.402 574.438 330.857 575.129L352.375 607.921C352.828 608.613 352.988 609.456 352.82 610.266C352.652 611.075 352.169 611.785 351.479 612.24L336.377 622.15C335.685 622.603 334.842 622.764 334.032 622.597C333.222 622.43 332.511 621.948 332.056 621.258V621.258ZM329.328 576.132C329.14 575.847 328.846 575.648 328.512 575.578C328.177 575.509 327.828 575.575 327.542 575.762L312.44 585.671C312.155 585.859 311.955 586.153 311.886 586.488C311.816 586.822 311.882 587.171 312.069 587.457L333.587 620.25C333.776 620.535 334.069 620.734 334.404 620.804C334.738 620.873 335.087 620.807 335.373 620.62L350.475 610.711C350.761 610.522 350.96 610.229 351.029 609.894C351.099 609.56 351.033 609.211 350.846 608.925L329.328 576.132Z" fill="#B8A04D"/>
<path d="M330.74 582.144L330.113 581.188L329.252 581.753L329.88 582.709L330.74 582.144Z" fill="#B8A04D"/>
<path d="M318.868 589.935L318.241 588.979L320.009 587.819L320.637 588.775L318.868 589.935ZM321.621 588.129L320.994 587.173L322.764 586.011L323.391 586.967L321.621 588.129ZM324.374 586.322L323.747 585.367L325.517 584.205L326.144 585.161L324.374 586.322ZM327.127 584.516L326.499 583.56L328.27 582.399L328.897 583.355L327.127 584.516Z" fill="#B8A04D"/>
<path d="M317.884 590.582L317.257 589.626L316.396 590.19L317.024 591.146L317.884 590.582Z" fill="#B8A04D"/>
<path d="M324.869 592.232C324.776 592.09 324.697 591.917 324.63 591.711C324.559 591.509 324.515 591.286 324.496 591.044C324.48 590.806 324.502 590.561 324.56 590.31C324.621 590.063 324.731 589.823 324.89 589.589C325.05 589.36 325.274 589.151 325.561 588.963C325.837 588.783 326.108 588.667 326.376 588.616C326.646 588.569 326.905 588.568 327.152 588.614C327.4 588.659 327.628 588.738 327.836 588.851C328.047 588.967 328.232 589.1 328.392 589.249C328.556 589.396 328.686 589.544 328.784 589.693C328.905 589.878 328.988 590.057 329.034 590.229C329.083 590.399 329.11 590.544 329.117 590.665C329.129 590.786 329.135 590.863 329.135 590.894C329.135 590.998 329.126 591.099 329.109 591.199C329.097 591.3 329.044 591.381 328.949 591.443C328.902 591.474 328.846 591.495 328.781 591.507C328.718 591.522 328.647 591.527 328.566 591.523C328.417 591.517 328.297 591.496 328.207 591.462C328.12 591.431 328.056 591.385 328.015 591.323C327.985 591.276 327.966 591.224 327.959 591.166C327.952 591.108 327.949 591.035 327.948 590.947C327.95 590.91 327.948 590.864 327.944 590.81C327.943 590.753 327.929 590.685 327.902 590.604C327.879 590.521 327.831 590.423 327.757 590.31C327.695 590.216 327.609 590.124 327.499 590.036C327.395 589.948 327.273 589.88 327.133 589.832C326.996 589.782 326.846 589.766 326.682 589.785C326.522 589.802 326.356 589.866 326.186 589.977C326.012 590.091 325.885 590.219 325.805 590.359C325.728 590.502 325.684 590.648 325.672 590.796C325.663 590.942 325.676 591.081 325.711 591.213C325.752 591.347 325.803 591.46 325.862 591.55C325.924 591.645 325.983 591.72 326.041 591.776C326.102 591.829 326.163 591.872 326.225 591.904C326.29 591.939 326.351 591.969 326.409 591.994C326.464 592.015 326.518 592.042 326.571 592.074C326.623 592.107 326.665 592.147 326.696 592.195C326.736 592.256 326.751 592.335 326.741 592.43C326.73 592.525 326.695 592.641 326.635 592.779C326.599 592.859 326.56 592.926 326.518 592.98C326.481 593.035 326.441 593.077 326.398 593.105C326.307 593.165 326.213 593.18 326.116 593.15C326.021 593.124 325.928 593.089 325.837 593.045C325.806 593.029 325.737 592.996 325.632 592.946C325.526 592.895 325.405 592.814 325.269 592.701C325.133 592.588 325 592.431 324.869 592.232ZM327.144 595.719C326.97 595.454 326.857 595.173 326.803 594.877C326.755 594.582 326.762 594.289 326.826 593.998C326.89 593.708 327.005 593.435 327.171 593.182C327.343 592.929 327.561 592.716 327.826 592.543C328.102 592.362 328.39 592.241 328.692 592.178C328.996 592.12 329.294 592.116 329.587 592.168C329.88 592.22 330.151 592.325 330.4 592.483C330.652 592.646 330.862 592.856 331.03 593.113C331.204 593.378 331.315 593.658 331.363 593.954C331.417 594.25 331.412 594.544 331.348 594.834C331.284 595.125 331.164 595.398 330.989 595.653C330.817 595.905 330.593 596.122 330.317 596.302C330.049 596.478 329.764 596.594 329.464 596.65C329.167 596.71 328.87 596.713 328.574 596.657C328.285 596.603 328.016 596.497 327.767 596.338C327.52 596.183 327.312 595.977 327.144 595.719ZM328.122 595.04C328.203 595.163 328.303 595.264 328.421 595.342C328.543 595.418 328.672 595.468 328.808 595.493C328.95 595.52 329.093 595.517 329.238 595.484C329.388 595.453 329.531 595.394 329.665 595.306C329.8 595.218 329.909 595.112 329.995 594.989C330.08 594.866 330.139 594.734 330.171 594.593C330.21 594.454 330.217 594.315 330.193 594.175C330.175 594.036 330.127 593.907 330.048 593.787C329.967 593.664 329.866 593.564 329.744 593.489C329.628 593.414 329.497 593.365 329.352 593.341C329.212 593.318 329.069 593.321 328.922 593.35C328.775 593.379 328.634 593.437 328.5 593.525C328.369 593.611 328.261 593.715 328.176 593.838C328.091 593.961 328.029 594.093 327.99 594.232C327.958 594.372 327.951 594.512 327.969 594.65C327.993 594.79 328.044 594.92 328.122 595.04ZM329.68 599.595C329.5 599.319 329.395 599.04 329.366 598.758C329.343 598.477 329.376 598.207 329.465 597.947C329.554 597.686 329.683 597.448 329.854 597.233C330.026 597.022 330.22 596.846 330.434 596.706L331.959 595.708C332.042 595.653 332.127 595.608 332.212 595.573C332.298 595.537 332.387 595.539 332.479 595.577C332.575 595.613 332.678 595.714 332.787 595.881C332.897 596.048 332.948 596.183 332.943 596.285C332.941 596.385 332.906 596.467 332.84 596.531C332.773 596.596 332.696 596.656 332.609 596.713L331.09 597.708C330.97 597.786 330.858 597.888 330.753 598.013C330.649 598.139 330.581 598.282 330.551 598.441C330.527 598.602 330.574 598.774 330.693 598.955C330.783 599.093 330.896 599.19 331.031 599.247C331.171 599.301 331.321 599.314 331.484 599.285C331.653 599.258 331.823 599.188 331.993 599.076L333.54 598.064C333.619 598.012 333.699 597.97 333.777 597.94C333.862 597.91 333.95 597.915 334.042 597.953C334.135 597.991 334.234 598.092 334.341 598.255C334.45 598.422 334.501 598.555 334.493 598.653C334.487 598.756 334.451 598.839 334.384 598.903C334.318 598.968 334.243 599.027 334.159 599.082L332.629 600.083C332.411 600.226 332.17 600.332 331.904 600.402C331.643 600.47 331.373 600.49 331.097 600.464C330.826 600.439 330.568 600.357 330.321 600.217C330.074 600.078 329.861 599.87 329.68 599.595ZM331.473 602.192C331.366 602.028 331.314 601.897 331.316 601.797C331.322 601.695 331.358 601.611 331.425 601.547C331.495 601.48 331.57 601.421 331.65 601.368L334.46 599.529C334.539 599.477 334.622 599.433 334.708 599.398C334.794 599.363 334.883 599.364 334.975 599.402C335.071 599.438 335.174 599.539 335.283 599.706L335.992 600.79C336.082 600.928 336.151 601.095 336.197 601.293C336.247 601.488 336.261 601.695 336.237 601.913C336.216 602.134 336.148 602.347 336.033 602.552C335.918 602.756 335.741 602.937 335.502 603.094C335.266 603.248 335.031 603.337 334.797 603.361C334.564 603.384 334.341 603.361 334.13 603.292C333.925 603.224 333.741 603.129 333.578 603.007C333.419 602.883 333.293 602.75 333.201 602.609L332.819 602.026L332.297 602.368C332.217 602.421 332.134 602.464 332.048 602.5C331.963 602.535 331.872 602.535 331.776 602.499C331.683 602.461 331.583 602.359 331.473 602.192ZM333.816 601.374L334.201 601.962C334.232 602.009 334.278 602.057 334.34 602.104C334.406 602.149 334.483 602.176 334.572 602.185C334.661 602.195 334.757 602.166 334.858 602.099C334.935 602.05 334.99 601.987 335.024 601.913C335.062 601.836 335.077 601.757 335.07 601.673C335.068 601.592 335.042 601.513 334.992 601.436L334.611 600.854L333.816 601.374ZM334.45 606.883C334.277 606.618 334.163 606.337 334.109 606.041C334.061 605.746 334.069 605.453 334.133 605.162C334.197 604.871 334.312 604.599 334.477 604.346C334.649 604.093 334.868 603.88 335.133 603.707C335.408 603.526 335.697 603.405 335.998 603.342C336.302 603.283 336.601 603.28 336.894 603.332C337.187 603.384 337.458 603.489 337.707 603.647C337.958 603.809 338.168 604.019 338.337 604.277C338.51 604.542 338.621 604.822 338.669 605.117C338.723 605.414 338.718 605.708 338.655 605.998C338.591 606.289 338.471 606.562 338.296 606.816C338.124 607.069 337.9 607.285 337.624 607.466C337.355 607.642 337.071 607.758 336.771 607.814C336.473 607.874 336.177 607.877 335.881 607.821C335.592 607.767 335.322 607.661 335.073 607.502C334.827 607.347 334.619 607.141 334.45 606.883ZM335.429 606.204C335.51 606.327 335.609 606.428 335.728 606.506C335.85 606.581 335.979 606.632 336.115 606.657C336.256 606.684 336.4 606.681 336.544 606.648C336.695 606.617 336.838 606.557 336.972 606.469C337.106 606.382 337.216 606.276 337.301 606.153C337.387 606.03 337.445 605.898 337.478 605.757C337.516 605.618 337.524 605.478 337.499 605.339C337.481 605.2 337.433 605.071 337.355 604.951C337.274 604.828 337.173 604.728 337.05 604.653C336.934 604.578 336.804 604.529 336.658 604.505C336.519 604.482 336.376 604.485 336.229 604.514C336.082 604.543 335.941 604.601 335.807 604.689C335.676 604.774 335.568 604.879 335.483 605.002C335.397 605.125 335.335 605.256 335.297 605.396C335.264 605.536 335.257 605.676 335.275 605.814C335.299 605.954 335.351 606.084 335.429 606.204ZM336.27 609.532C336.165 609.372 336.114 609.243 336.116 609.143C336.122 609.041 336.158 608.957 336.225 608.893C336.291 608.828 336.367 608.769 336.45 608.714L339.276 606.865C339.356 606.812 339.437 606.77 339.519 606.737C339.601 606.704 339.688 606.706 339.781 606.744C339.875 606.786 339.976 606.889 340.083 607.052C340.188 607.212 340.239 607.334 340.237 607.418C340.235 607.502 340.219 607.588 340.188 607.676L339.249 610.234L340.812 609.211C340.892 609.159 340.973 609.117 341.055 609.084C341.139 609.054 341.228 609.059 341.32 609.097C341.413 609.135 341.512 609.235 341.619 609.399C341.728 609.566 341.779 609.699 341.771 609.797C341.769 609.897 341.734 609.979 341.668 610.044C341.601 610.108 341.526 610.168 341.442 610.222L338.633 612.061C338.553 612.113 338.47 612.157 338.384 612.193C338.299 612.228 338.208 612.228 338.112 612.192C338.019 612.154 337.919 612.051 337.809 611.884C337.729 611.761 337.678 611.66 337.657 611.58C337.634 611.506 337.638 611.429 337.668 611.347L338.607 608.718L337.093 609.709C337.013 609.761 336.93 609.805 336.845 609.84C336.759 609.876 336.668 609.875 336.572 609.84C336.48 609.802 336.379 609.699 336.27 609.532Z" fill="#A48F46"/>
<path d="M361.639 603.389C361.369 604.691 361.013 605.974 360.573 607.229C360.38 607.783 360.172 608.332 359.948 608.874C359.829 609.159 359.706 609.442 359.58 609.724C359.37 610.195 359.512 609.834 359.545 609.808C359.452 609.875 359.354 609.936 359.254 609.993C357.636 610.996 355.866 611.77 354.054 612.353C349.565 613.799 344.765 614.263 340.068 614.17C334.667 614.065 329.273 613.224 324.083 611.743C319.604 610.463 315.225 608.704 311.226 606.301C307.741 604.209 304.324 601.584 302.069 598.149L302.154 598.61C301.911 591.168 304.373 583.836 309.164 578.111C313.208 573.28 318.834 569.775 324.957 568.262C331.334 566.699 338.045 567.241 344.083 569.806C349.716 572.218 354.473 576.293 357.712 581.484C361.194 587.093 362.766 593.731 362.106 600.305C362.002 601.339 361.842 602.366 361.639 603.385C361.545 603.854 362.004 604.296 362.442 604.338C362.96 604.387 363.308 604 363.398 603.536C365.698 592.002 361.281 579.96 352.124 572.59C343.218 565.426 330.746 563.68 320.162 567.992C314.996 570.097 310.427 573.589 307.008 577.988C303.049 583.082 300.73 589.402 300.413 595.837C300.369 596.71 300.359 597.587 300.395 598.46C300.42 599.069 300.925 599.601 301.279 600.075C301.949 600.966 302.683 601.806 303.477 602.589C305.328 604.429 307.423 606.015 309.638 607.397C314.916 610.684 320.852 612.9 326.903 614.278C333.677 615.821 340.735 616.417 347.65 615.535C350.554 615.165 353.428 614.513 356.163 613.464C357.323 613.026 358.445 612.495 359.52 611.879C360.064 611.564 360.755 611.252 361.068 610.696C361.465 609.988 361.741 609.173 362.023 608.414C362.605 606.827 363.065 605.198 363.399 603.541C363.498 603.071 363.031 602.629 362.596 602.587C362.077 602.537 361.735 602.925 361.639 603.389Z" fill="#B8A04D"/>
<path d="M354.36 612.345C362.78 600.151 359.703 583.467 347.486 575.079C335.27 566.692 318.54 569.778 310.12 581.972C301.7 594.166 304.778 610.85 316.994 619.238C329.211 627.625 345.94 624.539 354.36 612.345Z" fill="#CCEFF4" fill-opacity="0.4"/>
<path d="M360.237 610.396C354.337 623.033 340.352 630.491 326.055 627.615C311.758 624.74 301.78 612.461 301.275 598.535C305.595 605.171 315.982 611.213 328.86 613.804C341.738 616.395 353.666 614.841 360.237 610.396Z" fill="#E5D036"/>
<path d="M359.406 610.099C354.898 619.684 345.373 626.284 334.819 627.24C324.2 628.201 313.684 623.241 307.568 614.577C304.271 609.882 302.392 604.342 302.156 598.612L300.479 598.922C304.711 605.366 312.119 609.405 319.192 612.003C328.389 615.382 338.668 616.843 348.409 615.431C352.763 614.801 357.132 613.531 360.813 611.064C361.212 610.797 361.186 610.154 360.906 609.822C360.569 609.423 360.054 609.467 359.66 609.73C356.643 611.754 353.029 612.838 349.483 613.474C344.948 614.288 340.299 614.351 335.719 613.926C326.83 613.1 317.765 610.504 310.207 605.673C307.107 603.692 304.105 601.254 302.071 598.152C301.854 597.821 301.534 597.593 301.115 597.67C300.768 597.735 300.381 598.081 300.394 598.461C300.822 609.422 306.952 619.68 316.589 625.045C326.525 630.574 338.996 630.416 348.724 624.469C354.1 621.18 358.392 616.391 361.067 610.694C361.55 609.668 359.885 609.08 359.406 610.099Z" fill="#B8A04D"/>
<path d="M325.138 582.857C326.719 580.567 326.141 577.435 323.848 575.86C321.554 574.285 318.413 574.865 316.832 577.154C315.251 579.444 315.829 582.576 318.123 584.151C320.416 585.726 323.557 585.146 325.138 582.857Z" fill="white"/>
<path d="M59.665 187.15C51.8453 188.665 57.1142 192.662 62.3461 195.27C63.754 195.972 65.2625 196.457 66.8311 196.578C68.4936 196.707 70.5677 196.748 72.6352 196.761C74.5322 196.772 76.422 196.544 78.31 196.359C84.2345 195.78 95.0195 195.847 102.989 196.267C112.489 196.767 114.489 188.266 106.489 185.767C101.44 184.19 93.9828 184.583 88.9325 185.228C86.6363 185.521 84.3314 185.588 82.0351 185.296C78.2514 184.816 72.0861 184.36 65.225 186.005C63.3904 186.445 61.5171 186.791 59.665 187.15Z" fill="white" stroke="white" stroke-width="0.3"/>
<path d="M326.797 187.15C334.617 188.665 329.348 192.662 324.116 195.27C322.708 195.972 321.2 196.457 319.631 196.578C317.969 196.707 315.895 196.748 313.827 196.761C311.93 196.772 310.04 196.544 308.152 196.359C302.228 195.78 291.443 195.847 283.473 196.267C273.973 196.767 271.973 188.266 279.973 185.767C285.023 184.19 292.48 184.583 297.53 185.228C299.826 185.521 302.131 185.588 304.427 185.296C308.211 184.816 314.376 184.36 321.237 186.005C323.072 186.445 324.945 186.791 326.797 187.15Z" fill="white" stroke="white" stroke-width="0.3"/>
<path d="M33.232 165.603C26.1651 168.825 15.4908 168.8 7.21517 167.926C2.1431 167.39 -2.78037 165.035 -5.24714 160.57C-7.77779 155.991 -8.36208 150.875 -1.51087 148.767C6.14142 146.412 12.2778 146.801 15.982 147.702C18.0476 148.204 20.0342 149.061 22.1592 149.121C29.4459 149.329 42.5161 147.208 54.4891 152.767C72.505 162.135 55.3589 163.82 41.4247 163.452C38.5766 163.377 35.8244 164.421 33.232 165.603Z" fill="white" stroke="white" stroke-width="0.3"/>
<path d="M341.018 165.603C348.085 168.825 358.759 168.8 367.035 167.926C372.107 167.39 377.03 165.035 379.497 160.57C382.028 155.991 382.612 150.875 375.761 148.767C368.109 146.412 361.972 146.801 358.268 147.702C356.202 148.204 354.216 149.061 352.091 149.121C344.804 149.329 331.734 147.208 319.761 152.767C301.745 162.135 318.891 163.82 332.825 163.452C335.673 163.377 338.426 164.421 341.018 165.603Z" fill="white" stroke="white" stroke-width="0.3"/>
<path d="M86.0446 620.585C86.0446 629.21 73.0291 636.203 58.0614 636.203C39.372 636.203 24.2213 629.21 24.2213 620.585C24.2213 611.959 39.372 604.966 58.0614 604.966C76.7508 604.966 86.0446 611.959 86.0446 620.585Z" fill="#EBCDB0"/>
<path d="M27.1449 606.001C26.4462 603.861 26.0034 601.645 25.8259 599.4C29.0806 592.846 37.9489 586.178 49.4631 582.404C60.9773 578.631 72.061 578.761 78.5442 582.124C81.1774 586.415 82.632 591.326 82.7617 596.364C83.0587 608.63 75.3434 620.17 63.0711 624.192C50.7988 628.213 37.7817 623.467 30.8023 613.392C29.2301 611.12 27.9981 608.63 27.1449 606.001V606.001Z" fill="white"/>
<path d="M34.4469 589.285L56.6245 617.625C57.3128 618.505 58.5838 618.66 59.4634 617.971L72.5234 607.751C73.403 607.063 73.558 605.792 72.8697 604.912L50.6921 576.572C50.0038 575.693 48.7327 575.537 47.8532 576.226L34.7932 586.446C33.9136 587.134 33.7585 588.405 34.4469 589.285Z" fill="#A0E7F2"/>
<path d="M51.3531 576.055L73.5321 604.397C73.9987 604.995 74.2091 605.754 74.1172 606.507C74.0254 607.26 73.6387 607.946 73.042 608.414L59.9903 618.628C59.3923 619.095 58.6331 619.307 57.8793 619.216C57.1256 619.124 56.4389 618.737 55.9701 618.14L33.7924 589.8C33.3258 589.202 33.1154 588.443 33.2072 587.69C33.2991 586.937 33.6858 586.251 34.2825 585.783L47.3342 575.569C47.9319 575.101 48.6907 574.89 49.4441 574.981C50.1976 575.072 50.8841 575.458 51.3531 576.055V576.055ZM57.2918 617.106C57.4855 617.352 57.7691 617.512 58.0804 617.55C58.3917 617.588 58.7054 617.501 58.9527 617.308L72.0044 607.095C72.2511 606.901 72.4109 606.618 72.4489 606.306C72.4869 605.995 72.3999 605.681 72.2071 605.434L50.0294 577.093C49.8357 576.847 49.5521 576.687 49.2408 576.649C48.9295 576.611 48.6158 576.698 48.3685 576.891L35.3168 587.104C35.0701 587.298 34.9103 587.582 34.8723 587.893C34.8343 588.204 34.9213 588.518 35.1141 588.765L57.2918 617.106Z" fill="#1AA7B0"/>
<path d="M55.5415 611.718L56.1879 612.544L56.9314 611.962L56.285 611.136L55.5415 611.718Z" fill="#1AA7B0"/>
<path d="M65.8011 603.688L66.4476 604.514L64.9194 605.71L64.2729 604.884L65.8011 603.688ZM63.4221 605.55L64.0685 606.376L62.5387 607.573L61.8922 606.747L63.4221 605.55ZM61.0431 607.412L61.6895 608.238L60.1596 609.435L59.5132 608.609L61.0431 607.412ZM58.664 609.273L59.3104 610.099L57.7806 611.297L57.1342 610.471L58.664 609.273Z" fill="#1AA7B0"/>
<path d="M66.6517 603.022L67.2981 603.848L68.0415 603.267L67.3951 602.441L66.6517 603.022Z" fill="#1AA7B0"/>
<path d="M44.8716 584.854C46.1593 584.556 48.0521 586.004 48.7518 586.902L58.0514 598.837L61.3091 599.736C61.4125 599.765 61.5039 599.826 61.5699 599.911L62.7426 601.416C62.7964 601.485 62.8309 601.567 62.8429 601.654C62.8549 601.741 62.8438 601.829 62.8107 601.911C62.7777 601.992 62.7239 602.063 62.6547 602.117C62.5855 602.171 62.5034 602.205 62.4165 602.218L57.1582 602.973C57.0191 602.992 56.8781 602.992 56.7389 602.974C56.2606 602.915 55.771 602.661 55.4909 602.301L53.5364 599.792C53.4587 599.687 53.4251 599.556 53.4428 599.427C53.4604 599.298 53.5279 599.18 53.6308 599.1C53.7338 599.02 53.864 598.983 53.9936 598.998C54.1233 599.012 54.2422 599.077 54.3249 599.178L56.2794 601.686C56.4247 601.873 56.7836 602.018 57.0166 601.984L61.4281 601.358L60.8842 600.659L57.6266 599.759C57.5232 599.73 57.4317 599.669 57.3657 599.585L47.9645 587.519C47.3514 586.733 45.8235 585.668 45.0955 585.831C44.9129 585.872 44.8576 585.965 44.8276 586.048C44.7122 586.369 44.8834 587.059 45.5192 587.876L48.8464 592.146C48.9279 592.251 48.9646 592.383 48.9483 592.515C48.9321 592.646 48.8643 592.766 48.7598 592.847C48.6553 592.929 48.5228 592.965 48.3913 592.949C48.2598 592.933 48.1402 592.865 48.0587 592.761L44.7307 588.49C43.9313 587.464 43.6242 586.452 43.8865 585.713C43.9616 585.497 44.0919 585.303 44.2647 585.153C44.4375 585.002 44.6467 584.899 44.8716 584.854V584.854Z" fill="#138F97"/>
<path d="M60.4667 595.849L57.0385 595.971C57.0119 595.972 56.9852 595.971 56.9588 595.968C56.8346 595.951 56.7211 595.889 56.6405 595.793C56.56 595.697 56.5184 595.575 56.524 595.45C56.5296 595.325 56.5819 595.206 56.6706 595.118C56.7593 595.029 56.8779 594.977 57.003 594.972L59.4535 594.884L59.1642 594.513L54.5568 593.298C54.4286 593.264 54.3191 593.181 54.2523 593.066C54.1856 592.952 54.1671 592.815 54.201 592.687C54.2348 592.559 54.3182 592.449 54.4328 592.382C54.5473 592.316 54.6837 592.297 54.8119 592.331L59.5802 593.59C59.6858 593.618 59.7794 593.68 59.8468 593.766L60.8403 595.041C60.8969 595.114 60.9323 595.201 60.9427 595.292C60.953 595.384 60.938 595.476 60.8991 595.56C60.8602 595.643 60.7991 595.714 60.7224 595.765C60.6457 595.816 60.5565 595.845 60.4645 595.848L60.4667 595.849Z" fill="#138F97"/>
<path d="M50.1261 592.629C50.1918 592.634 50.2557 592.653 50.3139 592.684C50.3721 592.715 50.4234 592.758 50.4648 592.809C50.5062 592.86 50.5367 592.92 50.5547 592.983C50.5726 593.047 50.5776 593.113 50.5692 593.178L49.5751 602.454L49.9048 602.878L52.7036 596.872C52.7607 596.754 52.8622 596.663 52.9861 596.618C53.11 596.574 53.2463 596.581 53.3654 596.636C53.4846 596.692 53.5771 596.792 53.6228 596.916C53.6685 597.039 53.6637 597.175 53.6096 597.295L50.4652 604.04C50.4292 604.118 50.3738 604.185 50.3044 604.235C50.2349 604.285 50.1538 604.316 50.0687 604.325C50.0296 604.33 49.99 604.33 49.9509 604.325C49.8856 604.317 49.8227 604.295 49.7657 604.262C49.7087 604.229 49.6589 604.185 49.6191 604.133L48.6626 602.906C48.5816 602.804 48.5434 602.675 48.5563 602.546L49.5722 593.069C49.5796 593.004 49.5998 592.941 49.6317 592.883C49.6635 592.826 49.7064 592.775 49.7579 592.734C49.8093 592.693 49.8683 592.663 49.9315 592.645C49.9947 592.627 50.0608 592.621 50.1261 592.629V592.629Z" fill="#138F97"/>
<path d="M27.8845 605.662C27.5097 604.494 27.2126 603.302 26.9951 602.095C26.898 601.562 26.8162 601.027 26.7495 600.49C26.715 600.207 26.6858 599.924 26.6582 599.64C26.6125 599.167 26.6629 599.521 26.6481 599.558C26.6929 599.461 26.743 599.367 26.7982 599.277C27.6408 597.736 28.7096 596.311 29.8987 595.019C32.8449 591.818 36.4871 589.265 40.2994 587.204C44.6827 584.834 49.3947 583.058 54.233 581.888C58.4105 580.88 62.7247 580.302 67.0268 580.413C70.7751 580.508 74.711 581.062 78.082 582.795L77.8046 582.464C81.3815 588.326 82.7374 595.331 81.4936 602.104C80.4431 607.819 77.5197 613.189 73.2925 617.186C68.8843 621.339 63.2513 623.954 57.2389 624.64C51.6211 625.264 45.9513 624.154 40.9921 621.46C35.6481 618.54 31.3694 613.926 28.9115 608.349C28.5251 607.472 28.1868 606.575 27.887 605.665C27.7485 605.245 27.1793 605.099 26.8093 605.265C26.3709 605.46 26.2673 605.93 26.406 606.343C29.8018 616.646 38.8195 624.305 49.5195 626.059C59.9234 627.762 70.7283 623.495 77.2646 615.224C80.4544 611.187 82.5352 606.307 83.28 601.223C84.1428 595.334 83.1318 589.207 80.462 583.897C80.1003 583.177 79.71 582.469 79.2842 581.784C78.9876 581.307 78.3401 581.11 77.8405 580.89C76.8983 580.479 75.9269 580.138 74.9342 579.871C72.6121 579.235 70.2099 578.914 67.8035 578.811C62.0726 578.571 56.3014 579.491 50.8175 581.134C44.6793 582.974 38.7435 585.704 33.5932 589.555C31.4304 591.171 29.4196 593.001 27.7009 595.085C26.9696 595.965 26.3095 596.9 25.7268 597.884C25.4333 598.384 25.0204 598.948 25.0224 599.536C25.0248 600.285 25.1745 601.065 25.293 601.802C25.5471 603.341 25.9182 604.857 26.4031 606.339C26.537 606.761 27.1124 606.904 27.4807 606.74C27.9207 606.544 28.0185 606.078 27.8845 605.662Z" fill="#0E8C94"/>
<path d="M29.6573 595.166C28.4404 608.78 38.4933 620.774 52.1112 621.954C65.729 623.135 77.755 613.055 78.9719 599.44C80.1888 585.825 70.1358 573.832 56.518 572.651C42.9001 571.471 30.8742 581.551 29.6573 595.166Z" fill="#CCEFF4" fill-opacity="0.4"/>
<path d="M25.8257 599.4C24.8184 586.575 32.6548 574.232 45.4375 570.043C58.2202 565.854 71.8102 571.175 78.544 582.124C72.0608 578.761 60.9775 578.631 49.4629 582.404C37.9483 586.177 29.0804 592.846 25.8257 599.4Z" fill="#29B8CF"/>
<path d="M26.6274 599.262C25.8902 589.52 30.5362 579.893 38.5735 574.329C46.6603 568.732 57.355 567.934 66.2024 572.109C70.9826 574.379 75.0081 577.972 77.8022 582.463L79.0075 581.453C72.6815 578.204 64.8994 578.328 58.0414 579.457C49.1238 580.925 40.2086 584.424 33.0311 589.984C29.8231 592.469 26.8928 595.473 25.0598 599.126C24.8611 599.523 25.1737 600.027 25.5495 600.165C26.0013 600.333 26.3949 600.064 26.5911 599.673C28.0937 596.678 30.5014 594.165 33.0589 592.043C36.3296 589.329 40.0325 587.165 43.9019 585.425C51.4119 582.048 59.8682 580.012 68.13 580.455C71.519 580.637 75.0365 581.229 78.0796 582.794C78.404 582.961 78.7642 582.999 79.0655 582.747C79.3152 582.537 79.4684 582.084 79.2849 581.784C73.9599 573.18 64.3778 567.733 54.2042 567.806C43.7152 567.883 33.7769 573.678 28.6713 582.873C25.8504 587.956 24.5823 593.751 25.0242 599.539C25.1025 600.583 26.7061 600.298 26.6274 599.262Z" fill="#0E8C94"/>
<path d="M66.5158 605.554C66.2873 608.11 68.1748 610.362 70.7316 610.584C73.2883 610.805 75.5462 608.913 75.7747 606.357C76.0032 603.8 74.1157 601.549 71.559 601.327C69.0022 601.105 66.7443 602.998 66.5158 605.554Z" fill="white"/>
</g>
<defs>
<linearGradient id="paint0_linear_1216_818" x1="187.5" y1="0" x2="187.5" y2="666.681" gradientUnits="userSpaceOnUse">
<stop stop-color="#A9D2C8"/>
<stop offset="0.0001" stop-color="#DDEEF2"/>
<stop offset="0.412285" stop-color="#ADE1E9"/>
<stop offset="1" stop-color="#77DEEC"/>
</linearGradient>
<clipPath id="clip0_1216_818">
<rect width="375" height="812" fill="white" transform="matrix(-1 0 0 1 375 0)"/>
</clipPath>
</defs>
</svg>
