<svg width="207" height="96" viewBox="0 0 207 96" fill="none" xmlns="http://www.w3.org/2000/svg">
<g clip-path="url(#clip0_402_591)">
<path d="M2.99978 3H205V14L199 16L199.671 24.5L205 25V33L199 35.5L199.796 43L205.5 44.5L205.421 52L198.5 54.5L199.713 61.5L205.421 62L205.294 71L198.5 74L201 80.9228L205 82V92L2.12788 91L2.99978 82L6.99951 79.5L9.49978 75L2.99978 70.5L2.49978 63L7.99978 61L9.49978 54.5L2.12744 52L2.49978 45L5.99978 42.5L9.49978 37L2.49978 33V27L8.99978 19.5L3.49978 12.5L2.99978 3Z" fill="#FFF9F8"/>
<path d="M27.8105 69.3212C27.8105 70.2513 27.0565 71.0053 26.1265 71.0053C25.1964 71.0053 24.4424 70.2513 24.4424 69.3212L24.4424 64.4459C24.4424 63.5158 25.1964 62.7619 26.1265 62.7619C27.0565 62.7619 27.8105 63.5158 27.8105 64.4459V69.3212ZM27.8105 56.4882C27.8105 57.4183 27.0565 58.1723 26.1265 58.1723C25.1964 58.1723 24.4424 57.4183 24.4424 56.4882V51.604C24.4424 50.6739 25.1964 49.9199 26.1265 49.9199C27.0565 49.9199 27.8105 50.6739 27.8105 51.604V56.4882ZM27.8105 43.6552C27.8105 44.5853 27.0565 45.3393 26.1265 45.3393C25.1964 45.3393 24.4424 44.5853 24.4424 43.6552V38.771C24.4424 37.8409 25.1964 37.0869 26.1265 37.0869C27.0565 37.0869 27.8105 37.8409 27.8105 38.771V43.6552ZM27.8105 30.8221C27.8105 31.7522 27.0565 32.5062 26.1265 32.5062C25.1964 32.5062 24.4424 31.7522 24.4424 30.8221V25.938C24.4424 25.0079 25.1964 24.2539 26.1265 24.2539C27.0565 24.2539 27.8105 25.0079 27.8105 25.938V30.8221Z" fill="#F794A9"/>
<path d="M207.608 81.1955C207.608 80.935 207.557 80.677 207.457 80.4363C207.357 80.1956 207.211 79.9769 207.027 79.7927C206.843 79.6085 206.624 79.4624 206.383 79.3627C206.143 79.2631 205.885 79.2118 205.624 79.2118L203.211 79.2118C202.414 79.1928 201.655 78.8676 201.091 78.3038C200.527 77.74 200.202 76.9808 200.183 76.1837C200.182 75.7859 200.26 75.392 200.413 75.0244C200.565 74.6569 200.788 74.3229 201.069 74.0416C201.35 73.7604 201.684 73.5374 202.052 73.3853C202.419 73.2332 202.813 73.1552 203.211 73.1555L205.622 73.1534C205.883 73.1537 206.141 73.1025 206.382 73.0028C206.623 72.9031 206.842 72.7569 207.027 72.5724C207.211 72.3879 207.358 72.1689 207.457 71.9279C207.557 71.6868 207.608 71.4284 207.608 71.1676L207.608 62.2262C207.593 61.7043 207.379 61.208 207.009 60.8388C206.64 60.4696 206.144 60.2555 205.622 60.2404L203.211 60.2383C202.413 60.2207 201.653 59.896 201.089 59.3319C200.525 58.7678 200.2 58.0077 200.183 57.2101C200.183 56.407 200.502 55.6369 201.07 55.069C201.638 54.5012 202.408 54.1821 203.211 54.1819L205.622 54.184C206.148 54.1831 206.653 53.9736 207.025 53.6014C207.397 53.2292 207.607 52.7246 207.608 52.1982L207.608 43.2527C207.593 42.7308 207.379 42.2344 207.009 41.8653C206.64 41.4961 206.144 41.282 205.622 41.2669L203.209 41.2669C202.412 41.2488 201.653 40.9242 201.089 40.3605C200.525 39.7969 200.201 39.0377 200.183 38.2408C200.184 37.4379 200.503 36.6683 201.071 36.1006C201.638 35.5329 202.408 35.2135 203.211 35.2126L205.624 35.2126C205.885 35.2129 206.143 35.1618 206.384 35.0621C206.626 34.9624 206.845 34.8162 207.029 34.6317C207.213 34.4472 207.36 34.2282 207.459 33.9871C207.559 33.7461 207.61 33.4877 207.61 33.2268L207.618 24.2897C207.617 23.7633 207.408 23.2588 207.036 22.8866C206.664 22.5143 206.159 22.3048 205.633 22.3039L203.219 22.3039C202.422 22.2856 201.662 21.9606 201.098 21.3967C200.534 20.8327 200.209 20.0731 200.191 19.2757C200.191 18.4726 200.51 17.7025 201.078 17.1346C201.646 16.5667 202.416 16.2477 203.219 16.2475L205.633 16.2475C205.893 16.2475 206.151 16.1963 206.392 16.0966C206.632 15.9969 206.851 15.8508 207.035 15.6666C207.22 15.4824 207.366 15.2637 207.465 15.023C207.565 14.7823 207.616 14.5243 207.616 14.2638L207.612 3.36222C207.611 2.83585 207.402 2.33127 207.029 1.95906C206.657 1.58685 206.153 1.37735 205.626 1.37641L2.37371 1.3764C1.84734 1.37734 1.34283 1.58686 0.970618 1.95907C0.59841 2.33128 0.388849 2.83584 0.387911 3.36221L0.364748 14.2659C0.364712 14.5264 0.415984 14.7844 0.515657 15.0251C0.61533 15.2658 0.76149 15.4845 0.9457 15.6687C1.12991 15.8529 1.34857 15.999 1.58926 16.0987C1.82996 16.1984 2.08794 16.2496 2.34845 16.2496L4.7575 16.2496C5.55512 16.2689 6.31476 16.5943 6.87893 17.1585C7.4431 17.7227 7.76854 18.4823 7.7878 19.2799C7.78608 20.0825 7.46651 20.8517 6.89898 21.4192C6.33146 21.9868 5.56221 22.3064 4.75961 22.3081L2.34845 22.306C1.82208 22.3069 1.31751 22.5164 0.945303 22.8886C0.573095 23.2608 0.36356 23.7654 0.362622 24.2918L0.362618 33.2374C0.377752 33.7592 0.591839 34.2556 0.96102 34.6247C1.3302 34.9939 1.82655 35.208 2.34843 35.2232L4.75964 35.221C5.55678 35.24 6.31595 35.5652 6.87977 36.129C7.44359 36.6929 7.76879 37.4521 7.78782 38.2492C7.78814 38.647 7.71001 39.0409 7.55794 39.4084C7.40587 39.776 7.18282 40.1099 6.90157 40.3912C6.62031 40.6724 6.28637 40.8955 5.91883 41.0476C5.55129 41.1996 5.15738 41.2777 4.75962 41.2774L2.35054 41.2774C1.82417 41.2784 1.31963 41.4879 0.947417 41.8601C0.575208 42.2323 0.365696 42.7368 0.364757 43.2632L0.362644 52.2067C0.377776 52.7285 0.591847 53.2249 0.961027 53.5941C1.33021 53.9632 1.82655 54.1773 2.34843 54.1924L4.75751 54.1925C5.55513 54.2117 6.31476 54.5371 6.87893 55.1013C7.4431 55.6655 7.76852 56.4251 7.78777 57.2227C7.78605 58.0253 7.46648 58.7946 6.89896 59.3621C6.33144 59.9296 5.56219 60.2492 4.75959 60.2509L2.35055 60.2509C2.08958 60.2502 1.83103 60.3011 1.58978 60.4006C1.34853 60.5002 1.12933 60.6464 0.944794 60.831C0.760259 61.0155 0.614017 61.2347 0.51447 61.4759C0.414922 61.7172 0.364019 61.9757 0.364729 62.2367L0.362638 71.1801C0.377771 71.702 0.591869 72.1984 0.961048 72.5676C1.33023 72.9368 1.82657 73.1508 2.34845 73.166L4.7596 73.1639C5.55674 73.1829 6.31598 73.5081 6.8798 74.0719C7.44361 74.6357 7.76874 75.3949 7.78778 76.192C7.78583 76.9951 7.46598 77.7647 6.89811 78.3326C6.33024 78.9005 5.56059 79.2204 4.7575 79.2223L2.34845 79.2223C1.82208 79.2233 1.31751 79.4328 0.945303 79.805C0.573095 80.1772 0.363604 80.6817 0.362665 81.2081L0.362641 91.0971C0.363585 91.6235 0.573106 92.128 0.945311 92.5002C1.31751 92.8724 1.82207 93.082 2.34845 93.0829L205.601 93.0829C206.127 93.082 206.632 92.8724 207.004 92.5002C207.376 92.128 207.586 91.6235 207.587 91.0971L207.608 81.1955ZM124.021 89.105H123.496L123.434 89.105L123.153 89.105C123.153 89.105 123.325 89.105 123.061 89.105C122.796 89.105 122.685 89.105 122.685 89.105L122.324 89.105L121.545 89.105L120.05 89.105L4.3511 89.105L4.33846 83.196L4.75963 83.196C5.67872 83.1959 6.58875 83.0147 7.43783 82.6629C8.2869 82.311 9.05837 81.7954 9.70816 81.1454C10.358 80.4954 10.8734 79.7238 11.225 78.8746C11.5765 78.0255 11.7574 77.1153 11.7573 76.1963C11.7572 75.2772 11.576 74.3671 11.2241 73.518C10.8723 72.669 10.3567 71.8975 9.70667 71.2477C9.05668 70.5979 8.28506 70.0825 7.43588 69.7309C6.5867 69.3793 5.67661 69.1985 4.75752 69.1986L4.33634 69.1986L4.33636 64.2288L4.75751 64.2288C5.6766 64.229 6.58672 64.0481 7.4359 63.6965C8.28508 63.3449 9.0567 62.8295 9.70669 62.1797C10.3567 61.5299 10.8723 60.7584 11.2241 59.9094C11.576 59.0603 11.7572 58.1502 11.7573 57.2311C11.7574 56.312 11.5765 55.402 11.2249 54.5528C10.8734 53.7036 10.358 52.932 9.70816 52.282C9.05836 51.632 8.28689 51.1164 7.43782 50.7645C6.58874 50.4127 5.67871 50.2315 4.75962 50.2314L4.33847 50.2314L4.33843 45.2574L4.7596 45.2574C5.67869 45.2573 6.58874 45.0761 7.43782 44.7242C8.28689 44.3724 9.05836 43.8568 9.70815 43.2068C10.3579 42.5568 10.8733 41.7852 11.2249 40.936C11.5765 40.0868 11.7574 39.1767 11.7573 38.2576C11.7571 37.3386 11.576 36.4285 11.2242 35.5794C10.8723 34.7303 10.3566 33.9589 9.70666 33.3091C9.05667 32.6593 8.28505 32.1439 7.43587 31.7923C6.58669 31.4407 5.67657 31.2598 4.75749 31.26L4.33633 31.26L4.35319 26.2565L4.77437 26.2565C5.69346 26.2566 6.60357 26.0758 7.45275 25.7242C8.30193 25.3726 9.07351 24.8572 9.72349 24.2074C10.3735 23.5576 10.8891 22.7861 11.241 21.937C11.5928 21.088 11.774 20.1779 11.7741 19.2588C11.7743 18.3398 11.5934 17.4296 11.2418 16.5805C10.8902 15.7313 10.3748 14.9597 9.72501 14.3097C9.07521 13.6597 8.30374 13.1441 7.45467 12.7922C6.6056 12.4404 5.69556 12.2592 4.77647 12.2591L4.3553 12.2591L4.35741 5.33956L120.054 5.34167L120.054 5.34378C120.054 5.34378 120.414 5.34167 120.634 5.34167C121.178 5.34167 121.511 5.34139 122.037 5.34167C122.564 5.34195 122.734 5.34167 123.087 5.34167C123.497 5.34166 124.023 5.34378 124.023 5.34378L203.643 5.34378L203.655 12.2528L203.234 12.2528C202.315 12.2529 201.405 12.4341 200.556 12.7859C199.707 13.1377 198.935 13.6534 198.285 14.3034C197.636 14.9534 197.12 15.725 196.769 16.5742C196.417 17.4233 196.236 18.3334 196.236 19.2525C196.237 20.1716 196.418 21.0817 196.77 21.9307C197.121 22.7798 197.637 23.5513 198.287 24.2011C198.937 24.8509 199.709 25.3663 200.558 25.7179C201.407 26.0695 202.317 26.2503 203.236 26.2502L203.657 26.2502L203.659 31.2221L203.238 31.2221C201.382 31.2218 199.602 31.9589 198.289 33.2712C196.976 34.5835 196.239 36.3636 196.238 38.2198C196.238 40.0759 196.975 41.8562 198.288 43.1689C199.6 44.4816 201.38 45.2193 203.236 45.2195L203.657 45.2195L203.657 50.1935L203.236 50.1935C201.38 50.1935 199.599 50.931 198.287 52.2437C196.974 53.5564 196.236 55.3368 196.236 57.1932C196.236 59.0497 196.974 60.8301 198.287 62.1428C199.599 63.4556 201.38 64.193 203.236 64.193L203.657 64.193L203.657 69.167L203.236 69.167C201.38 69.1667 199.6 69.9038 198.287 71.2161C196.974 72.5285 196.237 74.3085 196.236 76.1647C196.236 78.0209 196.973 79.8011 198.285 81.1138C199.598 82.4265 201.378 83.1642 203.234 83.1645L203.655 83.1644L203.643 89.0734L124.021 89.105Z" fill="#F794A9"/>
</g>
<defs>
<clipPath id="clip0_402_591">
<rect width="207" height="96" fill="white"/>
</clipPath>
</defs>
</svg>
