<svg width="131" height="134" viewBox="0 0 131 134" fill="none" xmlns="http://www.w3.org/2000/svg">
<path d="M92.8664 33.569C91.6416 33.5325 90.4634 33.0946 89.5155 32.3234C86.1236 29.7097 87.0796 24.8398 87.3879 23.2472C87.9738 20.1843 90.7901 17.8974 93.2261 16.7335C93.8222 16.4374 94.4801 16.1515 95.1482 15.8656C97.5945 14.8447 100.37 13.5889 101.315 11.6185C101.315 11.5266 101.418 11.4347 101.48 11.3428C102.582 9.72041 103.512 7.98921 104.255 6.1768C104.697 5.15585 105.159 4.19615 105.684 3.1752C106.054 2.46053 107.205 0.255309 109.374 0.0204898C111.861 -0.234748 113.382 2.21554 113.958 3.08335C115.708 6.01061 117.922 8.63771 120.516 10.863C121.518 11.6268 122.58 12.3096 123.692 12.9049C124.514 13.3745 125.357 13.8646 126.169 14.4261L126.971 14.9468C128.78 16.1005 131.082 17.5298 130.948 19.7146C130.905 20.3369 130.69 20.9353 130.327 21.4448C129.965 21.9542 129.469 22.3552 128.893 22.604C127.604 23.1962 126.201 23.5028 124.781 23.5024C123.807 23.4913 122.84 23.668 121.934 24.023C120.695 24.7075 119.662 25.7086 118.943 26.9226C118.624 27.4656 118.382 28.0496 118.224 28.6582C117.782 30.0875 117.113 32.2519 113.639 32.4663C110.71 32.6603 108.613 30.8736 107.297 29.5158C105.519 27.6883 103.926 26.4529 101.912 26.2896C100.102 26.1569 97.574 26.994 97.0395 27.8925C96.9558 28.2269 96.9075 28.5691 96.8956 28.9134C96.9128 29.6228 96.7758 30.3275 96.4937 30.9795C96.2117 31.6314 95.7912 32.2152 95.2612 32.691C94.5903 33.252 93.7433 33.5625 92.8664 33.569V33.569ZM104.944 13.5991C103.248 16.7947 99.6708 18.3466 96.7825 19.6024C96.1555 19.878 95.5491 20.1434 94.9838 20.4089C93.4523 21.144 91.6843 22.5835 91.4068 24.023C90.8826 26.6775 91.0882 28.3825 92.0133 29.1278C92.2187 29.2881 92.4521 29.4093 92.7019 29.4852C92.7019 29.3014 92.7533 28.9339 92.7739 28.6684C92.7957 27.7111 93.0382 26.7716 93.483 25.922C95.1584 23.1246 99.6501 22.1343 102.199 22.3283C105.725 22.5937 108.233 24.7377 110.237 26.7898C111.44 28.0354 112.385 28.5561 113.321 28.505C113.542 28.5067 113.761 28.4687 113.968 28.3927C113.968 28.3213 114.133 27.8823 114.235 27.5658C114.498 26.6288 114.881 25.7297 115.376 24.8909C116.479 23.0617 118.054 21.5597 119.94 20.5416C121.347 19.878 122.884 19.5295 124.442 19.5207C125.028 19.5207 125.593 19.4492 126.076 19.3675C125.614 19.0306 125.048 18.6937 124.74 18.469L123.825 17.8769C123.147 17.4073 122.397 16.9785 121.615 16.5191C120.29 15.8047 119.031 14.9744 117.854 14.0381C114.932 11.5401 112.436 8.58888 110.463 5.2988C110.259 4.95934 110.025 4.63823 109.764 4.3391C109.599 4.56724 109.454 4.80989 109.333 5.064C108.85 5.97264 108.438 6.89149 107.996 7.8614C107.17 9.86855 106.148 11.7903 104.944 13.5991V13.5991Z" fill="#20BDBD" fill-opacity="0.5"/>
<path d="M53.3353 98.1642H53.0063C52.4652 98.1411 51.9351 98.0056 51.45 97.7665C50.9649 97.5273 50.5357 97.1898 50.19 96.7757C49.2395 95.4364 48.746 93.8299 48.7818 92.1916C48.6791 90.6908 48.5865 90.0783 47.9904 89.6903C45.2768 87.8833 39.7676 88.0873 36.0879 89.3329L34.1041 90.0477C31.113 91.1707 28.0192 92.3345 24.1236 91.14C20.2281 89.9455 19.4469 87.9138 19.4571 86.4334C19.4571 82.9316 24.1955 80.2464 27.166 79.3786C30.2434 78.5969 33.4049 78.189 36.5812 78.1638C38.1333 78.0923 39.6031 78.0208 41.0626 77.8574C46.0889 77.3061 53.3969 76.0402 58.4334 71.3948C61.0452 69.1546 63.8997 67.2096 66.9441 65.5958C70.4182 63.5539 73.7073 61.6958 76.1948 58.7759C80.8407 53.3955 82.6393 46.5244 83.328 41.7668C83.5057 40.9187 83.8758 40.122 84.4102 39.4374C84.9445 38.7527 85.629 38.1981 86.4116 37.8157C87.6501 37.1834 89.0225 36.8535 90.4151 36.8535C91.8076 36.8535 93.1801 37.1834 94.4186 37.8157C101.192 40.8071 100.318 46.0854 96.0837 60.4298C94.714 64.9929 93.653 69.6418 92.9077 74.3454C92.8059 75.1958 92.7578 76.0517 92.7638 76.908C92.7021 79.9709 92.589 85.1879 87.7478 85.7086C86.8125 85.8107 85.9388 85.8414 85.0857 85.8618C83.7825 85.8288 82.4813 85.98 81.221 86.3109C80.1314 86.6692 79.0668 87.099 78.0345 87.5973C76.89 88.1481 75.7127 88.6289 74.5091 89.0369C72.7824 89.5261 70.9525 89.5261 69.2259 89.0369C68.2926 88.7656 67.314 88.6823 66.3478 88.7919C64.806 89.0982 63.8091 90.5071 62.6579 92.1304C61.9668 93.1861 61.1677 94.1681 60.2733 95.0606C59.1324 96.0713 56.0283 98.1642 53.3353 98.1642ZM53.3353 94.0804C54.8689 93.7887 56.2916 93.0821 57.4467 92.0385C58.1367 91.3265 58.7562 90.5504 59.2968 89.7209C60.6741 87.7709 62.3804 85.3411 65.5462 84.7285C67.0584 84.4956 68.603 84.5826 70.0789 84.9838C71.1052 85.314 72.2015 85.3668 73.2551 85.1368C74.3071 84.7794 75.3368 84.3601 76.3387 83.8811C77.5365 83.3089 78.7688 82.8112 80.0286 82.3905C81.6486 81.9488 83.3237 81.7391 85.0034 81.7677C85.7949 81.7677 86.5555 81.7677 87.3264 81.6452C88.2926 81.5431 88.5907 80.4507 88.6729 76.8162C88.6687 75.792 88.7339 74.7687 88.8681 73.7533C89.6437 68.8704 90.7459 64.0442 92.1675 59.3068C96.8648 43.3902 95.5801 42.8184 92.774 41.583C92.1261 41.2225 91.4031 41.0156 90.6614 40.9785C89.9197 40.9413 89.1793 41.0748 88.4981 41.3687C88.0372 41.5667 87.6696 41.9318 87.4703 42.3896C86.6994 47.719 84.6745 55.3557 79.3811 61.4814C76.4003 64.922 72.659 67.0864 69.0306 69.1691C66.249 70.6395 63.6366 72.4059 61.2394 74.4373C55.2779 79.8993 47.1475 81.3491 41.5457 81.9617C39.9628 82.1352 38.3594 82.2068 36.8073 82.2884C33.9597 82.287 31.1226 82.6298 28.3584 83.3094C26.0868 83.973 23.8975 85.6372 23.62 86.3722C24.1352 86.7748 24.7309 87.0636 25.3673 87.2196C27.9164 88.0057 30.0235 87.2196 32.6856 86.1986C33.3743 85.9434 34.0733 85.678 34.803 85.4329C39.377 83.9015 46.1814 83.5136 50.3133 86.26C52.6363 87.8118 52.7905 90.1701 52.9138 91.8853C52.8771 92.6411 53.0142 93.3953 53.3147 94.0906L53.3353 94.0804Z" fill="#20BDBD" fill-opacity="0.5"/>
<path d="M37.7426 103.085C36.7147 103.085 35.6149 102.973 34.659 102.881C33.7425 102.758 32.8189 102.697 31.8941 102.697C31.3126 102.762 30.7239 102.704 30.1662 102.528C29.6085 102.352 29.0942 102.062 28.6564 101.676V101.676C28.3089 101.322 28.0563 100.887 27.9216 100.411C27.787 99.9346 27.7745 99.4326 27.8855 98.9504C28.3583 96.5206 31.7193 93.6312 33.3228 92.9268C35.9891 91.9204 38.8279 91.4418 41.6792 91.5179C42.5875 91.4196 43.5041 91.6048 44.3017 92.0475C45.0992 92.4903 45.7382 93.1687 46.1299 93.9886C47.0036 95.9693 46.3354 98.6747 44.4955 100.574C43.6116 101.441 42.5532 102.114 41.3894 102.546C40.2256 102.979 38.9828 103.163 37.7426 103.085ZM32.6033 98.6238C33.4256 98.6238 34.2479 98.736 35.0496 98.8177C38.1332 99.124 40.0142 99.2261 41.5046 97.6947C41.7852 97.4355 42.0051 97.1182 42.149 96.7654C42.2928 96.4127 42.357 96.0329 42.3371 95.6528C42.1797 95.6405 42.0216 95.6405 41.8643 95.6528H41.7718C39.4486 95.5561 37.1283 95.9027 34.9366 96.6737C34.0556 97.1911 33.2671 97.85 32.6033 98.6238V98.6238Z" fill="#20BDBD" fill-opacity="0.5"/>
<path d="M13.9789 115.94C13.6327 115.938 13.2879 115.897 12.951 115.817C9.86748 115.092 8.90125 111.733 8.53122 110.457C7.90478 108.666 7.60205 106.779 7.637 104.883C7.7088 104.086 7.83239 103.295 8.00701 102.514C8.32564 100.922 8.4901 99.9006 8.00701 99.043C7.22967 97.9363 6.79763 96.6269 6.76472 95.2779C6.73182 93.9289 7.09959 92.6001 7.82206 91.4574C9.15828 88.9356 13.3108 87.1796 16.0449 87.9861C18.3062 88.66 19.9096 90.9163 21.1842 92.7234C21.5234 93.2032 21.8318 93.6524 22.1298 94.0098C23.2579 95.2097 24.0976 96.6478 24.5863 98.2161C25.3572 101.279 23.8257 104.117 22.8184 106.016L20.0741 111.121C19.5122 112.297 18.7585 113.374 17.8436 114.306C16.8174 115.328 15.4317 115.914 13.9789 115.94V115.94ZM14.462 91.8658C13.2787 91.9477 12.1734 92.4819 11.3784 93.3563C10.5253 94.9695 10.6281 95.6024 11.4401 96.9195C12.8277 99.186 12.3651 101.473 11.9951 103.311C11.8579 103.917 11.7585 104.53 11.6971 105.148C11.7063 106.572 11.9564 107.983 12.4371 109.324C13.0024 111.264 13.5267 111.764 13.8556 111.846C14.0604 111.849 14.2635 111.809 14.4514 111.728C14.6393 111.647 14.8075 111.527 14.945 111.376C15.5234 110.742 15.9986 110.022 16.3533 109.242L19.1079 104.138C20.0535 102.371 20.8758 100.656 20.516 99.2575C20.1551 98.2776 19.5914 97.3837 18.8612 96.6336V96.6336C18.5117 96.215 18.1417 95.6841 17.7409 95.1226C16.9186 93.9587 15.6852 92.2129 14.7807 91.9474C14.6893 91.9064 14.5923 91.8789 14.4928 91.8658H14.462Z" fill="#20BDBD" fill-opacity="0.5"/>
<path d="M3.73094 134C3.1524 134.011 2.57994 133.881 2.06382 133.621C1.5477 133.361 1.10367 132.979 0.77072 132.509C0.396469 131.926 0.177207 131.259 0.133455 130.569C-0.596321 124.127 1.75739 119.747 6.60886 118.563C7.25739 118.373 7.94521 118.36 8.6007 118.524C9.2562 118.688 9.85546 119.024 10.3361 119.496C10.8167 119.968 11.1612 120.56 11.3336 121.209C11.506 121.858 11.5001 122.542 11.3165 123.188C10.9843 124.645 10.5021 126.065 9.87749 127.425C9.31508 128.672 8.68019 129.885 7.97599 131.059C7.4298 132.097 6.59956 132.961 5.58101 133.55C5.01031 133.848 4.37528 134.002 3.73094 134V134ZM7.22567 122.647C4.88217 123.433 3.86459 125.709 4.14211 129.416C4.24482 129.272 4.33743 129.122 4.41953 128.966C5.04554 127.932 5.60847 126.862 6.10522 125.761C6.57213 124.758 6.94719 123.716 7.22567 122.647Z" fill="#20BDBD" fill-opacity="0.5"/>
</svg>
