<svg width="64" height="68" viewBox="0 0 77 82" fill="none" xmlns="http://www.w3.org/2000/svg">
<g style="mix-blend-mode:darken">
<g style="mix-blend-mode:darken">
<path d="M54.3415 73.3855C54.3671 78.3486 42.9035 81.1979 28.8385 81.2706C14.7736 81.3432 6.88088 77.5006 6.86088 73.6309C6.84098 69.7611 14.7736 66.583 28.8385 66.5103C42.9035 66.4377 54.3216 69.5158 54.3415 73.3855Z" fill="#E2DAC1"/>
</g>
</g>
<path d="M76.8175 26.2611C75.5694 11.0226 62.1704 -0.238554 46.8888 1.10944C43.8667 1.3761 42.4279 13.9458 43.6756 29.1852C44.9233 44.4246 48.3852 56.5625 51.4074 56.2959C66.6887 54.9472 78.0652 41.5004 76.8175 26.2611Z" fill="white"/>
<path d="M53.88 52.2085C65.6977 49.7781 74.1335 38.8573 73.1294 26.5904C72.1252 14.3236 62.0324 5.03324 49.9883 4.70584C51.9898 9.36974 53.7918 18.1089 54.6194 28.2166C55.4471 38.3244 55.0926 47.2567 53.88 52.2085Z" fill="#EAF9FB"/>
<path d="M48.1508 48.186L48.1509 48.1862C48.8441 50.6183 49.5555 52.4426 50.2487 53.6492L48.1508 48.186ZM48.1508 48.186C46.7195 43.1669 45.5951 36.3794 44.9964 29.0718L48.1508 48.186ZM44.9469 10.1425V10.1426C44.4041 15.2828 44.4191 22.0061 44.9964 29.0716L44.9469 10.1425ZM44.9469 10.1425C45.2038 7.70824 45.5829 5.74804 46.0283 4.36884C46.2517 3.67694 46.4798 3.16928 46.6936 2.83014C46.8376 2.60174 46.945 2.49709 47.0011 2.45224M44.9469 10.1425L47.0011 2.45224ZM47.0011 2.45224C47.0411 2.47447 47.1054 2.51757 47.1956 2.5997C47.4252 2.8088 47.716 3.17914 48.0466 3.7547V3.75473C48.7401 4.96214 49.4517 6.78664 50.1457 9.21884C51.5767 14.2373 52.7014 21.0255 53.2993 28.3333C53.8764 35.3982 53.8921 42.1213 53.3496 47.2622C53.0926 49.6966 52.7135 51.6567 52.2682 53.036C52.0448 53.7278 51.8167 54.2355 51.6029 54.5746C51.4592 54.8025 51.3519 54.9072 51.2958 54.9522C51.2558 54.9301 51.1912 54.8869 51.1004 54.8043C50.8707 54.5952 50.5798 54.2249 50.2489 53.6495L47.0011 2.45224Z" fill="#F5FBFE"/>
<path d="M44.9469 10.1425C45.2038 7.70824 45.5829 5.74804 46.0283 4.36884C46.2517 3.67694 46.4798 3.16928 46.6936 2.83014C46.8376 2.60174 46.945 2.49709 47.0011 2.45224M44.9469 10.1425L47.0011 2.45224M48.1508 48.186L48.1509 48.1862C48.8441 50.6183 49.5555 52.4426 50.2487 53.6492L48.1508 48.186ZM48.1508 48.186C46.7195 43.1669 45.5951 36.3794 44.9964 29.0718L48.1508 48.186ZM44.9469 10.1425V10.1426C44.4041 15.2828 44.4191 22.0061 44.9964 29.0716L44.9469 10.1425ZM47.0011 2.45224C47.0411 2.47447 47.1054 2.51757 47.1956 2.5997C47.4252 2.8088 47.716 3.17914 48.0466 3.7547V3.75473C48.7401 4.96214 49.4517 6.78664 50.1457 9.21884C51.5767 14.2373 52.7014 21.0255 53.2993 28.3333C53.8764 35.3982 53.8921 42.1213 53.3496 47.2622C53.0926 49.6966 52.7135 51.6567 52.2682 53.036C52.0448 53.7278 51.8167 54.2355 51.6029 54.5746C51.4592 54.8025 51.3519 54.9072 51.2958 54.9522C51.2558 54.9301 51.1912 54.8869 51.1004 54.8043C50.8707 54.5952 50.5798 54.2249 50.2489 53.6495L47.0011 2.45224Z" stroke="#DFF2FC" stroke-width="2"/>
<path d="M46.6146 1.17234L46.8259 1.7873C46.8638 1.77384 46.9032 1.76505 46.9432 1.76112C47.3806 1.72314 48.0114 2.34264 48.6304 3.42006C49.3592 4.68846 50.1069 6.63036 50.7921 9.03546C52.2415 14.1169 53.3696 20.951 53.9702 28.2805C54.5503 35.3678 54.5677 42.1352 54.0184 47.3363C53.7548 49.8393 53.3744 51.8534 52.8875 53.3225C52.2805 55.1669 51.6939 55.547 51.4723 55.6241C51.4344 55.6377 51.395 55.6465 51.3549 55.6503C50.9171 55.6892 50.2861 55.069 49.6671 53.9916C48.9383 52.7232 48.1905 50.7813 47.5054 48.3762C46.0569 43.2953 44.9278 36.4608 44.328 29.131C43.7474 22.0447 43.7307 15.2769 44.2793 10.0761C44.5436 7.57286 44.924 5.55876 45.41 4.08913C46.0211 2.24331 46.6035 1.86465 46.8259 1.7873L46.6146 1.17234ZM46.6146 1.17234C43.7814 2.1582 42.4678 14.4197 43.6785 29.188C44.9262 44.4274 48.3881 56.5654 51.4102 56.2987C51.5041 56.2902 51.5967 56.2702 51.6859 56.2391C54.5184 55.2534 55.8325 42.9911 54.6218 28.2227C53.3734 12.9836 49.9124 0.846029 46.8903 1.11268C46.7963 1.12089 46.7037 1.14094 46.6146 1.17234Z" fill="#DFF2FC"/>
<path d="M65.1852 23.2003C68.4 22.0817 70.1148 18.5806 69.0154 15.3803C67.9161 12.1801 64.4187 10.4926 61.204 11.6112C57.9892 12.7299 56.2743 16.231 57.3737 19.4313C58.4731 22.6315 61.9704 24.319 65.1852 23.2003Z" fill="white"/>
<path d="M5.25251 31.2669C8.00771 29.8022 18.9993 34.6378 30.8848 42.675C42.7704 50.7122 51.338 59.0988 50.9855 62.1888C50.967 62.3879 50.8993 62.5794 50.7884 62.7461C42.1637 75.3862 24.879 78.6731 12.1808 70.0881C-0.51739 61.5031 -3.81997 44.2966 4.80401 31.6557C4.91951 31.4917 5.07341 31.3583 5.25251 31.2669Z" fill="#74CB54"/>
<path d="M25.4512 50.6294H25.4511C19.3614 46.5125 13.982 42.1924 10.2964 38.4761L10.2963 38.476C8.5108 36.6763 7.2642 35.1575 6.5478 33.9592V33.9591C6.2058 33.3873 6.0235 32.9514 5.9525 32.6486C5.9257 32.5342 5.919 32.459 5.9186 32.4137C5.9268 32.4105 5.9361 32.4071 5.9467 32.4035C6.0608 32.3648 6.2629 32.3276 6.5827 32.3276C7.4428 32.3276 8.7076 32.5857 10.3371 33.1292C11.9479 33.6664 13.8463 34.4587 15.9485 35.4709C20.1517 37.4947 25.117 40.3722 30.1403 43.769L30.1404 43.7691C36.2301 47.886 41.6095 52.2053 45.2942 55.9222L45.2946 55.9226C47.0807 57.7222 48.3273 59.241 49.0437 60.4393C49.3857 61.0112 49.568 61.4471 49.639 61.7498C49.6658 61.8641 49.6725 61.9393 49.6729 61.9846C49.6647 61.9879 49.6553 61.9913 49.6446 61.9949C49.5303 62.0337 49.3282 62.0708 49.0088 62.0708C48.1485 62.0708 46.8836 61.8127 45.254 61.2692C43.6431 60.7319 41.7447 59.9395 39.6425 58.9273C35.4393 56.9034 30.4741 54.0258 25.4512 50.6294ZM5.869 32.4374C5.8678 32.4383 5.8672 32.4388 5.8672 32.4388C5.8671 32.4387 5.8677 32.4383 5.869 32.4374ZM49.7245 61.9595C49.7245 61.9596 49.7239 61.96 49.7226 61.9609C49.7238 61.9599 49.7244 61.9595 49.7245 61.9595Z" fill="#F2FFEC" stroke="#1E7808" stroke-width="2"/>
<path d="M6.58318 31.656C8.47878 31.656 11.8423 32.7634 16.0542 34.7738C20.4655 36.8797 25.4667 39.7976 30.517 43.2129C36.6246 47.3416 42.042 51.6878 45.7725 55.4496C47.5385 57.2302 48.8692 58.8365 49.6218 60.0955C50.2608 61.1642 50.4945 62.0184 50.2476 62.3809C50.0871 62.6158 49.6474 62.7457 49.0092 62.7457C47.1135 62.7457 43.7501 61.6383 39.5381 59.6279C35.1268 57.522 30.1257 54.6041 25.0754 51.1888C18.9677 47.0601 13.5503 42.7139 9.81978 38.9521C8.05378 37.1715 6.72308 35.5652 5.97048 34.3062C5.33158 33.2375 5.09778 32.3833 5.34478 32.0208C5.50518 31.7859 5.94488 31.656 6.58318 31.656ZM6.58318 31.0054C5.71338 31.0054 5.10438 31.2147 4.80398 31.6553C3.09808 34.1552 12.0093 43.1421 24.7075 51.7272C35.1701 58.8029 44.9394 63.3985 49.0092 63.3985C49.879 63.3985 50.4879 63.1884 50.7884 62.7486C52.4935 60.2487 43.583 51.2618 30.8848 42.6767C20.4223 35.601 10.653 31.0054 6.58318 31.0054Z" fill="#1E7808"/>
<path d="M5.48715 52.1989C6.58842 51.5757 7.055 50.3174 6.52929 49.3884C6.00357 48.4595 4.68464 48.2117 3.58338 48.835C2.48211 49.4582 2.01553 50.7165 2.54124 51.6454C3.06696 52.5743 4.38588 52.8222 5.48715 52.1989Z" fill="#CEFFC6" fill-opacity="0.7"/>
<path d="M5.48759 56.64C5.93811 56.385 6.12068 55.8556 5.89538 55.4575C5.67007 55.0594 5.12221 54.9433 4.67169 55.1983C4.22117 55.4533 4.0386 55.9827 4.26391 56.3808C4.48921 56.7789 5.03708 56.8949 5.48759 56.64Z" fill="#CEFFC6" fill-opacity="0.7"/>
</svg>
