<svg width="326" height="381" viewBox="0 0 329 392" fill="none" xmlns="http://www.w3.org/2000/svg">
<line y1="26.6591" x2="329" y2="26.6591" stroke="#F794A9" stroke-opacity="0.1"/>
<line x1="32.4023" y1="2.19221e-08" x2="32.4023" y2="392" stroke="#F794A9" stroke-opacity="0.1"/>
<line x1="67.2969" y1="2.19221e-08" x2="67.2969" y2="392" stroke="#F794A9" stroke-opacity="0.1"/>
<line x1="102.191" y1="2.19221e-08" x2="102.191" y2="392" stroke="#F794A9" stroke-opacity="0.1"/>
<line x1="137.085" y1="2.19221e-08" x2="137.085" y2="392" stroke="#F794A9" stroke-opacity="0.1"/>
<line x1="171.979" y1="2.19221e-08" x2="171.979" y2="392" stroke="#F794A9" stroke-opacity="0.1"/>
<line x1="206.873" y1="2.19221e-08" x2="206.873" y2="392" stroke="#F794A9" stroke-opacity="0.1"/>
<line x1="241.767" y1="2.19221e-08" x2="241.767" y2="392" stroke="#F794A9" stroke-opacity="0.1"/>
<line x1="276.66" y1="2.19221e-08" x2="276.66" y2="392" stroke="#F794A9" stroke-opacity="0.1"/>
<line x1="311.555" y1="2.19221e-08" x2="311.555" y2="392" stroke="#F794A9" stroke-opacity="0.1"/>
<line y1="53.8183" x2="329" y2="53.8183" stroke="#F794A9" stroke-opacity="0.1"/>
<line y1="80.9774" x2="329" y2="80.9774" stroke="#F794A9" stroke-opacity="0.1"/>
<line y1="108.137" x2="329" y2="108.137" stroke="#F794A9" stroke-opacity="0.1"/>
<line y1="135.298" x2="329" y2="135.298" stroke="#F794A9" stroke-opacity="0.1"/>
<line y1="162.457" x2="329" y2="162.457" stroke="#F794A9" stroke-opacity="0.1"/>
<line y1="189.616" x2="329" y2="189.616" stroke="#F794A9" stroke-opacity="0.1"/>
<line y1="216.775" x2="329" y2="216.775" stroke="#F794A9" stroke-opacity="0.1"/>
<line y1="243.934" x2="329" y2="243.934" stroke="#F794A9" stroke-opacity="0.1"/>
<line y1="271.093" x2="329" y2="271.093" stroke="#F794A9" stroke-opacity="0.1"/>
<line y1="298.252" x2="329" y2="298.252" stroke="#F794A9" stroke-opacity="0.1"/>
<line y1="325.411" x2="329" y2="325.411" stroke="#F794A9" stroke-opacity="0.1"/>
<line y1="352.573" x2="329" y2="352.573" stroke="#F794A9" stroke-opacity="0.1"/>
<line y1="379.732" x2="329" y2="379.732" stroke="#F794A9" stroke-opacity="0.1"/>
</svg>
