<svg width="326" height="381" viewBox="0 0 329 392" fill="none" xmlns="http://www.w3.org/2000/svg">
<line y1="26.6593" x2="329" y2="26.6593" stroke="#CB472F" stroke-opacity="0.1"/>
<line x1="32.4023" y1="2.19221e-08" x2="32.4023" y2="392" stroke="#CB472F" stroke-opacity="0.1"/>
<line x1="67.2969" y1="2.19221e-08" x2="67.2969" y2="392" stroke="#CB472F" stroke-opacity="0.1"/>
<line x1="102.191" y1="2.19221e-08" x2="102.191" y2="392" stroke="#CB472F" stroke-opacity="0.1"/>
<line x1="137.085" y1="2.19221e-08" x2="137.085" y2="392" stroke="#CB472F" stroke-opacity="0.1"/>
<line x1="171.979" y1="2.19221e-08" x2="171.979" y2="392" stroke="#CB472F" stroke-opacity="0.1"/>
<line x1="206.873" y1="2.19221e-08" x2="206.873" y2="392" stroke="#CB472F" stroke-opacity="0.1"/>
<line x1="241.767" y1="2.19221e-08" x2="241.767" y2="392" stroke="#CB472F" stroke-opacity="0.1"/>
<line x1="276.66" y1="2.19221e-08" x2="276.66" y2="392" stroke="#CB472F" stroke-opacity="0.1"/>
<line x1="311.555" y1="2.19221e-08" x2="311.555" y2="392" stroke="#CB472F" stroke-opacity="0.1"/>
<line y1="53.8187" x2="329" y2="53.8187" stroke="#CB472F" stroke-opacity="0.1"/>
<line y1="80.978" x2="329" y2="80.978" stroke="#CB472F" stroke-opacity="0.1"/>
<line y1="108.137" x2="329" y2="108.137" stroke="#CB472F" stroke-opacity="0.1"/>
<line y1="135.297" x2="329" y2="135.297" stroke="#CB472F" stroke-opacity="0.1"/>
<line y1="162.456" x2="329" y2="162.456" stroke="#CB472F" stroke-opacity="0.1"/>
<line y1="189.615" x2="329" y2="189.615" stroke="#CB472F" stroke-opacity="0.1"/>
<line y1="216.775" x2="329" y2="216.775" stroke="#CB472F" stroke-opacity="0.1"/>
<line y1="243.934" x2="329" y2="243.934" stroke="#CB472F" stroke-opacity="0.1"/>
<line y1="271.094" x2="329" y2="271.094" stroke="#CB472F" stroke-opacity="0.1"/>
<line y1="298.253" x2="329" y2="298.253" stroke="#CB472F" stroke-opacity="0.1"/>
<line y1="325.412" x2="329" y2="325.412" stroke="#CB472F" stroke-opacity="0.1"/>
<line y1="352.572" x2="329" y2="352.572" stroke="#CB472F" stroke-opacity="0.1"/>
<line y1="379.731" x2="329" y2="379.731" stroke="#CB472F" stroke-opacity="0.1"/>
</svg>
