<svg width="119" height="39" viewBox="0 0 119 39" fill="none" xmlns="http://www.w3.org/2000/svg">
<g filter="url(#filter0_d_1329_2654)">
<rect x="1" y="1" width="117" height="35" rx="17.5" fill="#FCCD1F"/>
</g>
<rect x="0.593804" y="0.593804" width="117.812" height="35.8124" rx="17.4087" fill="#FCCD1F" stroke="#C39111" stroke-width="0.812391"/>
<mask id="mask0_1329_2654" style="mask-type:alpha" maskUnits="userSpaceOnUse" x="1" y="1" width="117" height="35">
<rect x="1" y="1" width="117" height="35" rx="17.0025" fill="#67C0AB"/>
</mask>
<g mask="url(#mask0_1329_2654)">
<rect x="1" y="1" width="117" height="35" rx="17.0025" fill="#FCCD1F"/>
<path d="M61.0037 18.5002C21.0231 18.311 1.66798 11.6421 -2.67773 7.38536L10.5266 -1.83761L91.4237 -8.45923C104.405 -6.56734 128.697 -0.702475 122.011 7.62185C115.325 15.9462 78.5537 18.3426 61.0037 18.5002Z" fill="#FEE174"/>
</g>
<ellipse cx="14.7055" cy="8.33107" rx="3.67714" ry="3.31081" fill="#FFF5CF"/>
<ellipse cx="11.1957" cy="16.844" rx="1.50429" ry="1.41892" fill="#FFF5CF"/>
<defs>
<filter id="filter0_d_1329_2654" x="1" y="1" width="117" height="37.031" filterUnits="userSpaceOnUse" color-interpolation-filters="sRGB">
<feFlood flood-opacity="0" result="BackgroundImageFix"/>
<feColorMatrix in="SourceAlpha" type="matrix" values="0 0 0 0 0 0 0 0 0 0 0 0 0 0 0 0 0 0 127 0" result="hardAlpha"/>
<feOffset dy="2.03098"/>
<feComposite in2="hardAlpha" operator="out"/>
<feColorMatrix type="matrix" values="0 0 0 0 0.764706 0 0 0 0 0.568627 0 0 0 0 0.0666667 0 0 0 1 0"/>
<feBlend mode="normal" in2="BackgroundImageFix" result="effect1_dropShadow_1329_2654"/>
<feBlend mode="normal" in="SourceGraphic" in2="effect1_dropShadow_1329_2654" result="shape"/>
</filter>
</defs>
</svg>
