<svg width="28" height="28" viewBox="0 0 28 28" fill="none" xmlns="http://www.w3.org/2000/svg">
<path d="M16.1236 25.6663H11.8769C11.6109 25.6664 11.3528 25.5755 11.1454 25.4087C10.9381 25.2419 10.794 25.0093 10.7371 24.7493L10.2623 22.5513C9.62884 22.2738 9.02821 21.9267 8.47144 21.5165L6.32827 22.199C6.0746 22.2799 5.80088 22.2716 5.55258 22.1755C5.30428 22.0793 5.09633 21.9011 4.96327 21.6705L2.83527 17.9943C2.70361 17.7635 2.65418 17.4948 2.69509 17.2322C2.73599 16.9696 2.8648 16.7287 3.06044 16.5488L4.72294 15.0322C4.64733 14.3451 4.64733 13.6519 4.72294 12.9648L3.06044 11.4517C2.86452 11.2717 2.73554 11.0306 2.69463 10.7678C2.65372 10.5049 2.70331 10.236 2.83527 10.005L4.95861 6.32651C5.09166 6.09588 5.29961 5.9177 5.54791 5.82156C5.79621 5.72542 6.06993 5.71711 6.32361 5.79801L8.46677 6.48051C8.75144 6.27051 9.04777 6.07451 9.35344 5.89717C9.6486 5.73151 9.95194 5.58101 10.2623 5.44684L10.7383 3.25117C10.7949 2.99124 10.9387 2.75848 11.1458 2.59148C11.3529 2.42449 11.6109 2.33329 11.8769 2.33301H16.1236C16.3896 2.33329 16.6476 2.42449 16.8547 2.59148C17.0618 2.75848 17.2056 2.99124 17.2623 3.25117L17.7429 5.44801C18.3756 5.72715 18.976 6.07413 19.5338 6.48284L21.6781 5.80034C21.9316 5.71974 22.2051 5.72821 22.4531 5.82433C22.7012 5.92045 22.9089 6.09846 23.0419 6.32884L25.1653 10.0073C25.4359 10.4822 25.3426 11.083 24.9401 11.4528L23.2776 12.9695C23.3532 13.6565 23.3532 14.3498 23.2776 15.0368L24.9401 16.5535C25.3426 16.9245 25.4359 17.5242 25.1653 17.999L23.0419 21.6775C22.9089 21.9081 22.7009 22.0863 22.4526 22.1825C22.2043 22.2786 21.9306 22.2869 21.6769 22.206L19.5338 21.5235C18.9774 21.9334 18.3772 22.2801 17.7441 22.5572L17.2623 24.7493C17.2054 25.0091 17.0615 25.2416 16.8544 25.4083C16.6473 25.5751 16.3895 25.6661 16.1236 25.6663ZM13.9956 9.33301C12.7579 9.33301 11.5709 9.82467 10.6958 10.6998C9.8206 11.575 9.32894 12.762 9.32894 13.9997C9.32894 15.2374 9.8206 16.4243 10.6958 17.2995C11.5709 18.1747 12.7579 18.6663 13.9956 18.6663C15.2333 18.6663 16.4203 18.1747 17.2954 17.2995C18.1706 16.4243 18.6623 15.2374 18.6623 13.9997C18.6623 12.762 18.1706 11.575 17.2954 10.6998C16.4203 9.82467 15.2333 9.33301 13.9956 9.33301Z" fill="#322400"/>
</svg>
