<svg id="レイヤー_1" data-name="レイヤー 1" xmlns="http://www.w3.org/2000/svg" xmlns:xlink="http://www.w3.org/1999/xlink" viewBox="0 0 356.02 98.7"><defs><style>.cls-1{fill:none;}.cls-2{fill:#e38c8c;}.cls-3{fill:#579f8e;}.cls-4{fill:#67c0ab;}.cls-5{clip-path:url(#clip-path);}.cls-6{fill:#8ad7b2;}.cls-7{fill:#fff;}.cls-8{fill:#dbffe1;}</style><clipPath id="clip-path" transform="translate(-2.89 0.65)"><path class="cls-1" d="M13.29,53.25a35,35,0,0,1,35-35h261a35,35,0,0,1,0,70h-261A35,35,0,0,1,13.29,53.25Z"/></clipPath></defs><path class="cls-2" d="M13.29,63.05a35,35,0,0,1,35-35h261a35,35,0,0,1,0,70h-261A35,35,0,0,1,13.29,63.05Z" transform="translate(-2.89 0.65)"/><path class="cls-3" d="M13.29,58.05a35,35,0,0,1,35-35h261a35,35,0,0,1,0,70h-261A35,35,0,0,1,13.29,58.05Z" transform="translate(-2.89 0.65)"/><path class="cls-4" d="M13.29,53.25a35,35,0,0,1,35-35h261a35,35,0,0,1,0,70h-261A35,35,0,0,1,13.29,53.25Z" transform="translate(-2.89 0.65)"/><g class="cls-5"><path class="cls-6" d="M183.09,53.25C70,52.85,15.19,39.55,2.89,31.05l37.4-18.5L269.19-.65c36.6,3.8,105.4,15.5,86.5,32.1S232.69,53,183.09,53.25Z" transform="translate(-2.89 0.65)"/></g><path class="cls-7" d="M133,58.35a15.8,15.8,0,0,1-1.2,6.1,11.8,11.8,0,0,1-3.3,4.3,12.88,12.88,0,0,1-4.9,2.6,21,21,0,0,1-6.1.9,12.41,12.41,0,0,1-2.7-.3c-1-.2-2-.5-3-.8a24.88,24.88,0,0,1-2.9-1.1c-.9-.4-1.8-.7-2.5-1.1l1.1-10.5a16.84,16.84,0,0,0,4.8,2,22.47,22.47,0,0,0,5.2.7h1.2A5.85,5.85,0,0,0,120,61a2.38,2.38,0,0,0,1.1-.6.85.85,0,0,0,.3-.5,1.27,1.27,0,0,0,.1-.6,1.14,1.14,0,0,0-.3-.8,5.55,5.55,0,0,0-.8-.6,2.28,2.28,0,0,0-1.1-.3c-.4-.1-.8-.1-1.2-.2h-1.9a9.24,9.24,0,0,1-4-.8,9.45,9.45,0,0,1-3.1-2.1,9.62,9.62,0,0,1-2-3.2,11.41,11.41,0,0,1-.7-4.1,11.78,11.78,0,0,1,4.4-9.4,16,16,0,0,1,10.1-3.5,23.48,23.48,0,0,1,2.6.1l2.6.3a24.37,24.37,0,0,1,2.6.6,23.4,23.4,0,0,1,2.4.9l-.9,10.3c-1.2-.4-2.4-.7-3.6-1a15.53,15.53,0,0,0-3.7-.4H122a4.48,4.48,0,0,0-1.1.1c-.4.1-.8.1-1.2.2s-.7.2-1,.3a1.34,1.34,0,0,0-.7.6,1.14,1.14,0,0,0-.3.8.75.75,0,0,0,.1.5,1.38,1.38,0,0,0,.3.4,3.13,3.13,0,0,0,1,.5c.4.1.9.2,1.4.3a7.57,7.57,0,0,0,1.5.1h2.4a11.8,11.8,0,0,1,3.7.9,9,9,0,0,1,2.8,2,6.57,6.57,0,0,1,1.7,2.9A22.06,22.06,0,0,1,133,58.35Z" transform="translate(-2.89 0.65)"/><path class="cls-7" d="M161.49,35.55l-.3,10.8-7.6.3-1.9,24.1-10.8.6.1-24.1-7.6.4.3-12Z" transform="translate(-2.89 0.65)"/><path class="cls-7" d="M191.49,69.65l-12.6,1.6-1.5-5.8h-5.8l-1.3,5.8-13-1.3,10.1-33.8,14.2-.7Zm-15.1-11.9-1.9-8.8-1.9,8.8Z" transform="translate(-2.89 0.65)"/><path class="cls-7" d="M221.89,47.35a21.86,21.86,0,0,1-.3,3.6,12.13,12.13,0,0,1-1.1,3,9.2,9.2,0,0,1-1.9,2.5,19.34,19.34,0,0,1-2.8,2.2l6.1,10.8-11.5,2.2-3.9-10.8-3.2.1-.5,10.6h-11c.1-3.9.2-7.7.2-11.5s.2-7.7.3-11.5c0-2,.1-3.9.1-5.8s.1-3.9.2-5.8c1.2-.4,2.3-.8,3.5-1.1s2.3-.5,3.5-.7a20.68,20.68,0,0,1,3.5-.3c1.2-.1,2.4-.1,3.7-.1a21,21,0,0,1,5.6.8,14.44,14.44,0,0,1,4.8,2.4,11.62,11.62,0,0,1,3.3,4A10.14,10.14,0,0,1,221.89,47.35Zm-11.5.8a6.93,6.93,0,0,0-.3-2,3.77,3.77,0,0,0-.9-1.5,4.48,4.48,0,0,0-3.4-1.4,3.4,3.4,0,0,0-1,.1,2.92,2.92,0,0,0-.9.2l-.4,9.5h.6a7.8,7.8,0,0,0,2.2-.3,7.22,7.22,0,0,0,2-.9,5.36,5.36,0,0,0,1.5-1.5A2.86,2.86,0,0,0,210.39,48.15Z" transform="translate(-2.89 0.65)"/><path class="cls-7" d="M250.49,35.55l-.3,10.8-7.6.3-1.9,24.1-10.7.6V47.15l-7.6.4.3-12Z" transform="translate(-2.89 0.65)"/><path class="cls-8" d="M62.49,33c0,3.7-4.7,6.6-10.4,6.6s-10.4-3-10.4-6.6,4.7-6.6,10.4-6.6S62.49,29.25,62.49,33Z" transform="translate(-2.89 0.65)"/><path class="cls-8" d="M46.39,50c0,1.6-1.9,2.8-4.3,2.8s-4.3-1.3-4.3-2.8,1.9-2.8,4.3-2.8S46.39,48.35,46.39,50Z" transform="translate(-2.89 0.65)"/></svg>