<svg width="150" height="143" viewBox="0 0 150 143" fill="none" xmlns="http://www.w3.org/2000/svg">
<g clip-path="url(#clip0_357_626)">
<path d="M109.924 28.9786C106.539 26.2122 98.8073 27.7402 95.4186 29.3812L50.3801 51.1913L39.4003 49.0976C39.0517 49.0313 38.691 49.079 38.3716 49.2335L32.6921 51.9838C32.4314 52.1107 32.2086 52.304 32.0461 52.5442C31.8837 52.7844 31.7872 53.0631 31.7665 53.3523C31.7457 53.6415 31.8014 53.9311 31.9279 54.1921C32.0545 54.453 32.2474 54.676 32.4874 54.8389L46.9827 64.7675C47.3673 65.0277 47.785 65.2355 48.2246 65.3853C49.7302 65.9085 51.5542 65.8704 52.9118 65.2111L62.3776 60.6272C62.7613 60.4297 63.0526 60.09 63.1893 59.6807C63.326 59.2714 63.2972 58.8248 63.1091 58.4364C62.921 58.048 62.5885 57.7485 62.1827 57.6019C61.7768 57.4553 61.3296 57.4732 60.9368 57.6518L51.4709 62.2357C50.7673 62.5764 49.4906 62.4818 48.8486 62.0409L36.6768 53.7332L39.3123 52.4551L50.292 54.5487C50.6406 54.6149 51.0014 54.5673 51.3208 54.4128L96.8515 32.3643C99.8206 30.9265 105.911 30.001 107.831 31.5502C108.312 31.9405 108.342 32.2944 108.308 32.5872C108.181 33.7082 106.665 35.5039 103.584 36.9976L87.4703 44.8008C87.0759 44.9916 86.7734 45.3313 86.6293 45.7451C86.4853 46.1589 86.5115 46.613 86.7023 47.0074C86.8931 47.4019 87.2327 47.7044 87.6465 47.8484C88.0603 47.9925 88.5144 47.9662 88.9089 47.7755L105.025 39.973C108.897 38.0982 111.288 35.5437 111.59 32.969C111.684 32.2164 111.58 31.4522 111.288 30.7523C110.996 30.0523 110.526 29.4409 109.924 28.9786V28.9786Z" fill="#E93328" fill-opacity="0.5"/>
<path d="M47.5851 38.7958L57.577 44.1704C57.6541 44.2129 57.7347 44.2488 57.8179 44.2777C58.2099 44.4112 58.6378 44.3928 59.0169 44.226C59.396 44.0592 59.6986 43.7562 59.865 43.3769C60.0314 42.9977 60.0495 42.5698 59.9156 42.1779C59.7817 41.786 59.5056 41.4586 59.1419 41.2605L52.0007 37.4171L53.4016 36.7387L68.8471 39.8697C69.2769 39.9567 69.7237 39.8695 70.0892 39.6271C70.4547 39.3847 70.7089 39.0071 70.796 38.5773C70.8831 38.1475 70.7958 37.7007 70.5534 37.3352C70.3111 36.9697 69.9335 36.7155 69.5036 36.6284L53.5178 33.391C53.1633 33.3198 52.7954 33.3661 52.4695 33.5227L47.6569 35.8552C47.383 35.9879 47.1509 36.1937 46.9864 36.4498C46.8219 36.706 46.7313 37.0026 46.7246 37.3069C46.7179 37.6113 46.7954 37.9116 46.9485 38.1747C47.1015 38.4378 47.3243 38.6536 47.5921 38.7982L47.5851 38.7958Z" fill="#E93328" fill-opacity="0.5"/>
<path d="M82.968 44.362C82.7648 44.2829 82.5477 44.2457 82.3297 44.2526C82.1117 44.2595 81.8974 44.3104 81.6995 44.4022C81.5017 44.494 81.3244 44.6248 81.1784 44.7868C81.0324 44.9488 80.9206 45.1387 80.8498 45.345L70.2368 74.3172L68.6402 75.0903L69.117 53.1826C69.1209 52.7476 68.9531 52.3287 68.6502 52.0166C68.3473 51.7044 67.9336 51.5242 67.4987 51.515C67.0638 51.5057 66.6428 51.6682 66.327 51.9673C66.0111 52.2663 65.8257 52.6778 65.8111 53.1125L65.2781 77.7195C65.2713 78.0024 65.3375 78.2823 65.4705 78.5321C65.6034 78.782 65.7985 78.9933 66.0369 79.1457C66.146 79.217 66.2636 79.2746 66.3868 79.3172C66.5928 79.3876 66.8108 79.4163 67.0281 79.4017C67.2454 79.387 67.4576 79.3294 67.6524 79.2321L72.2835 76.9914C72.6727 76.8078 72.9749 76.4798 73.1261 76.077L83.9675 46.4781C84.041 46.2736 84.0734 46.0565 84.063 45.8394C84.0525 45.6223 83.9993 45.4094 83.9065 45.2129C83.8137 45.0163 83.683 44.84 83.522 44.694C83.3609 44.548 83.1727 44.4352 82.968 44.362V44.362Z" fill="#E93328" fill-opacity="0.5"/>
<path d="M12.2314 127.599V53.1084H145.177L147.801 127.599H12.2314Z" fill="white"/>
<path d="M148.745 108.919C148.746 108.663 148.696 108.41 148.599 108.174C148.501 107.938 148.358 107.724 148.178 107.543C147.997 107.363 147.783 107.22 147.547 107.122C147.311 107.025 147.058 106.975 146.802 106.975C145.242 106.975 143.745 106.354 142.642 105.25C141.539 104.146 140.92 102.649 140.92 101.088C140.921 99.527 141.542 98.0305 142.646 96.9274C143.75 95.8243 145.247 95.205 146.808 95.2057C147.323 95.2061 147.818 95.0018 148.183 94.6376C148.548 94.2733 148.753 93.7791 148.754 93.2634L148.745 86.3588C148.744 85.843 148.539 85.3486 148.175 84.9838C147.81 84.6189 147.316 84.4132 146.8 84.4118C146.299 84.4132 145.8 84.35 145.316 84.2239C143.931 83.8622 142.725 83.0081 141.924 81.8215C141.123 80.6349 140.782 79.1972 140.965 77.7774C141.148 76.3576 141.841 75.053 142.917 74.1078C143.992 73.1626 145.374 72.6416 146.806 72.6422C147.061 72.6428 147.314 72.593 147.55 72.4957C147.787 72.3983 148.001 72.2553 148.182 72.0749C148.363 71.8944 148.506 71.6801 148.604 71.4442C148.702 71.2082 148.752 70.9553 148.752 70.6998L148.75 63.7698C148.751 63.5145 148.701 63.2615 148.603 63.0255C148.506 62.7895 148.363 62.575 148.182 62.3944C148.002 62.2138 147.787 62.0707 147.551 61.9732C147.315 61.8757 147.062 61.8259 146.807 61.8264C146.041 61.8256 145.277 61.728 144.536 61.5359C142.61 61.0328 140.906 59.9051 139.69 58.3294C138.474 56.7536 137.815 54.8191 137.817 52.8288C137.817 52.5732 137.767 52.32 137.67 52.0838C137.572 51.8475 137.429 51.6329 137.248 51.4521C137.067 51.2713 136.853 51.1278 136.617 51.03C136.381 50.9321 136.128 50.8818 135.872 50.8819L24.1713 50.8367C23.9159 50.8361 23.663 50.886 23.4269 50.9834C23.1909 51.0808 22.9764 51.2239 22.7958 51.4045C22.6153 51.585 22.4721 51.7994 22.3747 52.0354C22.2772 52.2715 22.2273 52.5245 22.2279 52.7798C22.2267 55.1651 21.2782 57.4522 19.5908 59.1381C17.9034 60.824 15.6155 61.7706 13.2302 61.7697C12.7149 61.77 12.2209 61.9748 11.8565 62.3391C11.4922 62.7034 11.2873 63.1975 11.2869 63.7128L11.2889 70.6428C11.2893 71.1581 11.494 71.6521 11.8583 72.0164C12.2227 72.3808 12.7167 72.5857 13.232 72.5861C13.7329 72.5847 14.2318 72.648 14.7166 72.7741C15.977 73.1035 17.0925 73.842 17.888 74.8737C18.6835 75.9054 19.1141 77.172 19.1123 78.4748C19.1103 80.0344 18.4898 81.5294 17.3869 82.632C16.284 83.7347 14.7887 84.3548 13.2292 84.3565C12.7136 84.3561 12.2189 84.5605 11.854 84.9248C11.489 85.289 11.2836 85.7832 11.283 86.2989L11.2917 93.2035C11.2911 93.4589 11.3409 93.712 11.4383 93.9481C11.5356 94.1842 11.6786 94.3988 11.859 94.5796C12.0395 94.7604 12.2538 94.9039 12.4898 95.0017C12.7257 95.0995 12.9786 95.1498 13.234 95.1497C13.7348 95.1497 14.2336 95.2129 14.7186 95.3377C16.1022 95.7012 17.3062 96.5558 18.1057 97.7421C18.9052 98.9283 19.2456 100.365 19.0634 101.784C18.8811 103.203 18.1887 104.507 17.1153 105.452C16.042 106.398 14.6611 106.921 13.2305 106.923C12.7153 106.923 12.2213 107.128 11.8569 107.492C11.4925 107.857 11.2876 108.351 11.2871 108.866L11.2892 115.796C11.2883 116.051 11.3379 116.304 11.435 116.54C11.5321 116.776 11.6748 116.991 11.855 117.171C12.0352 117.352 12.2493 117.496 12.4851 117.593C12.7208 117.691 12.9735 117.742 13.2287 117.741C14.4101 117.741 15.58 117.973 16.6715 118.425C17.7629 118.877 18.7546 119.54 19.5896 120.376C20.4246 121.212 21.0866 122.204 21.5377 123.296C21.9888 124.388 22.2202 125.558 22.2186 126.739C22.2173 127.17 22.3593 127.589 22.6222 127.93C22.8851 128.271 23.254 128.515 23.6708 128.624C23.8307 128.666 23.9951 128.687 24.1602 128.688L135.867 128.735C136.122 128.735 136.375 128.686 136.611 128.588C136.847 128.491 137.061 128.348 137.242 128.167C137.422 127.986 137.566 127.772 137.663 127.536C137.76 127.3 137.81 127.047 137.81 126.792C137.81 125.61 138.042 124.441 138.494 123.349C138.947 122.258 139.61 121.267 140.445 120.432C141.281 119.597 142.273 118.935 143.365 118.484C144.456 118.032 145.626 117.801 146.807 117.802C147.063 117.802 147.316 117.752 147.553 117.654C147.789 117.557 148.003 117.414 148.184 117.233C148.365 117.052 148.508 116.838 148.606 116.602C148.704 116.365 148.755 116.112 148.754 115.857L148.745 108.919ZM137.691 117.674C135.742 119.61 134.469 122.122 134.059 124.838L25.9497 124.792C25.5709 122.303 24.471 119.979 22.7862 118.109C21.1013 116.238 18.9053 114.902 16.4694 114.265C16.0399 114.152 15.6049 114.062 15.1659 113.995L15.1677 110.612C17.3314 110.172 19.2824 109.012 20.7029 107.322C22.1234 105.631 22.9298 103.51 22.9907 101.302C23.0516 99.0951 22.3634 96.9322 21.0383 95.166C19.7131 93.3998 17.829 92.1342 15.6928 91.5754C15.5207 91.5306 15.3486 91.4857 15.1728 91.455L15.1762 88.0544C17.3413 87.6154 19.2939 86.4561 20.7157 84.7653C22.1375 83.0744 22.9447 80.9519 23.0057 78.7436C23.0667 76.5353 22.3779 74.3714 21.0516 72.6047C19.7253 70.838 17.8397 69.5726 15.7021 69.0148C15.53 68.9699 15.3579 68.9251 15.1858 68.8802L15.186 65.503C17.9 65.0883 20.4109 63.8183 22.3531 61.8777C24.2952 59.9371 25.5673 57.4273 25.9842 54.7136L134.096 54.7606C134.506 57.4759 135.774 59.9886 137.715 61.931C139.656 63.8734 142.168 65.1434 144.883 65.5552L144.88 68.9346C142.67 69.3835 140.684 70.5819 139.256 72.3269C137.829 74.0719 137.048 76.2565 137.046 78.511C137.054 80.7626 137.836 82.9429 139.261 84.6858C140.687 86.4287 142.668 87.6282 144.874 88.0826L144.873 91.4868C142.662 91.9335 140.674 93.131 139.246 94.8761C137.818 96.6212 137.037 98.8066 137.036 101.062C137.035 103.317 137.814 105.503 139.241 107.249C140.668 108.996 142.654 110.195 144.864 110.643L144.864 114.023C142.141 114.435 139.626 115.715 137.691 117.674V117.674Z" fill="#E93328" fill-opacity="0.5"/>
<path d="M50.1277 82.1665L50.1206 97.3764C50.1198 97.807 50.2619 98.2257 50.5248 98.5668C50.7876 98.9079 51.1562 99.1521 51.5728 99.2611C51.7328 99.3029 51.8976 99.3235 52.0629 99.3226C52.5782 99.3222 53.0723 99.1174 53.4367 98.7531C53.801 98.3888 54.0059 97.8947 54.0063 97.3795L54.0134 82.1696C53.9944 81.667 53.7813 81.1913 53.419 80.8424C53.0567 80.4935 52.5733 80.2986 52.0704 80.2986C51.5674 80.2985 51.084 80.4934 50.7216 80.8423C50.3592 81.1911 50.1461 81.6667 50.127 82.1693L50.1277 82.1665Z" fill="#E93328" fill-opacity="0.5"/>
<path d="M43.6884 80.2133L38.2653 80.2133L32.8423 80.2133C32.3705 80.2146 31.9152 80.3873 31.5613 80.6993C31.2075 81.0113 30.9791 81.4413 30.9187 81.9092C30.8584 82.3771 30.9702 82.851 31.2333 83.2425C31.4964 83.6341 31.893 83.9168 32.349 84.0377C32.51 84.0797 32.6757 84.1005 32.842 84.0998L36.3268 84.1039L36.3255 97.36C36.3248 97.7906 36.4669 98.2093 36.7298 98.5504C36.9926 98.8915 37.3611 99.1357 37.7777 99.2448C37.9377 99.2859 38.102 99.3075 38.2671 99.309C38.5225 99.309 38.7755 99.2586 39.0114 99.1608C39.2474 99.0629 39.4617 98.9195 39.6423 98.7388C39.8228 98.5581 39.966 98.3437 40.0636 98.1076C40.1612 97.8716 40.2114 97.6186 40.2112 97.3632L40.2124 84.1071L43.6972 84.1112C44.213 84.1113 44.7077 83.9066 45.0724 83.542C45.4372 83.1774 45.6422 82.6828 45.6424 82.1671C45.6425 81.6513 45.4377 81.1566 45.0731 80.7919C44.7086 80.4271 44.214 80.222 43.6983 80.2219L43.6884 80.2133Z" fill="#E93328" fill-opacity="0.5"/>
<path d="M121.772 80.2618L116.348 80.2618C115.877 80.2631 115.422 80.4358 115.068 80.7478C114.714 81.0598 114.485 81.4898 114.425 81.9577C114.365 82.4256 114.476 82.8995 114.74 83.2911C115.003 83.6827 115.399 83.9653 115.855 84.0862C116.015 84.1281 116.18 84.1487 116.345 84.1476L119.833 84.1525L119.832 97.4086C119.831 97.8392 119.973 98.2579 120.236 98.599C120.499 98.9401 120.867 99.1843 121.284 99.2933C121.444 99.335 121.609 99.3557 121.774 99.3548C122.029 99.355 122.282 99.3049 122.518 99.2073C122.754 99.1097 122.968 98.9666 123.149 98.7861C123.329 98.6057 123.472 98.3914 123.57 98.1556C123.667 97.9197 123.718 97.6669 123.717 97.4117L123.721 84.1563L127.203 84.1597C127.713 84.1505 128.198 83.9418 128.555 83.5786C128.912 83.2154 129.112 82.7266 129.113 82.2173C129.113 81.708 128.914 81.2189 128.558 80.8549C128.201 80.491 127.716 80.2814 127.207 80.2712L121.784 80.2712L121.772 80.2618Z" fill="#E93328" fill-opacity="0.5"/>
<path d="M66.5553 84.1138L67.1967 84.1152C67.8493 84.1131 68.4893 84.2951 69.0431 84.6403C69.5969 84.9855 70.0422 85.4799 70.3277 86.0668C70.4403 86.2957 70.597 86.5003 70.7887 86.6687C70.9804 86.8371 71.2033 86.9661 71.4449 87.0483C71.6865 87.1306 71.9418 87.1645 72.1965 87.148C72.4511 87.1316 72.7 87.0651 72.929 86.9524C73.158 86.8398 73.3625 86.6831 73.5309 86.4915C73.6993 86.2998 73.8283 86.0767 73.9106 85.8352C73.9928 85.5936 74.0266 85.3383 74.0102 85.0837C73.9937 84.829 73.9273 84.5801 73.8146 84.3511C73.2132 83.1105 72.274 82.0646 71.1049 81.3337C69.9359 80.6027 68.5844 80.2163 67.2056 80.2189L66.5614 80.2168C64.6063 80.2188 62.7319 80.996 61.349 82.3781C59.9661 83.7601 59.1876 85.6341 59.1843 87.5892L59.1815 91.9359C59.1793 93.5691 59.7178 95.157 60.713 96.4519C61.7082 97.7468 63.1042 98.6757 64.6829 99.0937C65.2926 99.2514 65.9199 99.3308 66.5496 99.33L67.1881 99.3307C68.5257 99.3322 69.8385 98.9696 70.9858 98.2819C72.1331 97.5941 73.0716 96.6071 73.7007 95.4267C73.8214 95.201 73.8965 94.9537 73.9217 94.699C73.9468 94.4442 73.9216 94.187 73.8473 93.9421C73.7731 93.6971 73.6513 93.4691 73.489 93.2712C73.3267 93.0733 73.1269 92.9093 72.9012 92.7885C72.6755 92.6678 72.4282 92.5928 72.1735 92.5676C71.9187 92.5424 71.6616 92.5676 71.4166 92.6419C71.1716 92.7161 70.9437 92.8379 70.7457 93.0002C70.5478 93.1626 70.3838 93.3623 70.2631 93.588C69.9652 94.1473 69.5211 94.6151 68.9781 94.9417C68.435 95.2682 67.8136 95.4412 67.18 95.442L66.5414 95.4413C65.6171 95.4381 64.7316 95.0692 64.0784 94.4152C63.4252 93.7613 63.0573 92.8754 63.0551 91.951L63.0587 87.6014C63.0615 86.6757 63.4311 85.7889 64.0865 85.1352C64.7419 84.4815 65.6297 84.1142 66.5553 84.1138V84.1138Z" fill="#E93328" fill-opacity="0.5"/>
<path d="M88.746 98.4708C89.0464 98.8676 89.4874 99.134 89.9783 99.2154C90.4693 99.2967 90.9727 99.1868 91.385 98.9081C91.7974 98.6295 92.0872 98.2035 92.1948 97.7176C92.3025 97.2318 92.2198 96.7232 91.9638 96.2964L87.5458 89.7795L91.955 83.2637C92.2333 82.8368 92.3328 82.3176 92.2322 81.818C92.1316 81.3185 91.839 80.8784 91.4172 80.5924C90.9954 80.3064 90.4782 80.1974 89.9769 80.2888C89.4755 80.3803 89.0301 80.6649 88.7365 81.0814L84.1545 87.8323L82.1759 87.829L82.1775 82.1684C82.1585 81.6657 81.9455 81.19 81.5832 80.8412C81.2208 80.4923 80.7375 80.2974 80.2345 80.2973C79.7315 80.2973 79.2481 80.4921 78.8857 80.8409C78.5234 81.1898 78.3102 81.6654 78.2911 82.168L78.284 97.3779C78.2832 97.8085 78.4253 98.2272 78.6882 98.5683C78.951 98.9094 79.3196 99.1536 79.7362 99.2627C79.8962 99.3044 80.061 99.325 80.2263 99.3241C80.4816 99.3243 80.7344 99.2742 80.9702 99.1766C81.2061 99.0791 81.4204 98.936 81.6009 98.7555C81.7814 98.575 81.9246 98.3607 82.0222 98.1249C82.1198 97.889 82.1699 97.6363 82.1697 97.3811L82.1714 91.7204L84.1506 91.7209L88.746 98.4708Z" fill="#E93328" fill-opacity="0.5"/>
<path d="M108.565 84.1323C108.82 84.1323 109.073 84.0821 109.309 83.9845C109.545 83.8868 109.759 83.7436 109.94 83.5631C110.121 83.3825 110.264 83.1682 110.362 82.9323C110.459 82.6964 110.51 82.4435 110.51 82.1882C110.51 81.9328 110.46 81.6799 110.362 81.444C110.264 81.208 110.121 80.9936 109.941 80.813C109.76 80.6323 109.546 80.489 109.31 80.3912C109.074 80.2934 108.821 80.2431 108.566 80.243L99.4344 80.2409C98.9192 80.2413 98.4251 80.4461 98.0607 80.8104C97.6963 81.1747 97.4914 81.6687 97.491 82.184L97.4804 97.3959C97.4794 97.6514 97.5289 97.9045 97.6262 98.1407C97.7235 98.3769 97.8666 98.5916 98.0473 98.7722C98.2279 98.9529 98.4425 99.096 98.6787 99.1934C98.9149 99.2907 99.168 99.3403 99.4234 99.3393L108.557 99.345C109.066 99.3357 109.551 99.1271 109.908 98.7639C110.265 98.4007 110.466 97.9119 110.466 97.4026C110.467 96.8933 110.267 96.4041 109.911 96.0402C109.555 95.6762 109.07 95.4667 108.561 95.4564L101.37 95.4538L101.372 91.7335L107.014 91.7364C107.284 91.7629 107.557 91.7326 107.814 91.6474C108.072 91.5623 108.309 91.4242 108.51 91.2421C108.711 91.0599 108.872 90.8377 108.982 90.5897C109.092 90.3417 109.149 90.0735 109.149 89.8022C109.149 89.5309 109.092 89.2626 108.983 89.0145C108.873 88.7664 108.713 88.544 108.512 88.3616C108.311 88.1792 108.074 88.0408 107.817 87.9554C107.559 87.8699 107.287 87.8393 107.017 87.8655L101.377 87.8634L101.379 84.146L108.565 84.1323Z" fill="#E93328" fill-opacity="0.5"/>
<path d="M65.0863 67.5796C65.2459 67.6223 65.4104 67.6439 65.5756 67.6438L119.075 67.664C119.336 67.674 119.597 67.631 119.842 67.5379C120.086 67.4447 120.309 67.3032 120.498 67.1218C120.686 66.9404 120.836 66.7228 120.938 66.4821C121.041 66.2414 121.094 65.9825 121.094 65.7209C121.094 65.4593 121.041 65.2004 120.938 64.9597C120.836 64.719 120.686 64.5015 120.498 64.32C120.309 64.1386 120.086 63.997 119.842 63.9038C119.597 63.8106 119.337 63.7677 119.075 63.7776L65.576 63.7574C65.1027 63.756 64.6452 63.9274 64.2894 64.2395C63.9336 64.5516 63.7041 64.9829 63.6439 65.4523C63.5838 65.9217 63.6972 66.397 63.9628 66.7888C64.2284 67.1805 64.6279 67.4617 65.0863 67.5796V67.5796Z" fill="#E93328" fill-opacity="0.5"/>
<path d="M40.4941 67.5694C40.654 67.6105 40.8184 67.6321 40.9835 67.6337L52.7334 67.6341C52.9948 67.6441 53.2555 67.6011 53.4999 67.508C53.7443 67.4148 53.9675 67.2733 54.1559 67.0919C54.3444 66.9105 54.4943 66.6929 54.5967 66.4522C54.6991 66.2115 54.7519 65.9526 54.7519 65.691C54.7519 65.4294 54.6992 65.1705 54.5968 64.9298C54.4944 64.6891 54.3446 64.4716 54.1561 64.2901C53.9677 64.1087 53.7446 63.9671 53.5002 63.8739C53.2558 63.7807 52.9951 63.7377 52.7337 63.7476L40.996 63.7353C40.5242 63.7365 40.0689 63.9093 39.715 64.2213C39.3612 64.5333 39.1328 64.9632 39.0724 65.4311C39.0121 65.899 39.1239 66.3729 39.387 66.7645C39.6501 67.1561 40.0466 67.4387 40.5026 67.5596L40.4941 67.5694Z" fill="#E93328" fill-opacity="0.5"/>
<path d="M10.5964 54.6717C9.18529 54.0659 7.65118 53.8015 6.11866 53.8997L5.2374 50.6332C7.7462 49.5211 9.83558 47.6389 11.2026 45.2594C12.5696 42.8799 13.1432 40.1268 12.8402 37.3993L117.2 9.19993C118.309 11.7117 120.19 13.804 122.57 15.172C124.95 16.5401 127.705 17.1123 130.434 16.8055L131.316 20.0664C129.301 21.0763 127.696 22.7518 126.774 24.8092C125.852 26.8666 125.67 29.1794 126.258 31.3558C126.846 33.5322 128.168 35.4385 130 36.7519C131.833 38.0652 134.063 38.7049 136.313 38.5625L137.201 41.8488C136.076 42.41 135.071 43.1847 134.242 44.1298C133.901 44.5173 133.728 45.0242 133.761 45.539C133.794 46.0539 134.031 46.5346 134.418 46.8752C134.806 47.2159 135.312 47.3887 135.827 47.3556C136.342 47.3225 136.823 47.0863 137.164 46.6988C137.924 45.8316 138.925 45.2096 140.04 44.9113C140.537 44.7765 140.961 44.4495 141.218 44.0022C141.474 43.5549 141.543 43.024 141.408 42.5262L139.61 35.8634C139.544 35.6168 139.429 35.3857 139.273 35.1833C139.118 34.9809 138.923 34.8111 138.702 34.6837C138.481 34.5564 138.236 34.4739 137.983 34.441C137.73 34.4081 137.472 34.4254 137.226 34.492C136.476 34.7076 135.69 34.7718 134.915 34.6807C134.139 34.5896 133.39 34.3452 132.71 33.9616C132.03 33.578 131.433 33.063 130.954 32.4465C130.475 31.8299 130.124 31.1243 129.921 30.3706C129.717 29.6169 129.666 28.8304 129.769 28.0566C129.873 27.2829 130.13 26.5375 130.524 25.8639C130.919 25.1903 131.443 24.6019 132.067 24.1331C132.692 23.6643 133.403 23.3244 134.16 23.1331C134.406 23.0667 134.637 22.9523 134.84 22.7965C135.042 22.6407 135.212 22.4465 135.339 22.2251C135.467 22.0037 135.549 21.7594 135.582 21.5061C135.615 21.2528 135.598 20.9955 135.531 20.7489L133.725 14.0597C133.658 13.8131 133.544 13.582 133.388 13.3796C133.232 13.1772 133.038 13.0074 132.817 12.8801C132.595 12.7527 132.351 12.6702 132.098 12.6373C131.844 12.6044 131.587 12.6217 131.341 12.6883C130.201 12.9966 129.011 13.0773 127.84 12.9257C126.669 12.7742 125.539 12.3934 124.515 11.8052C123.491 11.2169 122.592 10.4326 121.872 9.49719C121.151 8.56177 120.621 7.49347 120.313 6.35335C120.247 6.10672 120.132 5.87563 119.977 5.67323C119.821 5.47082 119.627 5.30106 119.405 5.1737C119.184 5.04635 118.939 4.96388 118.686 4.93098C118.433 4.89807 118.175 4.91538 117.929 4.98193L10.0865 34.127C9.59054 34.2586 9.16713 34.5818 8.90933 35.0254C8.65423 35.4727 8.58551 36.0025 8.71797 36.5001C9.02626 37.6403 9.10694 38.8301 8.95538 40.0016C8.80383 41.173 8.42296 42.3031 7.83463 43.3274C7.2463 44.3516 6.46201 45.25 5.52649 45.9711C4.59096 46.6922 3.52258 47.2221 2.3823 47.5303C2.13566 47.5967 1.90451 47.7111 1.7021 47.8669C1.49969 48.0227 1.33 48.2169 1.20265 48.4383C1.07529 48.6598 0.992755 48.904 0.95985 49.1573C0.926944 49.4106 0.944318 49.668 1.01087 49.9146L2.81786 56.6009C2.95296 57.0978 3.27937 57.5209 3.72567 57.7778C4.17198 58.0347 4.7018 58.1044 5.19933 57.9716C6.47496 57.6228 7.83126 57.718 9.04565 58.2416C9.51516 58.4229 10.0367 58.4151 10.5006 58.2198C10.9644 58.0246 11.3346 57.6571 11.5331 57.1946C11.7316 56.7321 11.7431 56.2106 11.5651 55.7398C11.3871 55.2691 11.0336 54.8856 10.5788 54.6701L10.5964 54.6717Z" fill="#E93328" fill-opacity="0.5"/>
<path d="M119.055 111.932L106.293 111.921C105.821 111.922 105.366 112.095 105.012 112.407C104.658 112.719 104.429 113.149 104.369 113.617C104.309 114.085 104.42 114.559 104.684 114.95C104.947 115.342 105.343 115.625 105.799 115.745C105.959 115.787 106.124 115.808 106.289 115.81L119.054 115.822C119.315 115.831 119.576 115.789 119.82 115.695C120.065 115.602 120.288 115.461 120.476 115.279C120.665 115.098 120.815 114.88 120.917 114.64C121.02 114.399 121.072 114.14 121.072 113.878C121.072 113.617 121.02 113.358 120.917 113.117C120.815 112.877 120.665 112.659 120.477 112.478C120.288 112.296 120.065 112.155 119.821 112.061C119.576 111.968 119.316 111.925 119.054 111.935L119.055 111.932Z" fill="#E93328" fill-opacity="0.5"/>
<path d="M94.1037 111.918L40.9671 111.893C40.4951 111.895 40.0396 112.068 39.6857 112.38C39.3317 112.692 39.1034 113.123 39.0434 113.591C38.9834 114.059 39.0956 114.533 39.3594 114.924C39.6231 115.316 40.0202 115.598 40.4766 115.718C40.6366 115.76 40.8009 115.781 40.966 115.783L94.1006 115.804C94.3557 115.804 94.6084 115.754 94.8442 115.657C95.08 115.559 95.2943 115.416 95.4749 115.236C95.6554 115.056 95.7987 114.842 95.8965 114.606C95.9943 114.371 96.0448 114.118 96.045 113.863C96.0452 113.608 95.9952 113.355 95.8977 113.119C95.8003 112.883 95.6573 112.669 95.4771 112.489C95.2968 112.308 95.0827 112.165 94.8471 112.067C94.6115 111.969 94.3588 111.919 94.1037 111.918V111.918Z" fill="#E93328" fill-opacity="0.5"/>
</g>
<defs>
<clipPath id="clip0_357_626">
<rect width="150" height="143" fill="white"/>
</clipPath>
</defs>
</svg>
