<svg width="64" height="68" viewBox="0 0 64 68" fill="none" xmlns="http://www.w3.org/2000/svg">
<g style="mix-blend-mode:darken">
<g style="mix-blend-mode:darken">
<path d="M55.2843 59.1898C55.3099 64.1529 43.8463 67.0022 29.7814 67.0749C15.7164 67.1476 7.82375 63.3049 7.80375 59.4352C7.78385 55.5655 15.7164 52.3874 29.7813 52.3147C43.8463 52.242 55.2644 55.3201 55.2843 59.1898Z" fill="#E2DAC1"/>
</g>
</g>
<path d="M62.3315 37.9972C61.8458 40.4014 61.077 42.74 60.0412 44.9642C53.4454 49.4308 41.4725 50.9922 28.5459 48.389C7.43891 47.8078 2.98431 43.9101 0.857211 33.0441C0.664211 27.5622 1.92001 22.1249 4.49821 17.2789C10.7935 5.48975 24.2868 -1.31015 38.0642 1.46485C51.8417 4.23985 61.6235 15.7273 62.8307 29.0268C63.1012 32.0249 62.9331 35.0467 62.3315 37.9972Z" fill="white"/>
<path d="M62.085 32.7302C62.0432 34.066 61.9131 35.3977 61.6956 36.7167C61.6009 37.2989 61.4897 37.8778 61.3621 38.4535C61.2945 38.7561 61.2211 39.0575 61.1459 39.359C61.0201 39.8616 61.0975 39.4799 61.126 39.4478C61.0449 39.5302 60.9593 39.6082 60.8696 39.6812C59.4437 40.9553 57.8281 42.0277 56.1378 42.9197C51.9498 45.1289 47.2842 46.4199 42.624 47.1425C37.2654 47.9752 31.7867 48.0771 26.3994 47.5114C21.749 47.0199 17.1149 46.038 12.7447 44.3529C8.93674 42.8859 5.10344 40.88 2.27944 37.8703L2.44314 38.3114C0.914345 30.9873 2.07934 23.3017 5.82514 16.8034C8.98704 11.3199 13.9429 6.87562 19.7348 4.31642C25.7691 1.66362 32.4982 1.03622 38.9123 2.52862C44.8996 3.93962 50.3076 7.14952 54.4093 11.7264C58.823 16.6756 61.5265 22.9746 62.0123 29.5967C62.0884 30.6382 62.1082 31.6824 62.0835 32.7262C62.0724 33.2076 62.6028 33.565 63.0425 33.5304C63.5633 33.4896 63.8408 33.0459 63.8492 32.5713C64.126 20.7548 57.6744 9.59942 47.3443 3.89082C37.299 -1.65688 24.6651 -1.22338 14.9467 4.88022C10.2038 7.85912 6.29054 12.1083 3.67224 17.0555C0.639644 22.7852 -0.558555 29.4432 0.241645 35.8689C0.349845 36.7403 0.491445 37.6102 0.678245 38.4685C0.808345 39.0667 1.40024 39.5054 1.83214 39.9138C2.64834 40.6795 3.52004 41.3839 4.44014 42.0214C6.58884 43.5224 8.93465 44.7286 11.3644 45.7129C17.1524 48.0522 23.4046 49.2161 29.6264 49.5319C36.5906 49.8853 43.6719 49.251 50.3568 47.1793C53.1639 46.3095 55.8929 45.1659 58.4153 43.6539C59.4857 43.0185 60.5038 42.299 61.46 41.5021C61.9433 41.0964 62.5725 40.6676 62.785 40.0631C63.0557 39.2937 63.1868 38.4382 63.3341 37.6385C63.6348 35.9663 63.8076 34.2739 63.8509 32.5759C63.8676 32.0937 63.3296 31.7372 62.8923 31.771C62.3698 31.811 62.0993 32.2541 62.085 32.7302Z" fill="#B8A04D"/>
<path d="M56.4391 42.858C62.653 29.3271 56.7212 13.344 43.1903 7.15894C29.6593 0.973736 13.653 6.92874 7.43911 20.4597C1.22531 33.9907 7.15701 49.9737 20.688 56.1589C34.219 62.344 50.2253 56.389 56.4391 42.858Z" fill="#CCEFF4" fill-opacity="0.4"/>
<path d="M61.912 39.9103C58.2669 53.4423 45.7304 63.2502 31.0971 62.8819C16.4637 62.5136 4.47172 52.0879 1.56152 38.3903C6.98172 44.21 18.2974 48.391 31.4789 48.7233C44.6604 49.0555 56.1846 45.4491 61.912 39.9103Z" fill="#E5D036"/>
<path d="M61.0395 39.7594C58.2415 50.0293 49.9667 58.2146 39.6972 60.9902C29.3646 63.7821 18.1088 60.6954 10.5611 53.1787C6.48806 49.103 3.67176 43.9441 2.44556 38.3132L0.841257 38.91C6.14156 44.5561 14.1657 47.2701 21.6084 48.6162C31.2865 50.3664 41.7031 50.0305 51.0899 46.9445C55.2853 45.5653 59.3854 43.5516 62.5972 40.471C62.9454 40.137 62.8088 39.5055 62.4741 39.2257C62.072 38.8889 61.5702 39.0215 61.2268 39.3505C58.5936 41.8766 55.2085 43.5767 51.8125 44.8206C47.4691 46.4125 42.8834 47.2812 38.2819 47.6538C29.3505 48.3774 19.9379 47.3794 11.6292 43.9073C8.22106 42.4829 4.83076 40.5902 2.28186 37.8721C2.01006 37.5825 1.65466 37.412 1.25356 37.5612C0.921257 37.6848 0.598657 38.0946 0.677557 38.4689C2.99856 49.2454 10.8355 58.337 21.2926 61.9774C32.0745 65.7287 44.3773 63.4103 52.9658 55.8363C57.7119 51.649 61.1259 46.1637 62.7841 40.061C63.0846 38.9608 61.3365 38.6677 61.0395 39.7594Z" fill="#B8A04D"/>
<path d="M22.4403 18.7332C23.607 16.1927 22.4933 13.1918 19.9528 12.0306C17.4124 10.8693 14.4071 11.9874 13.2405 14.5278C12.0738 17.0683 13.1875 20.0691 15.728 21.2304C18.2685 22.3917 21.2737 21.2736 22.4403 18.7332Z" fill="white"/>
</svg>
