<svg width="55" height="55" viewBox="0 0 55 55" fill="none" xmlns="http://www.w3.org/2000/svg">
<g clip-path="url(#clip0_616_956)">
<path d="M53.3004 27.5667C53.5487 34.1766 51.849 42.2002 46.8647 46.938C41.8803 51.6757 34.1077 53.6243 27.5001 53.376C20.8733 53.6243 12.8525 51.9241 8.11637 46.938C3.38026 41.9519 1.43235 34.1766 1.69971 27.5667C1.43235 20.9376 3.132 12.914 8.11637 8.17625C13.1007 3.43849 20.8733 1.4899 27.5001 1.73825C34.1077 1.4899 42.1285 3.19014 46.8647 8.17625C51.6008 13.1624 53.5487 20.8803 53.3004 27.5667Z" fill="#EA9C3B"/>
<path d="M28.7798 55H26.2208C22.4013 55 12.8527 54.3314 6.91347 48.0271C2.31104 43.6523 -0.286183 35.9535 0.0193725 27.5096C-0.286183 19.0465 2.31104 11.3477 6.97076 6.9156C12.8909 0.668636 22.4013 0 26.2208 0H28.7798C32.5992 0 42.1478 0.668634 48.068 6.97291C52.6895 11.3477 55.2867 19.0465 54.9621 27.5096C55.2867 35.9535 52.6895 43.6523 48.0107 48.0844C42.0905 54.3123 32.5801 55 28.7798 55ZM27.5003 51.6377H28.7225C35.7503 51.6377 42.0905 49.4026 45.6044 45.6964C50.3596 41.1688 51.7919 33.3553 51.5819 27.5287V27.3949C51.7919 21.5683 50.3596 13.7548 45.6617 9.28447C42.0714 5.4637 35.7503 3.28587 28.7225 3.28587H26.2208C19.1739 3.28587 12.8527 5.52101 9.3388 9.22716C4.56449 13.7548 3.13222 21.5683 3.36139 27.3949V27.5669C3.13222 33.298 4.5645 41.207 9.26242 45.6773C12.8718 49.4981 19.1739 51.6759 26.2208 51.6759H27.4239L27.5003 51.6377Z" fill="#BB7E31"/>
<path d="M45.8144 9.22725C42.205 5.40648 35.8457 3.19043 28.7797 3.19043H26.2207C19.1356 3.19043 12.8526 5.42558 9.22411 9.16994C4.43071 13.7358 2.97933 21.5874 3.2085 27.4332V27.5669C2.97933 33.4127 4.43071 41.2644 9.16682 45.7729C12.7953 49.5937 19.1356 51.8097 26.2207 51.8097H28.7797C35.8457 51.8097 42.1477 49.5746 45.7571 45.8302C50.5505 41.2644 52.0019 33.4127 51.7727 27.5669V27.4332C52.0019 21.5874 50.5505 13.7358 45.8144 9.22725Z" fill="#EA9C3B"/>
<path d="M45.8144 9.22725C42.205 5.40648 35.8457 3.19043 28.7797 3.19043H26.2207C19.1356 3.19043 12.8526 5.42558 9.22411 9.16994C4.43071 13.7358 2.97933 21.5874 3.2085 27.4332V27.5669C2.97933 33.4127 4.43071 41.2644 9.16682 45.7729C12.7953 49.5937 19.1356 51.8097 26.2207 51.8097H28.7797C35.8457 51.8097 42.1477 49.5746 45.7571 45.8302C50.5505 41.2644 52.0019 33.4127 51.7727 27.5669V27.4332C52.0019 21.5874 50.5505 13.7358 45.8144 9.22725Z" fill="#EA9C3B"/>
<path opacity="0.4" d="M45.8144 9.22725C42.205 5.40648 35.8456 3.19043 28.7797 3.19043H26.2206C19.1356 3.19043 12.8526 5.42558 9.2241 9.16994C4.43069 13.7358 2.97932 21.5874 3.20848 27.4332V27.5669C10.2801 32.681 18.7837 35.4338 27.5097 35.4338C36.2356 35.4338 44.7393 32.681 51.8109 27.5669V27.395C52.0019 21.5874 50.5505 13.7358 45.8144 9.22725Z" fill="white"/>
<g opacity="0.96">
<path d="M31.3575 7.79419C31.4665 7.24149 31.789 6.75411 32.255 6.43782C32.8711 6.09133 33.5518 5.87522 34.2548 5.80292C34.9578 5.73062 35.6682 5.80367 36.3419 6.01753C37.7294 6.25867 39.039 6.82856 40.1613 7.67957C40.4962 7.98921 40.7524 8.37437 40.9085 8.80301C41.0646 9.23165 41.1162 9.69137 41.0589 10.144C40.9899 10.5739 40.7763 10.9673 40.4533 11.2592C40.1303 11.551 39.7174 11.7237 39.2828 11.7487C38.6799 11.6873 38.0954 11.5054 37.5641 11.2138C36.6288 10.7527 35.6414 10.4063 34.6231 10.1822C33.7088 10.1387 32.8182 9.87663 32.0259 9.41802C31.7688 9.2416 31.5686 8.99407 31.4499 8.70568C31.3312 8.41729 31.2991 8.10055 31.3575 7.79419Z" fill="#FEE1BB"/>
<path d="M46.9985 15.4931C46.6102 14.2597 45.9586 13.1255 45.0887 12.169L44.7068 11.7106C44.4649 11.3188 44.1387 10.9859 43.7519 10.7363C43.6506 10.6673 43.5308 10.6304 43.4082 10.6304C43.2856 10.6304 43.1658 10.6673 43.0644 10.7363C42.9117 10.9464 43.0644 11.2712 43.0644 11.5004C43.0395 11.8858 42.8984 12.2545 42.6598 12.558C42.4211 12.8616 42.0961 13.0856 41.7276 13.2007C41.4794 13.2007 41.002 13.2007 40.9256 13.5445C40.8492 13.8884 41.2502 14.0221 41.4412 14.1749C41.7874 14.4071 42.1019 14.6832 42.3769 14.9964C42.6345 15.3272 42.8645 15.6786 43.0644 16.0471C43.3634 16.7701 43.8126 17.4213 44.3822 17.9575C44.7052 18.187 45.101 18.2904 45.495 18.2482C45.889 18.206 46.2539 18.021 46.521 17.7283C46.767 17.4175 46.938 17.0541 47.0208 16.6665C47.1036 16.2788 47.096 15.8773 46.9985 15.4931Z" fill="#FEE1BB"/>
</g>
</g>
<path d="M31.9092 30.4617C35.0316 26.1612 34.6572 20.0931 30.7826 16.2179C26.4916 11.9274 19.5091 11.9274 15.2187 16.2179C10.9271 20.5095 10.9271 27.4909 15.2187 31.7825C19.0933 35.6572 25.1613 36.0315 29.4612 32.9097L30.3119 33.7593L32.7594 31.3118L31.9092 30.4617ZM28.6486 29.6491C25.5296 32.7676 20.4718 32.7682 17.3522 29.6491C14.2326 26.5294 14.2326 21.4711 17.3522 18.352C20.4718 15.2329 25.5296 15.2329 28.6486 18.352C31.7682 21.4711 31.7682 26.5294 28.6486 29.6491Z" fill="white"/>
<path fill-rule="evenodd" clip-rule="evenodd" d="M30.3119 33.7592L29.4612 32.9096C25.1613 36.0315 19.0933 35.6571 15.2187 31.7824C10.9271 27.4908 10.9271 20.5094 15.2187 16.2178C19.5091 11.9273 26.4916 11.9273 30.7826 16.2178C34.6572 20.0931 35.0316 26.1611 31.9092 30.4616L32.7594 31.3117L30.3119 33.7592ZM34.4481 30.172C37.1007 25.2465 36.3539 18.9614 32.197 14.8037C27.125 9.73227 18.876 9.73196 13.8045 14.8036C8.73183 19.8762 8.73185 28.124 13.8045 33.1966C17.9618 37.354 24.2474 38.1006 29.1726 35.4479L30.3129 36.5867L35.5879 31.3117L34.4481 30.172ZM27.2344 19.7661C24.8965 17.4282 21.105 17.428 18.7663 19.7662C16.428 22.1041 16.4278 25.896 18.7663 28.2347M27.2344 28.2348C24.8963 30.5723 21.1047 30.5726 18.7663 28.2347L27.2344 28.2348ZM27.2344 19.7661C29.5726 22.104 29.5728 25.8961 27.2344 28.2348L27.2344 19.7661ZM17.3522 29.649C20.4718 32.7681 25.5296 32.7675 28.6486 29.649C31.7682 26.5294 31.7682 21.471 28.6486 18.3519C25.5296 15.2328 20.4718 15.2328 17.3522 18.3519C14.2326 21.471 14.2326 26.5294 17.3522 29.649Z" fill="#BB7E31"/>
<path d="M42.3684 39.5243L33.9304 32L31 34.9253L38.5369 43.3492C39.3032 44.339 40.6833 44.1935 41.9233 42.9556C43.1628 41.7183 43.3605 40.2893 42.3684 39.5243Z" fill="white"/>
<path fill-rule="evenodd" clip-rule="evenodd" d="M33.9306 31.9997L42.3686 39.524C43.3607 40.289 43.1629 41.718 41.9235 42.9553C40.6835 44.1932 39.3034 44.3386 38.537 43.3489L31.0002 34.9249L33.9306 31.9997ZM37.0073 44.6386L28.2471 34.8473L33.8532 29.251L43.6558 37.9922C44.7154 38.8461 45.128 40.0968 44.9656 41.3248C44.8113 42.4917 44.1672 43.5414 43.3365 44.3707M37.0073 44.6386C37.8306 45.6571 39.0357 46.1152 40.2774 45.9748C41.4548 45.8416 42.5055 45.2003 43.3365 44.3707" fill="#BB7E31"/>
<circle cx="23" cy="24" r="6" fill="#F2C489"/>
<path d="M19.415 26.9585L19.4157 26.9596C19.6762 27.3839 20.2329 27.5212 20.6612 27.2589L20.6616 27.2587C21.0866 26.9978 21.2222 26.4411 20.9613 26.0141C20.9588 26.01 20.9562 26.0059 20.9536 26.0018C20.0089 24.4456 20.1073 22.4228 21.2449 20.9627C21.5533 20.5683 21.4827 19.9975 21.0863 19.6906L20.7802 20.0859L21.0883 19.6922C20.6938 19.3835 20.123 19.4541 19.816 19.8504L20.2112 20.1566L19.8167 19.8495C18.2066 21.9179 18.0737 24.7614 19.415 26.9585Z" fill="white" stroke="#BB7E31" stroke-linejoin="round"/>
<defs>
<clipPath id="clip0_616_956">
<rect width="55" height="55" fill="white"/>
</clipPath>
</defs>
</svg>
