<svg width="64" height="69" viewBox="0 0 64 69" fill="none" xmlns="http://www.w3.org/2000/svg">
<g style="mix-blend-mode:darken">
<path d="M55.5167 60.0068C55.5423 64.9699 44.0787 67.8192 30.0137 67.8918C15.9488 67.9645 8.05607 64.1219 8.03612 60.2521C8.01617 56.3824 15.9488 53.2043 30.0137 53.1316C44.0787 53.0589 55.4968 56.137 55.5167 60.0068Z" fill="#E2DAC1"/>
</g>
<path d="M62.3305 37.998C61.8448 40.4021 61.076 42.7407 60.0402 44.965C53.4444 49.4315 41.4715 50.993 28.545 48.3898C7.43793 47.8086 2.98343 43.9109 0.856234 33.0448C0.663234 27.563 1.91903 22.1256 4.49724 17.2797C10.7925 5.49036 24.2858 -1.30954 38.0632 1.46546C51.8407 4.24046 61.6225 15.728 62.8297 29.0275C63.1003 32.0256 62.9321 35.0475 62.3305 37.998Z" fill="white"/>
<path d="M62.085 32.7302C62.0432 34.066 61.9131 35.3977 61.6956 36.7167C61.6009 37.2989 61.4897 37.8778 61.3621 38.4536C61.2945 38.7561 61.2211 39.0575 61.1459 39.359C61.0201 39.8616 61.0975 39.4799 61.126 39.4478C61.0449 39.5302 60.9593 39.6082 60.8696 39.6812C59.4437 40.9553 57.8281 42.0277 56.1378 42.9197C51.9498 45.1289 47.2842 46.4199 42.624 47.1425C37.2654 47.9752 31.7867 48.0771 26.3994 47.5114C21.749 47.0199 17.1149 46.038 12.7447 44.3529C8.93674 42.8859 5.10344 40.88 2.27944 37.8703L2.44314 38.3114C0.914345 30.9873 2.07934 23.3017 5.82514 16.8034C8.98694 11.32 13.9429 6.87558 19.7348 4.31638C25.7691 1.66358 32.4982 1.03618 38.9123 2.52858C44.8996 3.93958 50.3076 7.14948 54.4093 11.7264C58.823 16.6756 61.5265 22.9746 62.0123 29.5968C62.0884 30.6382 62.1082 31.6824 62.0835 32.7262C62.0724 33.2076 62.6028 33.565 63.0425 33.5304C63.5633 33.4896 63.8408 33.0459 63.8492 32.5713C64.126 20.7548 57.6744 9.59938 47.3443 3.89078C37.299 -1.65692 24.6651 -1.22331 14.9467 4.88019C10.2038 7.85909 6.29054 12.1083 3.67224 17.0555C0.639644 22.7852 -0.558555 29.4433 0.241645 35.869C0.349845 36.7403 0.491445 37.6102 0.678245 38.4686C0.808345 39.0667 1.40024 39.5055 1.83214 39.9138C2.64834 40.6795 3.52004 41.3839 4.44014 42.0214C6.58884 43.5224 8.93465 44.7286 11.3644 45.7129C17.1524 48.0523 23.4046 49.2162 29.6264 49.5319C36.5906 49.8853 43.6719 49.251 50.3568 47.1794C53.1639 46.3095 55.8929 45.166 58.4153 43.6539C59.4857 43.0185 60.5038 42.299 61.46 41.5021C61.9433 41.0964 62.5725 40.6676 62.785 40.0631C63.0557 39.2937 63.1868 38.4382 63.3341 37.6385C63.6348 35.9663 63.8076 34.2739 63.8509 32.5759C63.8676 32.0937 63.3296 31.7372 62.8923 31.771C62.3698 31.811 62.0993 32.2541 62.085 32.7302Z" fill="#415BB8"/>
<path d="M56.4381 42.8585C62.652 29.3276 56.7202 13.3445 43.1893 7.15936C29.6583 0.974163 13.652 6.92916 7.43813 20.4602C1.22433 33.9912 7.15603 49.9742 20.687 56.1594C34.218 62.3445 50.2243 56.3895 56.4381 42.8585Z" fill="#CCEFF4" fill-opacity="0.4"/>
<path d="M61.912 39.9111C58.2668 53.4431 45.7304 63.2509 31.097 62.8825C16.4637 62.5142 4.47172 52.0887 1.56152 38.3911C6.98172 44.2107 18.2973 48.3917 31.4789 48.7239C44.6604 49.0561 56.1846 45.4499 61.912 39.9111Z" fill="#4B9BE5"/>
<path d="M61.0389 39.7599C58.241 50.0298 49.9662 58.2151 39.6966 60.9907C29.3641 63.7826 18.1083 60.6959 10.5606 53.1792C6.48757 49.1035 3.67127 43.9446 2.44507 38.3137L0.840769 38.9105C6.14107 44.5566 14.1652 47.2706 21.6079 48.6167C31.286 50.3669 41.7026 50.031 51.0894 46.945C55.2848 45.5658 59.3849 43.5521 62.5967 40.4715C62.9449 40.1376 62.8083 39.506 62.4736 39.2262C62.0715 38.8894 61.5697 39.022 61.2263 39.351C58.593 41.8771 55.208 43.5772 51.812 44.8211C47.4686 46.413 42.8829 47.2817 38.2814 47.6543C29.3499 48.3779 19.9374 47.3799 11.6287 43.9078C8.22057 42.4834 4.83027 40.5907 2.28137 37.8726C2.00957 37.583 1.65417 37.4125 1.25307 37.5617C0.920769 37.6853 0.598169 38.0951 0.677069 38.4694C2.99807 49.2459 10.835 58.3375 21.2921 61.9779C32.074 65.7292 44.3768 63.4108 52.9652 55.8368C57.7114 51.6495 61.1254 46.1642 62.7836 40.0615C63.0841 38.9613 61.336 38.6682 61.0389 39.7599Z" fill="#415BB8"/>
<path d="M22.4403 18.7335C23.607 16.193 22.4932 13.1921 19.9527 12.0309C17.4123 10.8696 14.4071 11.9877 13.2405 14.5281C12.0738 17.0686 13.1874 20.0694 15.7279 21.2307C18.2684 22.392 21.2737 21.2739 22.4403 18.7335Z" fill="white"/>
</svg>
