<svg width="326" height="381" viewBox="0 0 329 382" fill="none" xmlns="http://www.w3.org/2000/svg">
<line y1="25.9666" x2="329" y2="25.9666" stroke="#20BDBD" stroke-opacity="0.1"/>
<line x1="32.4023" y1="2.19221e-08" x2="32.4023" y2="382" stroke="#20BDBD" stroke-opacity="0.1"/>
<line x1="67.2969" y1="2.19221e-08" x2="67.2969" y2="382" stroke="#20BDBD" stroke-opacity="0.1"/>
<line x1="102.191" y1="2.19221e-08" x2="102.191" y2="382" stroke="#20BDBD" stroke-opacity="0.1"/>
<line x1="137.085" y1="2.19221e-08" x2="137.085" y2="382" stroke="#20BDBD" stroke-opacity="0.1"/>
<line x1="171.979" y1="2.19221e-08" x2="171.979" y2="382" stroke="#20BDBD" stroke-opacity="0.1"/>
<line x1="206.873" y1="2.19221e-08" x2="206.873" y2="382" stroke="#20BDBD" stroke-opacity="0.1"/>
<line x1="241.767" y1="2.19221e-08" x2="241.767" y2="382" stroke="#20BDBD" stroke-opacity="0.1"/>
<line x1="276.66" y1="2.19221e-08" x2="276.66" y2="382" stroke="#20BDBD" stroke-opacity="0.1"/>
<line x1="311.555" y1="2.19221e-08" x2="311.555" y2="382" stroke="#20BDBD" stroke-opacity="0.1"/>
<line y1="52.4331" x2="329" y2="52.4331" stroke="#20BDBD" stroke-opacity="0.1"/>
<line y1="78.8994" x2="329" y2="78.8994" stroke="#20BDBD" stroke-opacity="0.1"/>
<line y1="105.366" x2="329" y2="105.366" stroke="#20BDBD" stroke-opacity="0.1"/>
<line y1="131.833" x2="329" y2="131.833" stroke="#20BDBD" stroke-opacity="0.1"/>
<line y1="158.299" x2="329" y2="158.299" stroke="#20BDBD" stroke-opacity="0.1"/>
<line y1="184.766" x2="329" y2="184.766" stroke="#20BDBD" stroke-opacity="0.1"/>
<line y1="211.232" x2="329" y2="211.232" stroke="#20BDBD" stroke-opacity="0.1"/>
<line y1="237.699" x2="329" y2="237.699" stroke="#20BDBD" stroke-opacity="0.1"/>
<line y1="264.165" x2="329" y2="264.165" stroke="#20BDBD" stroke-opacity="0.1"/>
<line y1="290.632" x2="329" y2="290.632" stroke="#20BDBD" stroke-opacity="0.1"/>
<line y1="317.098" x2="329" y2="317.098" stroke="#20BDBD" stroke-opacity="0.1"/>
<line y1="343.565" x2="329" y2="343.565" stroke="#20BDBD" stroke-opacity="0.1"/>
</svg>
