<svg width="242" height="93" viewBox="0 0 242 93" fill="none" xmlns="http://www.w3.org/2000/svg">
<path d="M3.12549 89.5V6.5V3L33.5 2.5L43.5 7.5L50.9004 3L52.5 6L53 2.5L66.5277 3H239.768L238.428 91L67.4207 89.5L62.5 90L56.5 91L43 85L35 91L3.12549 89.5Z" fill="#FFF9F8" stroke="#FFF9F8" stroke-width="0.3"/>
<path d="M0.0171967 2.19841C0.0377399 1.62089 0.345585 1.07133 0.877625 0.6625C1.40966 0.253674 2.1255 0.0166285 2.87817 0L36.0565 0C36.7932 0.000236613 37.5014 0.218152 38.0342 0.608505C38.5669 0.998859 38.8833 1.53165 38.9176 2.09625C38.9219 2.15773 38.9219 2.21933 38.9176 2.28081C38.9401 3.25919 39.4622 4.19169 40.3716 4.87774C41.281 5.56378 42.5051 5.94855 43.7804 5.94926C45.0543 5.93843 46.2728 5.54851 47.1792 4.86169C48.0856 4.17486 48.6089 3.24481 48.6389 2.26765V2.19841C48.6595 1.62089 48.9674 1.07133 49.4995 0.6625C50.0315 0.253674 50.7473 0.0166285 51.5 0L239.135 0C239.895 0 240.623 0.231625 241.161 0.643912C241.698 1.0562 242 1.61535 242 2.19841V90.8049C241.999 91.3874 241.697 91.9457 241.159 92.3573C240.622 92.7689 239.894 93 239.135 93H51.5001C51.1237 93 50.7509 92.943 50.4032 92.8323C50.0555 92.7216 49.7398 92.5593 49.474 92.3548C49.2082 92.1502 48.9976 91.9074 48.8543 91.6404C48.7111 91.3733 48.6379 91.0871 48.639 90.7983V90.7225C48.621 89.7433 48.101 88.8089 47.1917 88.1217C46.2824 87.4345 45.0568 87.0498 43.7804 87.0507C42.5084 87.0615 41.2912 87.4499 40.3845 88.1346C39.4778 88.8192 38.952 89.7468 38.9177 90.7225C38.9321 91.0176 38.8688 91.3119 38.7315 91.5879C38.5942 91.8638 38.3857 92.1156 38.1186 92.3282C37.8515 92.5409 37.5312 92.71 37.1769 92.8254C36.8226 92.9408 36.4415 93.0002 36.0566 93H2.86526C2.10534 93 1.37658 92.7684 0.839233 92.3561C0.301885 91.9438 0 91.3847 0 90.8016L0.0171967 2.19841ZM33.5737 88.6064C34.1935 86.8948 35.527 85.3862 37.3703 84.3112C39.2136 83.2363 41.4651 82.6543 43.7804 82.6543C46.0957 82.6543 48.3474 83.2363 50.1907 84.3112C52.034 85.3862 53.3675 86.8948 53.9873 88.6064H236.261V4.39686H53.9873C53.3708 6.10804 52.0398 7.61689 50.1986 8.69208C48.3573 9.76728 46.1071 10.3495 43.7932 10.3495C41.4793 10.3495 39.2293 9.76728 37.388 8.69208C35.5467 7.61689 34.2158 6.10804 33.5993 4.39686H5.74344V88.6097L33.5737 88.6064Z" fill="#F794A9"/>
<path d="M45.4095 67.0597C45.4095 68.2773 44.4224 69.2644 43.2047 69.2644V69.2644C41.9871 69.2644 41 68.2773 41 67.0597V63.3116C41 62.0939 41.9871 61.1068 43.2047 61.1068V61.1068C44.4224 61.1068 45.4095 62.0939 45.4095 63.3116V67.0597ZM45.4095 54.3603C45.4095 55.578 44.4224 56.5651 43.2047 56.5651V56.5651C41.9871 56.5651 41 55.578 41 54.3603V50.6034C41 49.3858 41.9871 48.3987 43.2047 48.3987V48.3987C44.4224 48.3987 45.4095 49.3858 45.4095 50.6034V54.3603ZM45.4095 41.661C45.4095 42.8786 44.4224 43.8657 43.2047 43.8657V43.8657C41.9871 43.8657 41 42.8786 41 41.661V37.9041C41 36.6864 41.9871 35.6993 43.2047 35.6993V35.6993C44.4224 35.6993 45.4095 36.6864 45.4095 37.9041V41.661ZM45.4095 28.9616C45.4095 30.1792 44.4224 31.1663 43.2047 31.1663V31.1663C41.9871 31.1663 41 30.1792 41 28.9616V25.2047C41 23.9871 41.9871 23 43.2047 23V23C44.4224 23 45.4095 23.9871 45.4095 25.2047V28.9616Z" fill="#F794A9"/>
</svg>
