<svg width="156" height="51" viewBox="0 0 156 51" fill="none" xmlns="http://www.w3.org/2000/svg">
<path d="M28.8236 46.9451C28.9829 47.539 29.0664 48.1092 29.1048 48.6186C30.0252 47.227 31.5563 45.5203 34.2849 44.0755C38.4071 41.8927 45.2064 40.3361 56.6581 41.262C59.8464 41.5198 63.8577 41.9656 68.4272 42.4734C80.2726 43.7899 95.8694 45.5233 110.606 45.479C120.81 45.4484 130.549 44.5633 138.296 42.113C146.046 39.6615 151.708 35.6758 153.932 29.508L153.933 29.5079C156.194 23.2427 155.686 18.348 153.366 14.5263C151.032 10.6815 146.813 7.83736 141.489 5.8027C130.836 1.73219 116.002 0.995473 103.963 1.75163C85.0974 2.93655 65.3989 2.07103 49.7105 1.38172C45.308 1.18828 41.2213 1.00872 37.5574 0.892238L37.5569 0.892219C29.1912 0.616372 19.5546 1.19275 12.2125 3.97292C8.54585 5.36135 5.48735 7.28614 3.436 9.89418C1.39395 12.4904 0.320435 15.8004 0.67955 20.0306L0.679596 20.0313C1.39336 28.5675 5.35838 33.4256 9.95538 36.4106C13.8399 38.933 18.1699 40.12 21.4715 41.025C22.1102 41.2001 22.7105 41.3647 23.2616 41.5263C26.8064 42.5659 28.2707 44.8844 28.8236 46.9451Z" fill="white" stroke="#F05E54"/>
</svg>
