<svg id="レイヤー_1" data-name="レイヤー 1" xmlns="http://www.w3.org/2000/svg" xmlns:xlink="http://www.w3.org/1999/xlink" viewBox="0 0 356.02 98.7"><defs><style>.cls-1{fill:none;}.cls-2{fill:#e38c8c;}.cls-3{fill:#579f8e;}.cls-4{fill:#67c0ab;}.cls-5{clip-path:url(#clip-path);}.cls-6{fill:#8ad7b2;}.cls-7{fill:#dbffe1;}</style><clipPath id="clip-path" transform="translate(-7.38 1.87)"><path class="cls-1" d="M17.78,52a35,35,0,0,1,35-35h261a35,35,0,0,1,0,70h-261A35,35,0,0,1,17.78,52Z"/></clipPath></defs><path class="cls-2" d="M17.78,61.83a35,35,0,0,1,35-35h261a35,35,0,0,1,0,70h-261A35,35,0,0,1,17.78,61.83Z" transform="translate(-7.38 1.87)"/><path class="cls-3" d="M17.78,56.83a35,35,0,0,1,35-35h261a35,35,0,0,1,0,70h-261A35,35,0,0,1,17.78,56.83Z" transform="translate(-7.38 1.87)"/><path class="cls-4" d="M17.78,52a35,35,0,0,1,35-35h261a35,35,0,0,1,0,70h-261A35,35,0,0,1,17.78,52Z" transform="translate(-7.38 1.87)"/><g class="cls-5"><path class="cls-6" d="M187.58,52c-113.1-.4-167.9-13.7-180.2-22.2l37.4-18.5,228.9-13.2c36.6,3.8,105.4,15.5,86.5,32.1S237.18,51.73,187.58,52Z" transform="translate(-7.38 1.87)"/></g><path class="cls-7" d="M67,31.73c0,3.7-4.7,6.6-10.4,6.6s-10.4-3-10.4-6.6,4.7-6.6,10.4-6.6S67,28,67,31.73Z" transform="translate(-7.38 1.87)"/><path class="cls-7" d="M50.88,48.73c0,1.6-1.9,2.8-4.3,2.8s-4.3-1.3-4.3-2.8,1.9-2.8,4.3-2.8S50.88,47.13,50.88,48.73Z" transform="translate(-7.38 1.87)"/></svg>