<svg width="90" height="32" viewBox="0 0 90 32" fill="none" xmlns="http://www.w3.org/2000/svg">
<g filter="url(#filter0_d_1301_2)">
<path d="M79.5753 2.5H17.9247C12.1673 2.5 7.5 8.46811 7.5 15.8301V15.8365C7.5 23.1986 12.1673 29.1667 17.9247 29.1667H79.5753C85.3327 29.1667 90 23.1986 90 15.8365V15.8301C90 8.46811 85.3327 2.5 79.5753 2.5Z" fill="white"/>
</g>
<g clip-path="url(#clip0_1301_2)">
<path d="M10.7569 30.8333C8.95127 30.8622 7.18017 30.3451 5.68282 29.3519L4.06377 28.2591C1.43768 26.4909 -0.0032833 23.4069 0.00966908 19.5679C0.00966908 15.9041 1.36966 11.9536 3.80795 8.4459C7.4249 3.23692 12.703 1.8444e-05 17.5861 1.8444e-05C19.3914 -0.0299996 21.1625 0.486006 22.6601 1.47829L24.2792 2.57423C26.9053 4.33923 28.3462 7.42639 28.3333 11.2622C28.3333 14.9292 26.97 18.8766 24.535 22.3843C20.918 27.5965 15.6367 30.8333 10.7569 30.8333ZM17.5763 2.41493C13.5579 2.41493 8.94356 5.31729 5.82528 9.80944C3.66223 12.9221 2.46736 16.3916 2.45765 19.5775C2.45765 22.5882 3.50682 24.9617 5.43996 26.2679L7.05901 27.3639C8.14918 28.08 9.43665 28.4492 10.7472 28.4216C14.7656 28.4216 19.3799 25.5192 22.4982 21.0303C24.6613 17.9176 25.8561 14.4482 25.8659 11.2622C25.8659 8.25154 24.8167 5.87485 22.8836 4.57181L21.2645 3.47583C20.174 2.76007 18.887 2.38987 17.5763 2.41493V2.41493Z" fill="white"/>
<path d="M4.74713 27.2625L6.37589 28.3552L6.39208 26.6125L4.74713 27.2625Z" fill="#E87507"/>
<path d="M21.9543 2.47583L23.5863 3.57179L21.6078 4.0656L21.9543 2.47583Z" fill="#E87507"/>
<path d="M23.5256 21.7269C28.2781 14.8825 28.3074 6.76408 23.591 3.59385C18.8746 0.423613 11.1985 3.40211 6.44596 10.2465C1.69344 17.0909 1.66419 25.2094 6.38061 28.3796C11.097 31.5499 18.7731 28.5713 23.5256 21.7269Z" fill="#E87507"/>
<path d="M21.8926 20.6307C26.6451 13.7863 26.6743 5.66786 21.9579 2.49763C17.2415 -0.6726 9.56542 2.30591 4.8129 9.15032C0.0603788 15.9947 0.0311 24.1132 4.74752 27.2834C9.46394 30.4536 17.14 27.4752 21.8926 20.6307Z" fill="url(#paint0_linear_1301_2)"/>
<path d="M18.3438 18.2236C15.7145 22.0148 11.5438 23.7734 8.77199 22.3653C8.61672 22.2872 8.4664 22.2 8.32189 22.104C5.56627 20.253 5.58246 15.5092 8.36075 11.5076C11.139 7.50613 15.6238 5.77297 18.3988 7.61761C18.5418 7.71493 18.6781 7.82136 18.8068 7.93621C21.1286 9.98475 20.9667 14.4451 18.3438 18.2236Z" fill="#E87507"/>
<path d="M18.3438 18.2238C15.7145 22.015 11.5438 23.7736 8.77201 22.3655C6.43735 20.3328 6.58954 15.8757 9.22211 12.0877C11.8547 8.29961 16.0221 6.53461 18.7907 7.94597C21.1286 9.98496 20.9667 14.4453 18.3438 18.2238Z" fill="url(#paint1_linear_1301_2)"/>
<path d="M13.4641 26.6826C13.1831 26.5008 12.9429 26.2645 12.7582 25.9881C12.0005 24.8443 12.5606 23.4393 12.6351 23.2736C11.3755 23.7189 9.99409 23.6974 8.7494 23.2131C8.94436 23.7068 9.05382 24.2291 9.07321 24.7583C9.11049 25.74 8.8501 26.7103 8.3252 27.546C10.0868 27.8821 11.9126 27.5752 13.4608 26.6826H13.4641Z" fill="#FBDD8D"/>
<path d="M16.1387 6.02185C15.6586 6.0267 15.1798 6.07144 14.7074 6.15564C13.7783 6.3214 12.8826 6.63452 12.0554 7.08275C12.4398 6.44885 12.5648 5.69489 12.4052 4.97367C12.2827 4.48443 12.0288 4.03655 11.6701 3.67698C12.1945 3.3125 12.7567 3.0039 13.3474 2.75628C14.2336 2.38571 15.1732 2.15351 16.1322 2.06812C15.9067 2.5303 15.7632 3.02703 15.708 3.53682C15.6172 4.38834 15.7662 5.24806 16.1387 6.02185V6.02185Z" fill="#FBDD8D"/>
</g>
<defs>
<filter id="filter0_d_1301_2" x="7.5" y="2.5" width="82.5" height="28.7501" filterUnits="userSpaceOnUse" color-interpolation-filters="sRGB">
<feFlood flood-opacity="0" result="BackgroundImageFix"/>
<feColorMatrix in="SourceAlpha" type="matrix" values="0 0 0 0 0 0 0 0 0 0 0 0 0 0 0 0 0 0 127 0" result="hardAlpha"/>
<feOffset dy="2.08333"/>
<feComposite in2="hardAlpha" operator="out"/>
<feColorMatrix type="matrix" values="0 0 0 0 0.921569 0 0 0 0 0.341176 0 0 0 0 0.341176 0 0 0 1 0"/>
<feBlend mode="normal" in2="BackgroundImageFix" result="effect1_dropShadow_1301_2"/>
<feBlend mode="normal" in="SourceGraphic" in2="effect1_dropShadow_1301_2" result="shape"/>
</filter>
<linearGradient id="paint0_linear_1301_2" x1="4.83273" y1="9.14436" x2="21.7348" y2="20.8806" gradientUnits="userSpaceOnUse">
<stop stop-color="#FAC521"/>
<stop offset="1" stop-color="#FFA82E"/>
</linearGradient>
<linearGradient id="paint1_linear_1301_2" x1="12.2372" y1="21.8034" x2="19.4555" y2="10.9297" gradientUnits="userSpaceOnUse">
<stop stop-color="#FFC940"/>
<stop offset="1" stop-color="#F7A025"/>
</linearGradient>
<clipPath id="clip0_1301_2">
<rect width="28.3333" height="30.8333" fill="white"/>
</clipPath>
</defs>
</svg>
