<svg width="375" height="430" viewBox="0 0 375 430" fill="none" xmlns="http://www.w3.org/2000/svg">
<path d="M302.719 369.75L302.411 377.5L292.821 377.273L293.128 369.523L302.719 369.75Z" fill="#F482AE"/>
<path d="M324.628 369.58L334.619 370.487L333.522 377.443L323.517 376.536L324.628 369.58Z" fill="#20BDBD"/>
<path d="M84.1071 372.925L92.4268 377.232L87.2236 382.984L78.904 378.691L84.1071 372.925Z" fill="#20BDBD"/>
<path d="M103.528 17.5255L99.8495 26.0545L92.7069 24.9777L96.3719 16.4629L103.528 17.5255Z" fill="#FCCD1F"/>
<path d="M102.484 60.9353L93.924 65.3415L89.189 59.3769L97.7494 54.9707L102.484 60.9353Z" fill="#F482AE"/>
<path d="M8.16467 213L14.2104 219.177L8.01752 223.045L1.98513 216.868L8.16467 213Z" fill="#FCCD1F"/>
<path d="M54.9614 263.379L47.7921 269.159L42.1074 264.725L49.2768 258.944L54.9614 263.379Z" fill="#F482AE"/>
<path d="M138.332 84.6532L131.765 88.4501L127.939 84.214L134.507 80.417L138.332 84.6532Z" fill="#20BDBD"/>
<path d="M310.302 335.309L313.298 342.577L305.032 344.532L302.036 337.25L310.302 335.309Z" fill="#F482AE"/>
<path d="M81.1906 88.7461L85.4307 95.83L78.5823 98.5502L74.3423 91.4521L81.1906 88.7461Z" fill="#20BDBD"/>
<path d="M112.156 383.209L110.069 390.661L102.405 389.442L104.505 381.99L112.156 383.209Z" fill="#F482AE"/>
<path d="M349.333 56.1748L349.119 64.1371L341.133 64.2363L341.347 56.274L349.333 56.1748Z" fill="#FCCD1F"/>
<path d="M283.724 54.9707L290.599 60.5528L284.299 65.4407L277.424 59.8444L283.724 54.9707Z" fill="#F482AE"/>
<path d="M312.416 57.2373L314.811 64.8879L306.718 66.6872L304.337 59.0366L312.416 57.2373Z" fill="#20BDBD"/>
<path d="M174.286 65.8378L181.495 65.2002L180.171 72.1566L172.961 72.7941L174.286 65.8378Z" fill="#FCCD1F"/>
<path d="M187.406 27.1309L191.473 34.2856L182.591 37.6575L178.525 30.5028L187.406 27.1309Z" fill="#FC5042"/>
<path d="M199.499 5.55371L208.674 9.08149L208.006 14.4511L198.816 10.9233L199.499 5.55371Z" fill="#FCCD1F"/>
<path d="M221.781 34.2999L226.503 33.209L228.737 40.7887L224.015 41.8797L221.781 34.2999Z" fill="#F482AE"/>
<path d="M213.007 84.3403L208.673 81.5776L211.696 78.0215L216.017 80.7842L213.007 84.3403Z" fill="#20BDBD"/>
<path d="M355.873 336.81L362.614 333.282L367.175 337.419L360.434 340.947L355.873 336.81Z" fill="#F482AE"/>
<path d="M277.612 11.6462L271.847 7.52335L277.224 4.95898L282.989 9.08181L277.612 11.6462Z" fill="#FCCD1F"/>
<path d="M314.489 37.6861L320.655 33.8467L326.019 36.8077L319.852 40.6472L314.489 37.6861Z" fill="#F482AE"/>
<path d="M268.115 32.2024L275.298 29.0146L279.926 32.5849L272.73 35.7727L268.115 32.2024Z" fill="#243FAC"/>
<path d="M111.433 66.6024L115.767 63.2021L121.452 65.7949L117.118 69.2093L111.433 66.6024Z" fill="#FCCD1F"/>
<path d="M34.3897 117.379L38.9241 112.732L46.7622 115.495L42.2279 120.128L34.3897 117.379Z" fill="#20BDBD"/>
<path d="M148.551 40.3931L147.788 36.1852L154.128 35.8311L154.891 40.0389L148.551 40.3931Z" fill="#FCCD1F"/>
<path d="M87.4647 317.032L80.2151 318.322L82.7564 311.847L89.9927 310.558L87.4647 317.032Z" fill="#F482AE"/>
<path d="M341.735 94.1172L350.336 96.6107L348.731 101.598L340.117 99.1042L341.735 94.1172Z" fill="#FCCD1F"/>
<path d="M129.785 8.0473L131.376 0.226684L136.138 0L134.546 7.82061L129.785 8.0473Z" fill="#FCCD1F"/>
<path d="M114.429 44.8691L116.944 52.1939L110.965 52.4489L108.45 45.1242L114.429 44.8691Z" fill="#20BDBD"/>
<path d="M17.1087 283.682L24.1978 291.276L19.3825 296.107L12.2934 288.527L17.1087 283.682Z" fill="#FC5042"/>
<path d="M11.1016 257.531L4.70801 261.342L-0.000206426 254.825L6.39335 251L11.1016 257.531Z" fill="#2A44AE"/>
<path d="M56.7939 200.488L50.9488 205.022L44.903 197.64L50.7615 193.106L56.7939 200.488Z" fill="#20BDBD"/>
<path d="M30.7511 226.26L26.832 221.967L32.1288 217.051L36.0479 221.329L30.7511 226.26Z" fill="#FCCD1F"/>
<path d="M59.9513 338.681L65.3685 335.309L68.2041 340.777L62.787 344.135L59.9513 338.681Z" fill="#FCCD1F"/>
<path d="M9.45703 129.635L7.31692 122.056L13.6971 123.912L15.8506 131.491L9.45703 129.635Z" fill="#F482AE"/>
<path d="M52.9692 305.868L56.2997 300.187L59.978 305.174L56.6475 310.855L52.9692 305.868Z" fill="#20BDBD"/>
<path d="M10.9184 78.7238L18.7298 73L24.7622 78.1429L16.9642 83.8667L10.9184 78.7238Z" fill="#FCCD1F"/>
<path d="M37.4928 60.9922L47.6583 61.8989L48.9424 70.1446L38.7635 69.2378L37.4928 60.9922Z" fill="#F482AE"/>
<path d="M58.5596 139.736L53.0354 146.027L48.5278 143.462L54.052 137.172L58.5596 139.736Z" fill="#FCCD1F"/>
<path d="M15.3194 176L20.9238 179.613L16.5232 184.274L10.9189 180.647L15.3194 176Z" fill="#F482AE"/>
<path d="M7.57078 153.847L15.4624 153.323L14.0847 159.614L6.1797 160.138L7.57078 153.847Z" fill="#20BDBD"/>
<path d="M20.6264 55.1267L22.4722 44.7842L29.5747 48.8645L27.7155 59.207L20.6264 55.1267Z" fill="#FC5042"/>
<path d="M132.419 405.397L142.424 406.262L141.394 413.076L131.389 412.212L132.419 405.397Z" fill="#20BDBD"/>
<path d="M262.15 388.311L265.427 380.59L270.697 381.1L267.433 388.821L262.15 388.311Z" fill="#FCCD1F"/>
<path d="M182.444 385.462L181.107 378.917L187.032 379.795L188.356 386.327L182.444 385.462Z" fill="#20BDBD"/>
<path d="M182.002 425.529L185.266 420.797L190.603 425.175L187.326 429.921L182.002 425.529Z" fill="#FCCD1F"/>
<path d="M316.522 409.661L309.514 406.289L314.208 401.6L321.217 404.986L316.522 409.661Z" fill="#FCCD1F"/>
<path d="M209.771 394.913L206.748 389.146L212.285 388.65L216.044 394.147L209.771 394.913Z" fill="#FCCD1F"/>
<path d="M233.819 364.04L233.351 358.996L239.103 361.036L239.571 366.094L233.819 364.04Z" fill="#F482AE"/>
<path d="M244.788 403.754L246.246 399.589L252.051 402.876L250.593 407.041L244.788 403.754Z" fill="#FCCD1F"/>
<path d="M160.429 389.415L167.063 392.475L162.769 397.93L156.135 394.87L160.429 389.415Z" fill="#FCCD1F"/>
<path d="M229.567 393.68L227.44 390.152L231.653 388.494L233.793 392.008L229.567 393.68Z" fill="#20BDBD"/>
<path d="M83.8661 337.575L89.203 336.768L93.0552 341.91L87.7183 342.732L83.8661 337.575Z" fill="#FCCD1F"/>
<path d="M114.149 352.352L115.353 348.271L121.091 351.148L119.887 355.228L114.149 352.352Z" fill="#FCCD1F"/>
<path d="M375 163.85L366.788 167.052L361.464 159.501L369.677 156.299L375 163.85Z" fill="#FCCD1F"/>
<path d="M343.167 174.646L350.001 180.243L343.447 184.819L336.612 179.237L343.167 174.646Z" fill="#20BDBD"/>
<path d="M323.263 314.894L328.627 310.374L333.991 313.42L328.614 317.94L323.263 314.894Z" fill="#FCCD1F"/>
<path d="M351.137 301.207L358.173 297.963L362.466 302.369L355.444 305.613L351.137 301.207Z" fill="#20BDBD"/>
<path d="M355.017 118.825L357.157 113.866L364.968 116.431L362.842 121.375L355.017 118.825Z" fill="#FC5042"/>
<path d="M366.854 235.171L360.822 239.521L356.207 235.525L362.239 231.176L366.854 235.171Z" fill="#FCCD1F"/>
<path d="M372.606 276.13L364.795 275.351L363.858 268.891L371.67 269.67L372.606 276.13Z" fill="#FC5042"/>
<path d="M337.708 270.519L329.964 270.165L328.653 263.917L336.397 264.271L337.708 270.519Z" fill="#20BDBD"/>
<path d="M304.109 281.853L301.166 275.86L307.399 274.798L310.462 280.876L304.109 281.853Z" fill="#FCCD1F"/>
<path d="M314.409 206.779L313.94 201.636L319.692 203.718L320.16 208.861L314.409 206.779Z" fill="#F482AE"/>
<path d="M322.273 234.52L323.717 230.284L329.522 233.628L328.065 237.864L322.273 234.52Z" fill="#FCCD1F"/>
<path d="M299.95 155.476L304.243 150.687L307.681 152.685L303.4 157.474L299.95 155.476Z" fill="#FCCD1F"/>
<path d="M327.69 129.225L323.397 126.406L326.807 122.85L331.101 125.669L327.69 129.225Z" fill="#F482AE"/>
<path d="M324.079 150.434L319.652 150.689L320.455 147.175L324.882 146.92L324.079 150.434Z" fill="#20BDBD"/>
<path d="M302.866 205.233L302.371 210.206L296.807 207.429L297.301 202.442L302.866 205.233Z" fill="#20BDBD"/>
<path d="M373.583 203.831L370.239 211.17L365.932 206.084L369.276 198.745L373.583 203.831Z" fill="#243FAC"/>
<path d="M350.295 199.808L346.403 198.164L349.64 192.101L353.532 193.744L350.295 199.808Z" fill="#FCCD1F"/>
<path d="M286.387 90.6594L285.344 95.4056L281.639 93.1954L282.682 88.4492L286.387 90.6594Z" fill="#FCCD1F"/>
<path d="M297.689 114.646L299.495 117.268L295.923 120.597L294.104 117.99L297.689 114.646Z" fill="#F482AE"/>
<path d="M306.945 98.1404L310.837 94.8818L312.201 97.5595L308.295 100.818L306.945 98.1404Z" fill="#20BDBD"/>
<path d="M239.104 65.2715L240.83 70.6836L236.737 75.614L235.025 70.2019L239.104 65.2715Z" fill="#FCCD1F"/>
<path d="M242.862 94.3437L246.875 94.868L245.243 101.357L241.23 100.847L242.862 94.3437Z" fill="#FCCD1F"/>
<path d="M264.477 68.1893L257.121 68.4585L258.739 62.3522L266.096 62.083L264.477 68.1893Z" fill="#20BDBD"/>
<path d="M91.1289 153.579L91.8779 157.744L89.2162 159.119L88.4538 154.953L91.1289 153.579Z" fill="#20BDBD"/>
<path d="M72.1892 130.031L70.4904 123.4L76.4961 123.514L78.1948 130.144L72.1892 130.031Z" fill="#FCCD1F"/>
<path d="M102.405 97.8571L99.8238 94.1593L104.866 89.4414L107.435 93.125L102.405 97.8571Z" fill="#F482AE"/>
<path d="M58.386 248.077L56.8345 243.232L60.486 238.783L62.0376 243.643L58.386 248.077Z" fill="#FCCD1F"/>
<path d="M98.3787 131.492L94.7806 131.038L96.2386 125.201L99.8232 125.669L98.3787 131.492Z" fill="#FCCD1F"/>
<path d="M41.6788 239.408L48.2729 239.139L46.8418 244.622L40.2476 244.891L41.6788 239.408Z" fill="#20BDBD"/>
</svg>
