<svg width="331" height="80" viewBox="0 0 331 80" fill="none" xmlns="http://www.w3.org/2000/svg">
<path d="M0 45C0 25.67 15.67 10 35 10H296C315.33 10 331 25.67 331 45C331 64.33 315.33 80 296 80H35C15.67 80 0 64.33 0 45Z" fill="#E38C8C"/>
<path d="M0 40C0 20.67 15.67 5 35 5H296C315.33 5 331 20.67 331 40C331 59.33 315.33 75 296 75H35C15.67 75 0 59.33 0 40Z" fill="#579F8E"/>
<mask id="mask0_357_644" style="mask-type:alpha" maskUnits="userSpaceOnUse" x="0" y="0" width="331" height="70">
<path d="M0 35C0 15.67 15.67 0 35 0H296C315.33 0 331 15.67 331 35C331 54.33 315.33 70 296 70H35C15.67 70 0 54.33 0 35Z" fill="#67C0AB"/>
</mask>
<g mask="url(#mask0_357_644)">
<path d="M0 35C0 15.67 15.67 0 35 0H296C315.33 0 331 15.67 331 35C331 54.33 315.33 70 296 70H35C15.67 70 0 54.33 0 35Z" fill="#67C0AB"/>
<path d="M169.756 35C56.6488 34.6216 1.89194 21.2838 -10.4023 12.7702L26.9534 -5.6757L255.816 -18.9189C292.541 -15.1352 361.263 -3.40543 342.349 13.2432C323.435 29.8919 219.406 34.6847 169.756 35Z" fill="#8AD7B2"/>
<path d="M49.1768 14.6626C49.1768 18.3197 44.5193 21.2843 38.774 21.2843C33.0286 21.2843 28.3711 18.3197 28.3711 14.6626C28.3711 11.0056 33.0286 8.04102 38.774 8.04102C44.5193 8.04102 49.1768 11.0056 49.1768 14.6626Z" fill="#DBFFE1"/>
<path d="M33.1003 31.6894C33.1003 33.2567 31.1949 34.5272 28.8446 34.5272C26.4942 34.5272 24.5889 33.2567 24.5889 31.6894C24.5889 30.1221 26.4942 28.8516 28.8446 28.8516C31.1949 28.8516 33.1003 30.1221 33.1003 31.6894Z" fill="#DBFFE1"/>
<path d="M119.681 40.1068C119.729 42.1998 119.316 44.2778 118.473 46.1943C117.714 47.8744 116.58 49.3586 115.158 50.5332C113.711 51.7139 112.043 52.5945 110.251 53.1234C108.289 53.7149 106.25 54.0081 104.201 53.993C103.28 53.9823 102.363 53.8694 101.467 53.6564C100.474 53.4413 99.4629 53.1608 98.4515 52.8335C97.4402 52.5062 96.4476 52.1509 95.5111 51.7675C94.5747 51.3841 93.7319 51.0194 93.0015 50.6828L94.1159 40.2097C95.6113 41.0997 97.23 41.7646 98.9197 42.1827C100.611 42.6234 102.351 42.8497 104.098 42.856C104.417 42.856 104.81 42.856 105.269 42.856C105.714 42.8323 106.154 42.7538 106.58 42.6223C106.97 42.5106 107.331 42.316 107.638 42.0519C107.786 41.9127 107.902 41.7423 107.976 41.5531C108.051 41.3639 108.082 41.1606 108.069 40.9578C108.074 40.656 107.967 40.3629 107.769 40.1349C107.547 39.8931 107.276 39.7018 106.973 39.5738C106.622 39.4221 106.254 39.3123 105.878 39.2466C105.475 39.1718 105.072 39.1157 104.688 39.0783C104.304 39.0409 103.93 39.0783 103.593 39.0783H102.778C101.41 39.0979 100.052 38.8369 98.7887 38.3115C97.6258 37.8242 96.5767 37.1014 95.7078 36.1888C94.8383 35.2538 94.1607 34.1578 93.7131 32.9627C93.2271 31.6654 92.9859 30.2894 93.0015 28.9044C92.9718 27.0419 93.3858 25.199 94.2095 23.5276C94.9949 21.9723 96.095 20.5968 97.4402 19.488C98.8301 18.3562 100.417 17.4907 102.122 16.9351C103.866 16.329 105.698 16.013 107.544 16C108.378 16 109.239 16 110.12 16.0842C111 16.1683 111.88 16.2525 112.751 16.4021C113.613 16.5523 114.467 16.7489 115.307 16.9912C116.123 17.2332 116.916 17.5461 117.677 17.9263L116.74 28.2124C115.554 27.8102 114.343 27.4823 113.116 27.2305C111.885 26.9708 110.629 26.8392 109.37 26.8378H108.518C108.172 26.8378 107.807 26.8378 107.423 26.9126C107.039 26.9874 106.655 27.0248 106.261 27.109C105.904 27.1845 105.556 27.2973 105.222 27.4456C104.933 27.5776 104.679 27.7763 104.482 28.0254C104.295 28.2605 104.204 28.5581 104.229 28.8576C104.229 29.0344 104.266 29.2093 104.339 29.3706C104.412 29.5318 104.518 29.6757 104.651 29.7927C104.951 30.0389 105.298 30.2203 105.672 30.3257C106.117 30.4612 106.575 30.549 107.039 30.5876C107.544 30.6437 108.041 30.6717 108.528 30.681H109.904C110.253 30.6548 110.604 30.6548 110.953 30.681C112.216 30.7445 113.456 31.036 114.615 31.5413C115.657 32.0065 116.596 32.674 117.377 33.5051C118.148 34.3458 118.738 35.3356 119.109 36.4132C119.505 37.6039 119.698 38.8524 119.681 40.1068Z" fill="white"/>
<path d="M148.186 17.2812L147.933 28.063L140.348 28.3622L138.419 52.469L127.669 53.0207L127.725 28.9232L120.14 29.3347L120.439 17.3374L148.186 17.2812Z" fill="white"/>
<path d="M178.181 51.4496L165.548 53.0767L164.022 47.3258H158.178L156.914 53.0767L143.926 51.805L154.058 17.9451L168.217 17.2344L178.181 51.4496ZM163.104 39.5178L161.175 30.6717L159.302 39.5178H163.104Z" fill="white"/>
<path d="M208.549 29.1294C208.562 30.3383 208.445 31.5451 208.202 32.7295C207.99 33.7617 207.627 34.7572 207.125 35.6844C206.624 36.6017 205.993 37.4425 205.253 38.1811C204.392 39.0025 203.451 39.7356 202.443 40.3692L208.502 51.1416L197.049 53.3765L193.126 42.548L189.97 42.6509L189.511 53.2268H178.508C178.589 49.3618 178.67 45.5154 178.751 41.6878C178.832 37.8601 178.92 34.0137 179.013 30.1486C179.013 28.1943 179.088 26.268 179.116 24.3511C179.145 22.4341 179.22 20.4985 179.323 18.5534C180.473 18.1261 181.645 17.7609 182.834 17.4593C183.979 17.1711 185.139 16.9464 186.308 16.7861C187.47 16.6271 188.649 16.5149 189.848 16.4588C191.047 16.4027 192.273 16.3653 193.528 16.3653C195.43 16.3606 197.323 16.6315 199.147 17.1695C200.883 17.6683 202.511 18.483 203.951 19.5727C205.346 20.642 206.487 22.0053 207.294 23.5656C208.165 25.2887 208.596 27.1999 208.549 29.1294ZM197.143 29.9429C197.152 29.2801 197.054 28.6202 196.853 27.9886C196.673 27.4195 196.376 26.8941 195.982 26.4457C195.589 26.0048 195.103 25.6567 194.558 25.4264C193.925 25.1716 193.246 25.0475 192.564 25.0617C192.232 25.0593 191.9 25.0812 191.571 25.1272C191.255 25.1656 190.942 25.2281 190.635 25.3142L190.232 34.768H190.841C191.592 34.7684 192.34 34.6774 193.069 34.4969C193.791 34.3231 194.478 34.0291 195.102 33.6272C195.697 33.2413 196.202 32.7308 196.581 32.131C196.973 31.4698 197.168 30.7108 197.143 29.9429Z" fill="white"/>
<path d="M237.214 17.2812L236.961 28.063L229.376 28.3622L227.475 52.469L216.734 53.0207V28.9232L209.148 29.3347L209.457 17.3374L237.214 17.2812Z" fill="white"/>
</g>
</svg>
