<svg width="64" height="68" viewBox="0 0 64 68" fill="none" xmlns="http://www.w3.org/2000/svg">
<g style="mix-blend-mode:darken">
<g style="mix-blend-mode:darken">
<path d="M55.2848 59.1903C55.3104 64.1534 43.8468 67.0027 29.7819 67.0754C15.7169 67.1481 7.82424 63.3054 7.80424 59.4357C7.78434 55.566 15.7169 52.3879 29.7818 52.3152C43.8468 52.2425 55.2649 55.3206 55.2848 59.1903Z" fill="#E2DAC1"/>
</g>
</g>
<path d="M62.332 37.998C61.8463 40.4021 61.0775 42.7407 60.0417 44.965C53.4459 49.4315 41.473 50.993 28.5464 48.3898C7.4394 47.8086 2.9848 43.9109 0.857699 33.0448C0.664699 27.563 1.9205 22.1256 4.4987 17.2797C10.794 5.49036 24.2873 -1.30954 38.0647 1.46546C51.8422 4.24046 61.624 15.728 62.8312 29.0275C63.1017 32.0256 62.9336 35.0475 62.332 37.998Z" fill="white"/>
<path d="M62.085 32.7302C62.0432 34.066 61.9131 35.3977 61.6956 36.7167C61.6009 37.2989 61.4897 37.8778 61.3622 38.4536C61.2945 38.7561 61.2211 39.0575 61.1459 39.359C61.0201 39.8616 61.0975 39.4799 61.126 39.4478C61.0449 39.5302 60.9594 39.6082 60.8697 39.6812C59.4437 40.9553 57.8281 42.0277 56.1378 42.9197C51.9498 45.1289 47.2842 46.4199 42.6241 47.1425C37.2654 47.9752 31.7867 48.0771 26.3994 47.5114C21.7491 47.0199 17.1149 46.038 12.7447 44.3529C8.93674 42.8859 5.10344 40.88 2.27944 37.8703L2.44314 38.3114C0.914344 30.9873 2.07934 23.3017 5.82514 16.8034C8.98704 11.32 13.9429 6.87558 19.7349 4.31638C25.7691 1.66358 32.4982 1.03618 38.9123 2.52858C44.8996 3.93958 50.3077 7.14948 54.4093 11.7264C58.823 16.6756 61.5265 22.9746 62.0123 29.5968C62.0885 30.6382 62.1082 31.6824 62.0835 32.7262C62.0724 33.2076 62.6028 33.565 63.0425 33.5304C63.5634 33.4896 63.8408 33.0459 63.8492 32.5713C64.126 20.7548 57.6744 9.59938 47.3443 3.89078C37.299 -1.65692 24.6651 -1.22331 14.9467 4.88019C10.2039 7.85909 6.29054 12.1083 3.67234 17.0555C0.639644 22.7852 -0.558556 29.4433 0.241644 35.869C0.349844 36.7403 0.491444 37.6102 0.678244 38.4686C0.808344 39.0667 1.40024 39.5055 1.83214 39.9138C2.64834 40.6795 3.52004 41.3839 4.44014 42.0214C6.58884 43.5224 8.93464 44.7286 11.3644 45.7129C17.1524 48.0523 23.4046 49.2162 29.6264 49.5319C36.5906 49.8853 43.672 49.251 50.3569 47.1794C53.1639 46.3095 55.8929 45.166 58.4153 43.6539C59.4857 43.0185 60.5038 42.299 61.46 41.5021C61.9433 41.0964 62.5725 40.6676 62.785 40.0631C63.0557 39.2937 63.1868 38.4382 63.3341 37.6385C63.6348 35.9663 63.8076 34.2739 63.8509 32.5759C63.8676 32.0937 63.3296 31.7372 62.8923 31.771C62.3698 31.811 62.0994 32.2541 62.085 32.7302Z" fill="#1E7808"/>
<path d="M56.4396 42.8585C62.6535 29.3276 56.7217 13.3445 43.1908 7.15936C29.6598 0.974163 13.6535 6.92916 7.4396 20.4602C1.2258 33.9912 7.1575 49.9742 20.6885 56.1594C34.2195 62.3445 50.2258 56.3895 56.4396 42.8585Z" fill="#CCEFF4" fill-opacity="0.4"/>
<path d="M61.9125 39.9107C58.2674 53.4427 45.7309 63.2506 31.0976 62.8823C16.4642 62.514 4.47221 52.0883 1.56201 38.3907C6.98221 44.2104 18.2979 48.3914 31.4794 48.7237C44.6609 49.0559 56.1851 45.4495 61.9125 39.9107Z" fill="#74CB54"/>
<path d="M61.04 39.7599C58.242 50.0298 49.9671 58.2151 39.6976 60.9907C29.365 63.7826 18.1092 60.6959 10.5615 53.1792C6.48855 49.1035 3.67225 43.9446 2.44605 38.3137L0.841746 38.9105C6.14205 44.5566 14.1661 47.2706 21.6088 48.6167C31.2869 50.3669 41.7036 50.031 51.0904 46.945C55.2858 45.5658 59.3858 43.5521 62.5976 40.4715C62.9458 40.1375 62.8092 39.506 62.4745 39.2262C62.0724 38.8894 61.5706 39.022 61.2272 39.351C58.594 41.8771 55.2089 43.5772 51.8129 44.8211C47.4695 46.413 42.8838 47.2817 38.2823 47.6543C29.3509 48.3779 19.9383 47.3799 11.6296 43.9078C8.22155 42.4834 4.83124 40.5907 2.28235 37.8726C2.01055 37.583 1.65515 37.4125 1.25405 37.5617C0.921746 37.6853 0.599146 38.0951 0.678046 38.4694C2.99905 49.2459 10.8359 58.3375 21.293 61.9779C32.0749 65.7292 44.3778 63.4108 52.9663 55.8368C57.7124 51.6495 61.1263 46.1642 62.7845 40.0615C63.085 38.9613 61.337 38.6682 61.04 39.7599Z" fill="#1E7808"/>
<path d="M22.4407 18.7335C23.6074 16.193 22.4937 13.1921 19.9532 12.0309C17.4128 10.8696 14.4075 11.9877 13.2409 14.5281C12.0742 17.0686 13.1879 20.0694 15.7284 21.2307C18.2689 22.392 21.2741 21.2739 22.4407 18.7335Z" fill="white"/>
</svg>
