<svg width="111" height="111" viewBox="0 0 111 111" fill="none" xmlns="http://www.w3.org/2000/svg">
<path d="M41.5266 22.0618C41.0512 21.7058 40.4539 21.5529 39.8658 21.6367C39.2778 21.7205 38.747 22.0341 38.3899 22.5088L29.5783 34.2631L20.7584 22.5088C20.5812 22.2735 20.3594 22.0754 20.1057 21.9258C19.852 21.7762 19.5713 21.678 19.2796 21.6369C18.9879 21.5958 18.691 21.6126 18.4058 21.6862C18.1206 21.7598 17.8527 21.8889 17.6174 22.0661C17.3821 22.2432 17.184 22.465 17.0344 22.7187C16.8848 22.9725 16.7867 23.2532 16.7456 23.5449C16.7045 23.8365 16.7212 24.1335 16.7949 24.4187C16.8685 24.7038 16.9976 24.9717 17.1748 25.207L27.7823 39.3476C27.9903 39.6267 28.2606 39.8535 28.5717 40.0096C28.8828 40.1658 29.2261 40.2471 29.5741 40.2471C29.9222 40.2471 30.2655 40.1658 30.5766 40.0096C30.8877 39.8535 31.158 39.6267 31.366 39.3476L41.9819 25.207C42.1591 24.9708 42.2879 24.702 42.3609 24.4159C42.4339 24.1298 42.4497 23.8321 42.4074 23.5399C42.3651 23.2477 42.2655 22.9667 42.1144 22.7131C41.9632 22.4595 41.7635 22.2381 41.5266 22.0618V22.0618Z" fill="#AC8BD6" fill-opacity="0.5"/>
<path d="M40.0036 55.666H19.1257C18.5309 55.666 17.9604 55.9023 17.5398 56.3229C17.1191 56.7436 16.8828 57.3141 16.8828 57.9089C16.8828 58.5038 17.1191 59.0743 17.5398 59.4949C17.9604 59.9156 18.5309 60.1519 19.1257 60.1519H39.9699C40.5647 60.1519 41.1352 59.9156 41.5559 59.4949C41.9765 59.0743 42.2128 58.5038 42.2128 57.9089C42.2128 57.3141 41.9765 56.7436 41.5559 56.3229C41.1352 55.9023 40.5647 55.666 39.9699 55.666H40.0036Z" fill="#AC8BD6" fill-opacity="0.5"/>
<path d="M40.0036 69.123H19.1257C18.5309 69.123 17.9604 69.3594 17.5398 69.78C17.1191 70.2006 16.8828 70.7711 16.8828 71.366C16.8828 71.9609 17.1191 72.5313 17.5398 72.952C17.9604 73.3726 18.5309 73.6089 19.1257 73.6089H39.9699C40.5647 73.6089 41.1352 73.3726 41.5559 72.952C41.9765 72.5313 42.2128 71.9609 42.2128 71.366C42.2128 70.7711 41.9765 70.2006 41.5559 69.78C41.1352 69.3594 40.5647 69.123 39.9699 69.123H40.0036Z" fill="#AC8BD6" fill-opacity="0.5"/>
<path d="M40.0036 82.5732H19.1257C18.5309 82.5732 17.9604 82.8096 17.5398 83.2302C17.1191 83.6508 16.8828 84.2213 16.8828 84.8162C16.8828 85.4111 17.1191 85.9815 17.5398 86.4022C17.9604 86.8228 18.5309 87.0591 19.1257 87.0591H39.9699C40.5647 87.0591 41.1352 86.8228 41.5559 86.4022C41.9765 85.9815 42.2128 85.4111 42.2128 84.8162C42.2128 84.2213 41.9765 83.6508 41.5559 83.2302C41.1352 82.8096 40.5647 82.5732 39.9699 82.5732H40.0036Z" fill="#AC8BD6" fill-opacity="0.5"/>
<path d="M110.342 59.1735C109.921 58.7533 109.351 58.5173 108.756 58.5173C108.162 58.5173 107.592 58.7533 107.171 59.1735L86.0909 80.2537C85.2914 78.123 83.9431 76.2412 82.1825 74.799C80.422 73.3568 78.3116 72.4054 76.0652 72.0409C75.6237 69.3627 74.354 66.8903 72.4347 64.971C70.5154 63.0517 68.043 61.7821 65.3648 61.3406C64.9935 59.0969 64.0406 56.9897 62.6011 55.2291C61.1615 53.4685 59.2856 52.116 57.1604 51.3064L104.633 3.8337C105.032 3.409 105.25 2.84563 105.241 2.26287C105.232 1.68012 104.997 1.12377 104.585 0.711656C104.173 0.299537 103.616 0.0639924 103.033 0.0549573C102.451 0.0459223 101.887 0.264082 101.463 0.663227L50.9966 51.1293C50.5766 51.5502 50.3402 52.12 50.3389 52.7146V84.8239C50.3389 85.4188 50.5752 85.9893 50.9958 86.4099C51.4164 86.8306 51.9869 87.0669 52.5818 87.0669H84.6912C85.2857 87.0656 85.8556 86.8291 86.2764 86.4091L110.333 62.3524C110.543 62.1446 110.71 61.8973 110.824 61.6249C110.938 61.3524 110.997 61.0601 110.998 60.7647C110.999 60.4693 110.941 60.1767 110.828 59.9036C110.716 59.6306 110.55 59.3825 110.342 59.1735V59.1735ZM61.0561 63.3896C61.0561 63.6841 61.1141 63.9758 61.2268 64.2479C61.3395 64.52 61.5047 64.7673 61.713 64.9756C61.9213 65.1838 62.1685 65.349 62.4407 65.4618C62.7128 65.5745 63.0044 65.6325 63.299 65.6325C65.5353 65.6325 67.68 66.5209 69.2614 68.1022C70.8427 69.6835 71.7311 71.8283 71.7311 74.0646C71.7311 74.3592 71.7891 74.6508 71.9018 74.9229C72.0145 75.195 72.1797 75.4423 72.388 75.6506C72.5963 75.8588 72.8436 76.0241 73.1157 76.1368C73.3878 76.2495 73.6794 76.3075 73.974 76.3075C75.0841 76.3055 76.1836 76.5228 77.2095 76.9467C78.2354 77.3707 79.1675 77.9931 79.9524 78.7781C80.9877 79.818 81.737 81.1076 82.1278 82.522H60.685L54.8332 76.6701V55.261C56.6282 55.7483 58.2118 56.8155 59.3373 58.2963C60.4628 59.7772 61.0671 61.5886 61.0561 63.4486V63.3896Z" fill="#AC8BD6" fill-opacity="0.5"/>
<path d="M94.3635 88.7477C93.7693 88.7499 93.2001 88.9869 92.7799 89.4071C92.3598 89.8272 92.1227 90.3964 92.1205 90.9906V102.408C92.1205 103.492 91.6897 104.533 90.9227 105.299C90.1558 106.066 89.1156 106.497 88.031 106.497H8.57543C7.49081 106.497 6.45061 106.066 5.68367 105.299C4.91673 104.533 4.48586 103.492 4.48586 102.408V8.57542C4.48809 7.49148 4.91967 6.45261 5.68612 5.68615C6.45258 4.91969 7.49149 4.4881 8.57543 4.48588H87.1962C87.7911 4.48588 88.3615 4.24955 88.7822 3.82892C89.2028 3.40829 89.4391 2.83778 89.4391 2.24291C89.4391 1.64805 89.2028 1.07759 88.7822 0.656955C88.3615 0.236324 87.7911 0 87.1962 0H8.57543C6.30245 0.00445683 4.12384 0.909365 2.5166 2.51661C0.909365 4.12385 0.00445683 6.30244 0 8.57542V102.425C0.00445683 104.698 0.909365 106.876 2.5166 108.483C4.12384 110.091 6.30245 110.996 8.57543 111H88.031C90.3046 110.998 92.4845 110.094 94.0922 108.486C95.7 106.878 96.6042 104.698 96.6064 102.425V91.0075C96.6086 90.7115 96.5522 90.4181 96.4405 90.144C96.3288 89.8699 96.1639 89.6207 95.9554 89.4106C95.7469 89.2005 95.4989 89.0338 95.2257 88.9201C94.9525 88.8063 94.6594 88.7477 94.3635 88.7477Z" fill="#AC8BD6" fill-opacity="0.5"/>
</svg>
